<?xml version="1.0" encoding="UTF-8"?>
<svg id="Capa_2" data-name="Capa 2" xmlns="http://www.w3.org/2000/svg" viewBox="0 0 263.37 263.37">
  <defs>
    <style>
      .cls-1 {
        fill: none;
        stroke: #0e6839;
        stroke-miterlimit: 10;
        stroke-width: 5px;
      }

      .cls-2 {
        fill: #0f6739;
      }
    </style>
  </defs>
  <g id="Capa_2-2" data-name="Capa 2">
    <g>
      <g>
        <path class="cls-2" d="M210.54,186.33l-.02.05.14.04-.13-.1ZM216.54,182.61s0,.01-.01.01c-.05.04-.09.07-.14.11-.01,0-.02.02-.03.03-.07.05-.13.1-.18.16h-.01s-.04.04-.06.05h0s-.1.1-.1.1c-.04.03-.07.06-.09.09h0s-.02.02-.02.02h0s-.02.02-.02.03h0s-.05.05-.08.08l-.05.07-.07.09c.06-.07.12-.14.19-.21h0s0-.01.01-.02c0-.01.02-.02.02-.03.19-.2.4-.4.63-.57.11-.08.23-.17.35-.25v-.04c-.12.07-.22.17-.34.25ZM215.32,183.96s-.01.01-.02.02c0,0,0,0,0,0h0s-.04.05-.05.08c-.05.08-.1.16-.14.24-.05.08-.09.17-.13.25,0,.01-.02.02-.02.04,0,.01-.02.02-.02.04,0,0,0,0,0,.01,0,.01,0,.02-.01.03t0,0s0,0,0,.01c0,0,0,.01-.01.02h0s-.01.04-.02.05c-.02.04-.04.08-.05.12-.02.04-.04.08-.05.12h.01s.01.01.01.01h0c.13-.36.3-.71.51-1.03.02-.04.04-.07.07-.1-.02.02-.04.04-.05.07ZM220.93,185.46h0s0,0,0,0h0ZM221.19,181.65c-.06-.01-.11-.03-.17-.04-.2-.04-.4-.08-.61-.1-.37-.04-.74-.04-1.11,0h0v.02h0v.02c.09-.01.18-.02.27-.02.09,0,.19,0,.28,0,.11,0,.22,0,.33.01.08,0,.16.01.24.02.03,0,.07,0,.1,0,.11.01.22.03.33.05.05.01.1.02.15.04.07.01.13.02.19.04.16.04.32.09.48.14.15.05.31.12.45.19h0s.01-.02.01-.02c-.3-.14-.61-.25-.93-.34ZM224.69,184.59c-.17-.37-.38-.71-.63-1.02l-.02.02c.25.32.46.66.63,1.02.02.05.05.1.07.15,0,.01,0,.02.01.03,0,0,0,0,0,.01.02.03.03.07.04.1h0s0,.01,0,.02c0,.01,0,.03.02.04,0,.02.02.05.03.08.02.04.03.09.05.14.04.11.08.23.11.36.07.28.13.57.15.87h0c.01.16.02.31.02.45,0,.45-.05.9-.17,1.36-.36,1.39-1.24,2.55-2.47,3.28-1.04.61-2.22.85-3.39.7-.22-.04-.45-.08-.67-.14-.17-.04-.34-.1-.51-.16-.13-.04-.25-.1-.37-.15-.12-.05-.24-.11-.36-.17-.23-.13-.45-.27-.66-.43-.11-.08-.21-.16-.31-.27-.01-.01-.03-.02-.04-.04-.01-.01-.03-.02-.04-.04-.07-.06-.13-.13-.19-.19-.1-.11-.21-.22-.31-.34-.04-.05-.08-.1-.12-.14-.04-.05-.07-.1-.11-.15t-.01-.01s-.02-.04-.04-.05c-.04-.05-.07-.11-.11-.17-.04-.05-.08-.11-.11-.17h0s0-.01,0-.02c-.1-.14-.17-.3-.24-.46-.05-.11-.1-.22-.14-.34l.07-.03-.09-.02c-.14-.39-.23-.77-.28-1.18h0s-.02-.01-.02-.01h-.02c.05.4.14.8.29,1.19,0,.02.01.04.02.06.1.28.23.54.39.8,0,0,0,.01,0,.02.35.6.8,1.11,1.33,1.53.11.09.23.17.35.25.11.07.22.14.33.2.02,0,.03.02.05.02.1.06.21.11.32.16l.13.05s.04.01.05.02c.1.04.19.08.3.11.14.05.29.1.43.14,1.4.37,2.85.16,4.09-.56.31-.19.61-.4.87-.65.11-.1.21-.2.31-.31.1-.1.2-.22.29-.33.38-.46.67-.99.87-1.55.06-.14.1-.3.14-.45.33-1.27.18-2.55-.34-3.65ZM152.09,178.92h-.17s-.6-1.06-.6-1.06c-.05-.08-.1-.17-.15-.25-.13-.22-.24-.43-.35-.64l-1.05-1.9.27-.4s-.04-.19-.04-.19c-.02-.13-.04-.27-.06-.4-.02-.16-.04-.32-.05-.48v-.08s-.01-.07-.01-.07c-.01-.1-.01-.18-.02-.26,0-.11-.01-.21-.01-.32l-.18-1.36.19-.21-.1-.74.23-.27-4.6-4.48c-.82-.78-1.39-1.81-1.61-2.96l-.22-1.11-2.38-3.87c-.83,0-1.66-.11-2.45-.32-2.49-.64-4.59-2.24-5.9-4.48-1.32-2.24-1.68-4.86-1.01-7.36.83-3.18,3.21-5.66,6.21-6.7l1.16-5.97c.1-.49.24-.93.45-1.36l.04-.1c-.19-.46-.31-.95-.37-1.43l-1.55-12.33c-.7,2.27-2.21,4.18-4.29,5.4-1.47.87-3.15,1.32-4.84,1.32-.81,0-1.62-.1-2.41-.31-5.11-1.34-8.18-6.57-6.86-11.68.19-.73.46-1.43.82-2.09l-1.28-3.12c-.43-1.05-.54-2.2-.31-3.31l1.6-7.65-.23-.98c-.97-.67-1.74-1.64-2.14-2.79l-2.45-6.97c-.69-1.95-.25-4.12,1.12-5.66.7-.79,1.61-1.36,2.6-1.66l.13-.24-1.96-6.16c-.23-.75-.31-1.49-.24-2.24l.84-10.05c-2.89-1.84-4.75-4.99-5-8.39-2.79,4.01-5.55,8.54-8.25,13.68-.45.86-20.21-4.09-20.21-4.09.05,3.75,1.47,8.94,1.47,8.94-21.6-3.12-36.96,14.41-36.96,14.41,6.47.42,7.7.54,6.19,2.2-8.44,9.25-11.2,15.44-11.88,23.36-.39-.33-1.01-.78-1.53-1.32-5.71-5.87-5.62-14.33-5.16-19.59-1.38,2.8-9.04,18.95-1.48,31.54.88,1.46,3.81,4.18,5.39,5.7,1.29,12.98,3.49,17.03,5.43,18.08,2.49,1.33,3.72.52,6.08,3.38.58.71.95,1.58,1.01,2.01,1.63,7.83,5.56,18.38,6.36,20.39,1.74,4.4,4.09,8.77,6.89,11.3-.07,1.07,1.12,5.57,4.54,10.41,2.73,3.87,7.38,4.26,9.09,4.51,1.99.28,3.61.07,6.78-.37,3.81-.52,5.17-1.1,7.23-1.68,1.93,3.21,5.72,8.54,12.25,13.12,6.16,4.3,12.08,6.07,15.67,6.83-2.74-4.95-2.75-13.51-2.93-16.28.54,1.16,4.14,5.96,4.98,6.64.11-3.43,1.86-21.26,7.88-26.21,4.49-3.68,12.2-1.55,22.63,2.66-.83-.53-1.58-1.19-2.22-1.95ZM90.86,137.15c-.2,8.16-.7,6-5.77,8.58-.36.19-3.57,2.71-3.77,2.87.12-.16,1.05-1.42,1.01-3.64-.14-7.06,2.42-8.25,6.09-10.11,1.2-.6,2.87-2.44,3.28-2.22.52.3-.8,3.35-.84,4.52ZM104.88,118.67c-14.07,5.71-15.79-8.87-11.26-12.91,19.17-17.08,3.07-33.92,3.07-33.92,31.72,19.58,16.26,43.53,8.18,46.82ZM185.24,126.25l.02.16c0,.06.02.13.04.19-.02-.11-.04-.23-.05-.34ZM185.24,126.25l.02.16c0,.06.02.13.04.19-.02-.11-.04-.23-.05-.34ZM185.24,126.25l.02.16c0,.06.02.13.04.19-.02-.11-.04-.23-.05-.34ZM185.24,126.25l.02.16c0,.06.02.13.04.19-.02-.11-.04-.23-.05-.34ZM185.24,126.25l.02.16c0,.06.02.13.04.19-.02-.11-.04-.23-.05-.34ZM185.88,178.02c-.64-.16-1.21-.48-1.66-.9.07.07.14.15.22.22.42.33.9.56,1.43.7.29.07.58.11.87.11-.29,0-.58-.05-.87-.13ZM183.43,176.11s.03.07.05.11c.05.08.11.14.16.21-.08-.1-.14-.21-.2-.33ZM185.24,126.25l.02.16c0,.06.02.13.04.19-.02-.11-.04-.23-.05-.34ZM185.24,126.25l.02.16c0,.06.02.13.04.19-.02-.11-.04-.23-.05-.34ZM185.24,126.25l.02.16c0,.06.02.13.04.19-.02-.11-.04-.23-.05-.34ZM185.24,126.25l.02.16c0,.06.02.13.04.19-.02-.11-.04-.23-.05-.34ZM185.24,126.25l.02.16c0,.06.02.13.04.19-.02-.11-.04-.23-.05-.34ZM185.24,126.25l.02.16c0,.06.02.13.04.19-.02-.11-.04-.23-.05-.34ZM185.24,126.25l.02.16c0,.06.02.13.04.19-.02-.11-.04-.23-.05-.34ZM185.24,126.25l.02.16c0,.06.02.13.04.19-.02-.11-.04-.23-.05-.34ZM185.24,126.25l.02.16c0,.06.02.13.04.19-.02-.11-.04-.23-.05-.34ZM185.24,126.25l.02.16c0,.06.02.13.04.19-.02-.11-.04-.23-.05-.34ZM185.24,126.25l.02.16c0,.06.02.13.04.19-.02-.11-.04-.23-.05-.34ZM185.24,126.25l.02.16c0,.06.02.13.04.19-.02-.11-.04-.23-.05-.34ZM185.24,126.25l.02.16c0,.06.02.13.04.19-.02-.11-.04-.23-.05-.34ZM185.24,126.25l.02.16c0,.06.02.13.04.19-.02-.11-.04-.23-.05-.34ZM185.24,126.25l.02.16c0,.06.02.13.04.19-.02-.11-.04-.23-.05-.34ZM185.24,126.25l.02.16c0,.06.02.13.04.19-.02-.11-.04-.23-.05-.34ZM185.24,126.25l.02.16c0,.06.02.13.04.19-.02-.11-.04-.23-.05-.34ZM185.24,126.25l.02.16c0,.06.02.13.04.19-.02-.11-.04-.23-.05-.34ZM185.24,126.25l.02.16c0,.06.02.13.04.19-.02-.11-.04-.23-.05-.34ZM185.24,126.25l.02.16c0,.06.02.13.04.19-.02-.11-.04-.23-.05-.34ZM185.24,126.25l.02.16c0,.06.02.13.04.19-.02-.11-.04-.23-.05-.34ZM185.24,126.25l.02.16c0,.06.02.13.04.19-.02-.11-.04-.23-.05-.34ZM185.24,126.25l.02.16c0,.06.02.13.04.19-.02-.11-.04-.23-.05-.34ZM185.24,126.25l.02.16c0,.06.02.13.04.19-.02-.11-.04-.23-.05-.34ZM185.24,126.25l.02.16c0,.06.02.13.04.19-.02-.11-.04-.23-.05-.34ZM185.24,126.25l.02.16c0,.06.02.13.04.19-.02-.11-.04-.23-.05-.34ZM185.24,126.25l.02.16c0,.06.02.13.04.19-.02-.11-.04-.23-.05-.34ZM185.24,126.25l.02.16c0,.06.02.13.04.19-.02-.11-.04-.23-.05-.34ZM185.24,126.25l.02.16c0,.06.02.13.04.19-.02-.11-.04-.23-.05-.34ZM185.24,126.25l.02.16c0,.06.02.13.04.19-.02-.11-.04-.23-.05-.34ZM185.24,126.25l.02.16c0,.06.02.13.04.19-.02-.11-.04-.23-.05-.34ZM185.24,126.25l.02.16c0,.06.02.13.04.19-.02-.11-.04-.23-.05-.34ZM185.24,126.25l.02.16c0,.06.02.13.04.19-.02-.11-.04-.23-.05-.34ZM185.24,126.25l.02.16c0,.06.02.13.04.19-.02-.11-.04-.23-.05-.34ZM185.24,126.25l.02.16c0,.06.02.13.04.19-.02-.11-.04-.23-.05-.34ZM142.26,149.51h.01s0,0,0,0h-.02ZM185.24,126.25l.02.16c0,.06.02.13.04.19-.02-.11-.04-.23-.05-.34ZM185.24,126.25l.02.16c0,.06.02.13.04.19-.02-.11-.04-.23-.05-.34ZM185.24,126.25l.02.16c0,.06.02.13.04.19-.02-.11-.04-.23-.05-.34ZM185.24,126.25l.02.16c0,.06.02.13.04.19-.02-.11-.04-.23-.05-.34ZM185.24,126.25l.02.16c0,.06.02.13.04.19-.02-.11-.04-.23-.05-.34ZM185.24,126.25l.02.16c0,.06.02.13.04.19-.02-.11-.04-.23-.05-.34ZM185.24,126.25l.02.16c0,.06.02.13.04.19-.02-.11-.04-.23-.05-.34ZM185.24,126.25l.02.16c0,.06.02.13.04.19-.02-.11-.04-.23-.05-.34ZM185.24,126.25l.02.16c0,.06.02.13.04.19-.02-.11-.04-.23-.05-.34ZM185.24,126.25l.02.16c0,.06.02.13.04.19-.02-.11-.04-.23-.05-.34ZM185.24,126.25l.02.16c0,.06.02.13.04.19-.02-.11-.04-.23-.05-.34ZM185.24,126.25l.02.16c0,.06.02.13.04.19-.02-.11-.04-.23-.05-.34ZM185.24,126.25l.02.16c0,.06.02.13.04.19-.02-.11-.04-.23-.05-.34ZM185.24,126.25l.02.16c0,.06.02.13.04.19-.02-.11-.04-.23-.05-.34ZM185.24,126.25l.02.16c0,.06.02.13.04.19-.02-.11-.04-.23-.05-.34ZM185.24,126.25l.02.16c0,.06.02.13.04.19-.02-.11-.04-.23-.05-.34ZM185.24,126.25l.02.16c0,.06.02.13.04.19-.02-.11-.04-.23-.05-.34ZM185.24,126.25l.02.16c0,.06.02.13.04.19-.02-.11-.04-.23-.05-.34ZM185.24,126.25l.02.16c0,.06.02.13.04.19-.02-.11-.04-.23-.05-.34ZM185.24,126.25l.02.16c0,.06.02.13.04.19-.02-.11-.04-.23-.05-.34ZM185.24,126.25l.02.16c0,.06.02.13.04.19-.02-.11-.04-.23-.05-.34ZM185.24,126.25l.02.16c0,.06.02.13.04.19-.02-.11-.04-.23-.05-.34ZM185.24,126.25l.02.16c0,.06.02.13.04.19-.02-.11-.04-.23-.05-.34ZM185.24,126.25l.02.16c0,.06.02.13.04.19-.02-.11-.04-.23-.05-.34ZM185.24,126.25l.02.16c0,.06.02.13.04.19-.02-.11-.04-.23-.05-.34ZM185.24,126.25l.02.16c0,.06.02.13.04.19-.02-.11-.04-.23-.05-.34ZM185.24,126.25l.02.16c0,.06.02.13.04.19-.02-.11-.04-.23-.05-.34ZM185.24,126.25l.02.16c0,.06.02.13.04.19-.02-.11-.04-.23-.05-.34ZM185.24,126.25l.02.16c0,.06.02.13.04.19-.02-.11-.04-.23-.05-.34ZM185.24,126.25l.02.16c0,.06.02.13.04.19-.02-.11-.04-.23-.05-.34ZM185.24,126.25l.02.16c0,.06.02.13.04.19-.02-.11-.04-.23-.05-.34ZM185.24,126.25l.02.16c0,.06.02.13.04.19-.02-.11-.04-.23-.05-.34ZM185.24,126.25l.02.16c0,.06.02.13.04.19-.02-.11-.04-.23-.05-.34ZM185.24,126.25l.02.16c0,.06.02.13.04.19-.02-.11-.04-.23-.05-.34ZM185.24,126.25l.02.16c0,.06.02.13.04.19-.02-.11-.04-.23-.05-.34ZM185.24,126.25l.02.16c0,.06.02.13.04.19-.02-.11-.04-.23-.05-.34ZM185.24,126.25l.02.16c0,.06.02.13.04.19-.02-.11-.04-.23-.05-.34ZM185.24,126.25l.02.16c0,.06.02.13.04.19-.02-.11-.04-.23-.05-.34ZM185.24,126.25l.02.16c0,.06.02.13.04.19-.02-.11-.04-.23-.05-.34Z"/>
        <g>
          <path class="cls-2" d="M185.24,126.25l.02.16c0,.06.02.13.04.19-.02-.11-.04-.23-.05-.34ZM183.43,176.11s.03.07.05.11c.05.08.11.14.16.21-.08-.1-.14-.21-.2-.33ZM185.88,178.02c-.64-.16-1.21-.48-1.66-.9.07.07.14.15.22.22.42.33.9.56,1.43.7.29.07.58.11.87.11-.29,0-.58-.05-.87-.13Z"/>
          <path class="cls-2" d="M185.24,126.25l.02.16c0,.06.02.13.04.19-.02-.11-.04-.23-.05-.34ZM185.88,178.02c-.64-.16-1.21-.48-1.66-.9.07.07.14.15.22.22.42.33.9.56,1.43.7.29.07.58.11.87.11-.29,0-.58-.05-.87-.13ZM183.43,176.11s.03.07.05.11c.05.08.11.14.16.21-.08-.1-.14-.21-.2-.33ZM185.24,126.25l.02.16c0,.06.02.13.04.19-.02-.11-.04-.23-.05-.34ZM185.88,178.02c-.64-.16-1.21-.48-1.66-.9.07.07.14.15.22.22.42.33.9.56,1.43.7.29.07.58.11.87.11-.29,0-.58-.05-.87-.13ZM183.43,176.11s.03.07.05.11c.05.08.11.14.16.21-.08-.1-.14-.21-.2-.33ZM185.24,126.25l.02.16c0,.06.02.13.04.19-.02-.11-.04-.23-.05-.34ZM185.88,178.02c-.64-.16-1.21-.48-1.66-.9.07.07.14.15.22.22.42.33.9.56,1.43.7.29.07.58.11.87.11-.29,0-.58-.05-.87-.13ZM183.43,176.11s.03.07.05.11c.05.08.11.14.16.21-.08-.1-.14-.21-.2-.33ZM185.24,126.25l.02.16c0,.06.02.13.04.19-.02-.11-.04-.23-.05-.34ZM185.88,178.02c-.64-.16-1.21-.48-1.66-.9.07.07.14.15.22.22.42.33.9.56,1.43.7.29.07.58.11.87.11-.29,0-.58-.05-.87-.13ZM183.43,176.11s.03.07.05.11c.05.08.11.14.16.21-.08-.1-.14-.21-.2-.33ZM185.24,126.25l.02.16c0,.06.02.13.04.19-.02-.11-.04-.23-.05-.34ZM185.88,178.02c-.64-.16-1.21-.48-1.66-.9.07.07.14.15.22.22.42.33.9.56,1.43.7.29.07.58.11.87.11-.29,0-.58-.05-.87-.13ZM183.43,176.11s.03.07.05.11c.05.08.11.14.16.21-.08-.1-.14-.21-.2-.33ZM185.24,126.25l.02.16c0,.06.02.13.04.19-.02-.11-.04-.23-.05-.34ZM185.88,178.02c-.64-.16-1.21-.48-1.66-.9.07.07.14.15.22.22.42.33.9.56,1.43.7.29.07.58.11.87.11-.29,0-.58-.05-.87-.13ZM183.43,176.11s.03.07.05.11c.05.08.11.14.16.21-.08-.1-.14-.21-.2-.33ZM185.24,126.25l.02.16c0,.06.02.13.04.19-.02-.11-.04-.23-.05-.34ZM185.24,126.25l.02.16c0,.06.02.13.04.19-.02-.11-.04-.23-.05-.34ZM183.43,176.11s.03.07.05.11c.05.08.11.14.16.21-.08-.1-.14-.21-.2-.33ZM185.88,178.02c-.64-.16-1.21-.48-1.66-.9.07.07.14.15.22.22.42.33.9.56,1.43.7.29.07.58.11.87.11-.29,0-.58-.05-.87-.13ZM185.24,126.25l.02.16c0,.06.02.13.04.19-.02-.11-.04-.23-.05-.34ZM183.43,176.11s.03.07.05.11c.05.08.11.14.16.21-.08-.1-.14-.21-.2-.33ZM185.88,178.02c-.64-.16-1.21-.48-1.66-.9.07.07.14.15.22.22.42.33.9.56,1.43.7.29.07.58.11.87.11-.29,0-.58-.05-.87-.13ZM185.24,126.25l.02.16c0,.06.02.13.04.19-.02-.11-.04-.23-.05-.34ZM183.43,176.11s.03.07.05.11c.05.08.11.14.16.21-.08-.1-.14-.21-.2-.33ZM185.88,178.02c-.64-.16-1.21-.48-1.66-.9.07.07.14.15.22.22.42.33.9.56,1.43.7.29.07.58.11.87.11-.29,0-.58-.05-.87-.13ZM185.24,126.25l.02.16c0,.06.02.13.04.19-.02-.11-.04-.23-.05-.34ZM183.43,176.11s.03.07.05.11c.05.08.11.14.16.21-.08-.1-.14-.21-.2-.33ZM185.88,178.02c-.64-.16-1.21-.48-1.66-.9.07.07.14.15.22.22.42.33.9.56,1.43.7.29.07.58.11.87.11-.29,0-.58-.05-.87-.13ZM185.24,126.25l.02.16c0,.06.02.13.04.19-.02-.11-.04-.23-.05-.34ZM183.43,176.11s.03.07.05.11c.05.08.11.14.16.21-.08-.1-.14-.21-.2-.33ZM185.88,178.02c-.64-.16-1.21-.48-1.66-.9.07.07.14.15.22.22.42.33.9.56,1.43.7.29.07.58.11.87.11-.29,0-.58-.05-.87-.13ZM185.24,126.25l.02.16c0,.06.02.13.04.19-.02-.11-.04-.23-.05-.34ZM183.43,176.11s.03.07.05.11c.05.08.11.14.16.21-.08-.1-.14-.21-.2-.33ZM185.88,178.02c-.64-.16-1.21-.48-1.66-.9.07.07.14.15.22.22.42.33.9.56,1.43.7.29.07.58.11.87.11-.29,0-.58-.05-.87-.13ZM185.24,126.25l.02.16c0,.06.02.13.04.19-.02-.11-.04-.23-.05-.34Z"/>
          <path class="cls-2" d="M154.31,180.87c.84.53,1.75.93,2.74,1.19.11.03.22.06.34.08-1.05-.44-2.08-.86-3.08-1.27ZM185.24,126.25l.02.16c0,.06.02.13.04.19-.02-.11-.04-.23-.05-.34ZM185.24,126.25l.02.16c0,.06.02.13.04.19-.02-.11-.04-.23-.05-.34ZM185.24,126.25l.02.16c0,.06.02.13.04.19-.02-.11-.04-.23-.05-.34ZM185.24,126.25l.02.16c0,.06.02.13.04.19-.02-.11-.04-.23-.05-.34ZM185.24,126.25l.02.16c0,.06.02.13.04.19-.02-.11-.04-.23-.05-.34ZM185.24,126.25l.02.16c0,.06.02.13.04.19-.02-.11-.04-.23-.05-.34ZM185.24,126.25l.02.16c0,.06.02.13.04.19-.02-.11-.04-.23-.05-.34ZM185.24,126.25l.02.16c0,.06.02.13.04.19-.02-.11-.04-.23-.05-.34ZM185.24,126.25l.02.16c0,.06.02.13.04.19-.02-.11-.04-.23-.05-.34ZM185.24,126.25l.02.16c0,.06.02.13.04.19-.02-.11-.04-.23-.05-.34ZM185.24,126.25l.02.16c0,.06.02.13.04.19-.02-.11-.04-.23-.05-.34ZM185.24,126.25l.02.16c0,.06.02.13.04.19-.02-.11-.04-.23-.05-.34ZM185.24,126.25l.02.16c0,.06.02.13.04.19-.02-.11-.04-.23-.05-.34ZM185.24,126.25l.02.16c0,.06.02.13.04.19-.02-.11-.04-.23-.05-.34ZM185.24,126.25l.02.16c0,.06.02.13.04.19-.02-.11-.04-.23-.05-.34ZM185.24,126.25l.02.16c0,.06.02.13.04.19-.02-.11-.04-.23-.05-.34ZM185.24,126.25l.02.16c0,.06.02.13.04.19-.02-.11-.04-.23-.05-.34ZM185.24,126.25l.02.16c0,.06.02.13.04.19-.02-.11-.04-.23-.05-.34ZM185.24,126.25l.02.16c0,.06.02.13.04.19-.02-.11-.04-.23-.05-.34ZM185.24,126.25l.02.16c0,.06.02.13.04.19-.02-.11-.04-.23-.05-.34ZM185.24,126.25l.02.16c0,.06.02.13.04.19-.02-.11-.04-.23-.05-.34ZM185.24,126.25l.02.16c0,.06.02.13.04.19-.02-.11-.04-.23-.05-.34ZM185.24,126.25l.02.16c0,.06.02.13.04.19-.02-.11-.04-.23-.05-.34ZM185.24,126.25l.02.16c0,.06.02.13.04.19-.02-.11-.04-.23-.05-.34ZM185.24,126.25l.02.16c0,.06.02.13.04.19-.02-.11-.04-.23-.05-.34ZM185.24,126.25l.02.16c0,.06.02.13.04.19-.02-.11-.04-.23-.05-.34ZM185.24,126.25l.02.16c0,.06.02.13.04.19-.02-.11-.04-.23-.05-.34ZM185.24,126.25l.02.16c0,.06.02.13.04.19-.02-.11-.04-.23-.05-.34ZM183.43,176.11s.03.07.05.11c.05.08.11.14.16.21-.08-.1-.14-.21-.2-.33ZM185.24,126.25l.02.16c0,.06.02.13.04.19-.02-.11-.04-.23-.05-.34ZM185.88,178.02c-.64-.16-1.21-.48-1.66-.9.07.07.14.15.22.22.42.33.9.56,1.43.7.29.07.58.11.87.11-.29,0-.58-.05-.87-.13ZM185.88,178.02c-.64-.16-1.21-.48-1.66-.9.07.07.14.15.22.22.42.33.9.56,1.43.7.29.07.58.11.87.11-.29,0-.58-.05-.87-.13ZM183.43,176.11s.03.07.05.11c.05.08.11.14.16.21-.08-.1-.14-.21-.2-.33ZM185.24,126.25l.02.16c0,.06.02.13.04.19-.02-.11-.04-.23-.05-.34ZM183.43,176.11s.03.07.05.11c.05.08.11.14.16.21-.08-.1-.14-.21-.2-.33ZM185.24,126.25l.02.16c0,.06.02.13.04.19-.02-.11-.04-.23-.05-.34ZM185.88,178.02c-.64-.16-1.21-.48-1.66-.9.07.07.14.15.22.22.42.33.9.56,1.43.7.29.07.58.11.87.11-.29,0-.58-.05-.87-.13ZM185.88,178.02c-.64-.16-1.21-.48-1.66-.9.07.07.14.15.22.22.42.33.9.56,1.43.7.29.07.58.11.87.11-.29,0-.58-.05-.87-.13ZM183.43,176.11s.03.07.05.11c.05.08.11.14.16.21-.08-.1-.14-.21-.2-.33ZM185.24,126.25l.02.16c0,.06.02.13.04.19-.02-.11-.04-.23-.05-.34ZM183.43,176.11s.03.07.05.11c.05.08.11.14.16.21-.08-.1-.14-.21-.2-.33ZM185.24,126.25l.02.16c0,.06.02.13.04.19-.02-.11-.04-.23-.05-.34ZM185.88,178.02c-.64-.16-1.21-.48-1.66-.9.07.07.14.15.22.22.42.33.9.56,1.43.7.29.07.58.11.87.11-.29,0-.58-.05-.87-.13ZM185.88,178.02c-.64-.16-1.21-.48-1.66-.9.07.07.14.15.22.22.42.33.9.56,1.43.7.29.07.58.11.87.11-.29,0-.58-.05-.87-.13ZM183.43,176.11s.03.07.05.11c.05.08.11.14.16.21-.08-.1-.14-.21-.2-.33ZM185.24,126.25l.02.16c0,.06.02.13.04.19-.02-.11-.04-.23-.05-.34ZM183.43,176.11s.03.07.05.11c.05.08.11.14.16.21-.08-.1-.14-.21-.2-.33ZM185.24,126.25l.02.16c0,.06.02.13.04.19-.02-.11-.04-.23-.05-.34ZM185.88,178.02c-.64-.16-1.21-.48-1.66-.9.07.07.14.15.22.22.42.33.9.56,1.43.7.29.07.58.11.87.11-.29,0-.58-.05-.87-.13ZM185.88,178.02c-.64-.16-1.21-.48-1.66-.9.07.07.14.15.22.22.42.33.9.56,1.43.7.29.07.58.11.87.11-.29,0-.58-.05-.87-.13ZM183.43,176.11s.03.07.05.11c.05.08.11.14.16.21-.08-.1-.14-.21-.2-.33ZM185.24,126.25l.02.16c0,.06.02.13.04.19-.02-.11-.04-.23-.05-.34ZM183.43,176.11s.03.07.05.11c.05.08.11.14.16.21-.08-.1-.14-.21-.2-.33ZM185.24,126.25l.02.16c0,.06.02.13.04.19-.02-.11-.04-.23-.05-.34ZM185.88,178.02c-.64-.16-1.21-.48-1.66-.9.07.07.14.15.22.22.42.33.9.56,1.43.7.29.07.58.11.87.11-.29,0-.58-.05-.87-.13ZM185.88,178.02c-.64-.16-1.21-.48-1.66-.9.07.07.14.15.22.22.42.33.9.56,1.43.7.29.07.58.11.87.11-.29,0-.58-.05-.87-.13ZM183.43,176.11s.03.07.05.11c.05.08.11.14.16.21-.08-.1-.14-.21-.2-.33ZM185.24,126.25l.02.16c0,.06.02.13.04.19-.02-.11-.04-.23-.05-.34ZM183.43,176.11s.03.07.05.11c.05.08.11.14.16.21-.08-.1-.14-.21-.2-.33ZM185.24,126.25l.02.16c0,.06.02.13.04.19-.02-.11-.04-.23-.05-.34ZM185.88,178.02c-.64-.16-1.21-.48-1.66-.9.07.07.14.15.22.22.42.33.9.56,1.43.7.29.07.58.11.87.11-.29,0-.58-.05-.87-.13ZM185.88,178.02c-.64-.16-1.21-.48-1.66-.9.07.07.14.15.22.22.42.33.9.56,1.43.7.29.07.58.11.87.11-.29,0-.58-.05-.87-.13ZM183.43,176.11s.03.07.05.11c.05.08.11.14.16.21-.08-.1-.14-.21-.2-.33ZM185.24,126.25l.02.16c0,.06.02.13.04.19-.02-.11-.04-.23-.05-.34ZM183.43,176.11s.03.07.05.11c.05.08.11.14.16.21-.08-.1-.14-.21-.2-.33ZM185.24,126.25l.02.16c0,.06.02.13.04.19-.02-.11-.04-.23-.05-.34ZM185.88,178.02c-.64-.16-1.21-.48-1.66-.9.07.07.14.15.22.22.42.33.9.56,1.43.7.29.07.58.11.87.11-.29,0-.58-.05-.87-.13ZM185.88,178.02c-.64-.16-1.21-.48-1.66-.9.07.07.14.15.22.22.42.33.9.56,1.43.7.29.07.58.11.87.11-.29,0-.58-.05-.87-.13ZM183.43,176.11s.03.07.05.11c.05.08.11.14.16.21-.08-.1-.14-.21-.2-.33ZM185.24,126.25l.02.16c0,.06.02.13.04.19-.02-.11-.04-.23-.05-.34ZM183.43,176.11s.03.07.05.11c.05.08.11.14.16.21-.08-.1-.14-.21-.2-.33ZM185.24,126.25l.02.16c0,.06.02.13.04.19-.02-.11-.04-.23-.05-.34ZM185.88,178.02c-.64-.16-1.21-.48-1.66-.9.07.07.14.15.22.22.42.33.9.56,1.43.7.29.07.58.11.87.11-.29,0-.58-.05-.87-.13ZM185.88,178.02c-.64-.16-1.21-.48-1.66-.9.07.07.14.15.22.22.42.33.9.56,1.43.7.29.07.58.11.87.11-.29,0-.58-.05-.87-.13ZM183.43,176.11s.03.07.05.11c.05.08.11.14.16.21-.08-.1-.14-.21-.2-.33ZM185.24,126.25l.02.16c0,.06.02.13.04.19-.02-.11-.04-.23-.05-.34ZM183.43,176.11s.03.07.05.11c.05.08.11.14.16.21-.08-.1-.14-.21-.2-.33ZM185.24,126.25l.02.16c0,.06.02.13.04.19-.02-.11-.04-.23-.05-.34ZM185.88,178.02c-.64-.16-1.21-.48-1.66-.9.07.07.14.15.22.22.42.33.9.56,1.43.7.29.07.58.11.87.11-.29,0-.58-.05-.87-.13ZM185.88,178.02c-.64-.16-1.21-.48-1.66-.9.07.07.14.15.22.22.42.33.9.56,1.43.7.29.07.58.11.87.11-.29,0-.58-.05-.87-.13ZM183.43,176.11s.03.07.05.11c.05.08.11.14.16.21-.08-.1-.14-.21-.2-.33ZM185.24,126.25l.02.16c0,.06.02.13.04.19-.02-.11-.04-.23-.05-.34ZM183.43,176.11s.03.07.05.11c.05.08.11.14.16.21-.08-.1-.14-.21-.2-.33ZM185.24,126.25l.02.16c0,.06.02.13.04.19-.02-.11-.04-.23-.05-.34ZM185.88,178.02c-.64-.16-1.21-.48-1.66-.9.07.07.14.15.22.22.42.33.9.56,1.43.7.29.07.58.11.87.11-.29,0-.58-.05-.87-.13ZM185.88,178.02c-.64-.16-1.21-.48-1.66-.9.07.07.14.15.22.22.42.33.9.56,1.43.7.29.07.58.11.87.11-.29,0-.58-.05-.87-.13ZM183.43,176.11s.03.07.05.11c.05.08.11.14.16.21-.08-.1-.14-.21-.2-.33ZM185.24,126.25l.02.16c0,.06.02.13.04.19-.02-.11-.04-.23-.05-.34ZM183.43,176.11s.03.07.05.11c.05.08.11.14.16.21-.08-.1-.14-.21-.2-.33ZM185.24,126.25l.02.16c0,.06.02.13.04.19-.02-.11-.04-.23-.05-.34ZM185.88,178.02c-.64-.16-1.21-.48-1.66-.9.07.07.14.15.22.22.42.33.9.56,1.43.7.29.07.58.11.87.11-.29,0-.58-.05-.87-.13ZM185.88,178.02c-.64-.16-1.21-.48-1.66-.9.07.07.14.15.22.22.42.33.9.56,1.43.7.29.07.58.11.87.11-.29,0-.58-.05-.87-.13ZM183.43,176.11s.03.07.05.11c.05.08.11.14.16.21-.08-.1-.14-.21-.2-.33ZM185.24,126.25l.02.16c0,.06.02.13.04.19-.02-.11-.04-.23-.05-.34ZM183.43,176.11s.03.07.05.11c.05.08.11.14.16.21-.08-.1-.14-.21-.2-.33ZM185.24,126.25l.02.16c0,.06.02.13.04.19-.02-.11-.04-.23-.05-.34ZM185.88,178.02c-.64-.16-1.21-.48-1.66-.9.07.07.14.15.22.22.42.33.9.56,1.43.7.29.07.58.11.87.11-.29,0-.58-.05-.87-.13ZM185.88,178.02c-.64-.16-1.21-.48-1.66-.9.07.07.14.15.22.22.42.33.9.56,1.43.7.29.07.58.11.87.11-.29,0-.58-.05-.87-.13ZM183.43,176.11s.03.07.05.11c.05.08.11.14.16.21-.08-.1-.14-.21-.2-.33ZM185.24,126.25l.02.16c0,.06.02.13.04.19-.02-.11-.04-.23-.05-.34ZM183.43,176.11s.03.07.05.11c.05.08.11.14.16.21-.08-.1-.14-.21-.2-.33ZM185.24,126.25l.02.16c0,.06.02.13.04.19-.02-.11-.04-.23-.05-.34ZM185.88,178.02c-.64-.16-1.21-.48-1.66-.9.07.07.14.15.22.22.42.33.9.56,1.43.7.29.07.58.11.87.11-.29,0-.58-.05-.87-.13ZM185.88,178.02c-.64-.16-1.21-.48-1.66-.9.07.07.14.15.22.22.42.33.9.56,1.43.7.29.07.58.11.87.11-.29,0-.58-.05-.87-.13ZM183.43,176.11s.03.07.05.11c.05.08.11.14.16.21-.08-.1-.14-.21-.2-.33ZM185.24,126.25l.02.16c0,.06.02.13.04.19-.02-.11-.04-.23-.05-.34ZM183.43,176.11s.03.07.05.11c.05.08.11.14.16.21-.08-.1-.14-.21-.2-.33ZM185.24,126.25l.02.16c0,.06.02.13.04.19-.02-.11-.04-.23-.05-.34ZM185.88,178.02c-.64-.16-1.21-.48-1.66-.9.07.07.14.15.22.22.42.33.9.56,1.43.7.29.07.58.11.87.11-.29,0-.58-.05-.87-.13ZM185.88,178.02c-.64-.16-1.21-.48-1.66-.9.07.07.14.15.22.22.42.33.9.56,1.43.7.29.07.58.11.87.11-.29,0-.58-.05-.87-.13ZM183.43,176.11s.03.07.05.11c.05.08.11.14.16.21-.08-.1-.14-.21-.2-.33ZM185.24,126.25l.02.16c0,.06.02.13.04.19-.02-.11-.04-.23-.05-.34ZM183.43,176.11s.03.07.05.11c.05.08.11.14.16.21-.08-.1-.14-.21-.2-.33ZM185.24,126.25l.02.16c0,.06.02.13.04.19-.02-.11-.04-.23-.05-.34ZM185.88,178.02c-.64-.16-1.21-.48-1.66-.9.07.07.14.15.22.22.42.33.9.56,1.43.7.29.07.58.11.87.11-.29,0-.58-.05-.87-.13ZM185.88,178.02c-.64-.16-1.21-.48-1.66-.9.07.07.14.15.22.22.42.33.9.56,1.43.7.29.07.58.11.87.11-.29,0-.58-.05-.87-.13ZM183.43,176.11s.03.07.05.11c.05.08.11.14.16.21-.08-.1-.14-.21-.2-.33ZM185.24,126.25l.02.16c0,.06.02.13.04.19-.02-.11-.04-.23-.05-.34ZM183.43,176.11s.03.07.05.11c.05.08.11.14.16.21-.08-.1-.14-.21-.2-.33ZM185.24,126.25l.02.16c0,.06.02.13.04.19-.02-.11-.04-.23-.05-.34ZM185.88,178.02c-.64-.16-1.21-.48-1.66-.9.07.07.14.15.22.22.42.33.9.56,1.43.7.29.07.58.11.87.11-.29,0-.58-.05-.87-.13ZM185.88,178.02c-.64-.16-1.21-.48-1.66-.9.07.07.14.15.22.22.42.33.9.56,1.43.7.29.07.58.11.87.11-.29,0-.58-.05-.87-.13ZM183.43,176.11s.03.07.05.11c.05.08.11.14.16.21-.08-.1-.14-.21-.2-.33ZM185.24,126.25l.02.16c0,.06.02.13.04.19-.02-.11-.04-.23-.05-.34ZM183.43,176.11s.03.07.05.11c.05.08.11.14.16.21-.08-.1-.14-.21-.2-.33ZM185.24,126.25l.02.16c0,.06.02.13.04.19-.02-.11-.04-.23-.05-.34ZM185.88,178.02c-.64-.16-1.21-.48-1.66-.9.07.07.14.15.22.22.42.33.9.56,1.43.7.29.07.58.11.87.11-.29,0-.58-.05-.87-.13ZM210.54,186.33l-.02.05.14.04-.13-.1ZM185.24,126.25l.02.16c0,.06.02.13.04.19-.02-.11-.04-.23-.05-.34ZM185.24,126.25l.02.16c0,.06.02.13.04.19-.02-.11-.04-.23-.05-.34ZM185.24,126.25l.02.16c0,.06.02.13.04.19-.02-.11-.04-.23-.05-.34ZM185.24,126.25l.02.16c0,.06.02.13.04.19-.02-.11-.04-.23-.05-.34ZM216.54,182.61s0,.01-.01.01c-.05.04-.09.07-.14.11-.01,0-.02.02-.03.03-.07.05-.13.1-.18.16h-.01s-.04.04-.06.05h0s-.1.1-.1.1c-.04.03-.07.06-.09.09h0s-.02.02-.02.02h0s-.02.02-.02.03h0s-.05.05-.08.08l-.05.07-.07.09c.06-.07.12-.14.19-.21h0s0-.01.01-.02c0-.01.02-.02.02-.03.19-.2.4-.4.63-.57.11-.08.23-.17.35-.25v-.04c-.12.07-.22.17-.34.25ZM215.32,183.96s-.01.01-.02.02c0,0,0,0,0,0h0s-.04.05-.05.08c-.05.08-.1.16-.14.24-.05.08-.09.17-.13.25,0,.01-.02.02-.02.04,0,.01-.02.02-.02.04,0,0,0,0,0,.01,0,.01,0,.02-.01.03t0,0s0,0,0,.01c0,0,0,.01-.01.02h0s-.01.04-.02.05c-.02.04-.04.08-.05.12-.02.04-.04.08-.05.12h.01s.01.01.01.01h0c.13-.36.3-.71.51-1.03.02-.04.04-.07.07-.1-.02.02-.04.04-.05.07ZM220.93,185.46h0s0,0,0,0h0ZM221.19,181.65c-.06-.01-.11-.03-.17-.04-.2-.04-.4-.08-.61-.1-.37-.04-.74-.04-1.11,0h0v.02h0v.02c.09-.01.18-.02.27-.02.09,0,.19,0,.28,0,.11,0,.22,0,.33.01.08,0,.16.01.24.02.03,0,.07,0,.1,0,.11.01.22.03.33.05.05.01.1.02.15.04.07.01.13.02.19.04.16.04.32.09.48.14.15.05.31.12.45.19h0s.01-.02.01-.02c-.3-.14-.61-.25-.93-.34ZM224.69,184.59c-.17-.37-.38-.71-.63-1.02l-.02.02c.25.32.46.66.63,1.02.02.05.05.1.07.15,0,.01,0,.02.01.03,0,0,0,0,0,.01.02.03.03.07.04.1h0s0,.01,0,.02c0,.01,0,.03.02.04,0,.02.02.05.03.08.02.04.03.09.05.14.04.11.08.23.11.36.07.28.13.57.15.87h0c.01.16.02.31.02.45,0,.45-.05.9-.17,1.36-.36,1.39-1.24,2.55-2.47,3.28-1.04.61-2.22.85-3.39.7-.22-.04-.45-.08-.67-.14-.17-.04-.34-.1-.51-.16-.13-.04-.25-.1-.37-.15-.12-.05-.24-.11-.36-.17-.23-.13-.45-.27-.66-.43-.11-.08-.21-.16-.31-.27-.01-.01-.03-.02-.04-.04-.01-.01-.03-.02-.04-.04-.07-.06-.13-.13-.19-.19-.1-.11-.21-.22-.31-.34-.04-.05-.08-.1-.12-.14-.04-.05-.07-.1-.11-.15t-.01-.01s-.02-.04-.04-.05c-.04-.05-.07-.11-.11-.17-.04-.05-.08-.11-.11-.17h0s0-.01,0-.02c-.1-.14-.17-.3-.24-.46-.05-.11-.1-.22-.14-.34l.07-.03-.09-.02c-.14-.39-.23-.77-.28-1.18h0s-.02-.01-.02-.01h-.02c.05.4.14.8.29,1.19,0,.02.01.04.02.06.1.28.23.54.39.8,0,0,0,.01,0,.02.35.6.8,1.11,1.33,1.53.11.09.23.17.35.25.11.07.22.14.33.2.02,0,.03.02.05.02.1.06.21.11.32.16l.13.05s.04.01.05.02c.1.04.19.08.3.11.14.05.29.1.43.14,1.4.37,2.85.16,4.09-.56.31-.19.61-.4.87-.65.11-.1.21-.2.31-.31.1-.1.2-.22.29-.33.38-.46.67-.99.87-1.55.06-.14.1-.3.14-.45.33-1.27.18-2.55-.34-3.65ZM185.24,126.25l.02.16c0,.06.02.13.04.19-.02-.11-.04-.23-.05-.34ZM185.24,126.25l.02.16c0,.06.02.13.04.19-.02-.11-.04-.23-.05-.34ZM185.24,126.25l.02.16c0,.06.02.13.04.19-.02-.11-.04-.23-.05-.34ZM185.24,126.25l.02.16c0,.06.02.13.04.19-.02-.11-.04-.23-.05-.34ZM185.24,126.25l.02.16c0,.06.02.13.04.19-.02-.11-.04-.23-.05-.34ZM185.24,126.25l.02.16c0,.06.02.13.04.19-.02-.11-.04-.23-.05-.34ZM185.24,126.25l.02.16c0,.06.02.13.04.19-.02-.11-.04-.23-.05-.34ZM185.24,126.25l.02.16c0,.06.02.13.04.19-.02-.11-.04-.23-.05-.34ZM185.24,126.25l.02.16c0,.06.02.13.04.19-.02-.11-.04-.23-.05-.34ZM185.24,126.25l.02.16c0,.06.02.13.04.19-.02-.11-.04-.23-.05-.34ZM185.24,126.25l.02.16c0,.06.02.13.04.19-.02-.11-.04-.23-.05-.34ZM185.24,126.25l.02.16c0,.06.02.13.04.19-.02-.11-.04-.23-.05-.34ZM185.24,126.25l.02.16c0,.06.02.13.04.19-.02-.11-.04-.23-.05-.34ZM185.24,126.25l.02.16c0,.06.02.13.04.19-.02-.11-.04-.23-.05-.34ZM142.26,149.51h.01s0,0,0,0h-.02ZM185.24,126.25l.02.16c0,.06.02.13.04.19-.02-.11-.04-.23-.05-.34ZM185.24,126.25l.02.16c0,.06.02.13.04.19-.02-.11-.04-.23-.05-.34ZM185.24,126.25l.02.16c0,.06.02.13.04.19-.02-.11-.04-.23-.05-.34ZM185.24,126.25l.02.16c0,.06.02.13.04.19-.02-.11-.04-.23-.05-.34ZM185.24,126.25l.02.16c0,.06.02.13.04.19-.02-.11-.04-.23-.05-.34ZM185.24,126.25l.02.16c0,.06.02.13.04.19-.02-.11-.04-.23-.05-.34ZM185.24,126.25l.02.16c0,.06.02.13.04.19-.02-.11-.04-.23-.05-.34ZM185.24,126.25l.02.16c0,.06.02.13.04.19-.02-.11-.04-.23-.05-.34ZM185.24,126.25l.02.16c0,.06.02.13.04.19-.02-.11-.04-.23-.05-.34ZM185.24,126.25l.02.16c0,.06.02.13.04.19-.02-.11-.04-.23-.05-.34ZM185.24,126.25l.02.16c0,.06.02.13.04.19-.02-.11-.04-.23-.05-.34ZM185.24,126.25l.02.16c0,.06.02.13.04.19-.02-.11-.04-.23-.05-.34ZM185.24,126.25l.02.16c0,.06.02.13.04.19-.02-.11-.04-.23-.05-.34ZM185.24,126.25l.02.16c0,.06.02.13.04.19-.02-.11-.04-.23-.05-.34ZM185.24,126.25l.02.16c0,.06.02.13.04.19-.02-.11-.04-.23-.05-.34ZM185.24,126.25l.02.16c0,.06.02.13.04.19-.02-.11-.04-.23-.05-.34ZM185.24,126.25l.02.16c0,.06.02.13.04.19-.02-.11-.04-.23-.05-.34ZM183.43,176.11s.03.07.05.11c.05.08.11.14.16.21-.08-.1-.14-.21-.2-.33ZM185.88,178.02c-.64-.16-1.21-.48-1.66-.9.07.07.14.15.22.22.42.33.9.56,1.43.7.29.07.58.11.87.11-.29,0-.58-.05-.87-.13ZM185.88,178.02c-.64-.16-1.21-.48-1.66-.9.07.07.14.15.22.22.42.33.9.56,1.43.7.29.07.58.11.87.11-.29,0-.58-.05-.87-.13ZM185.24,126.25l.02.16c0,.06.02.13.04.19-.02-.11-.04-.23-.05-.34ZM183.43,176.11s.03.07.05.11c.05.08.11.14.16.21-.08-.1-.14-.21-.2-.33ZM185.24,126.25l.02.16c0,.06.02.13.04.19-.02-.11-.04-.23-.05-.34ZM183.43,176.11s.03.07.05.11c.05.08.11.14.16.21-.08-.1-.14-.21-.2-.33ZM185.88,178.02c-.64-.16-1.21-.48-1.66-.9.07.07.14.15.22.22.42.33.9.56,1.43.7.29.07.58.11.87.11-.29,0-.58-.05-.87-.13ZM185.88,178.02c-.64-.16-1.21-.48-1.66-.9.07.07.14.15.22.22.42.33.9.56,1.43.7.29.07.58.11.87.11-.29,0-.58-.05-.87-.13ZM185.24,126.25l.02.16c0,.06.02.13.04.19-.02-.11-.04-.23-.05-.34ZM183.43,176.11s.03.07.05.11c.05.08.11.14.16.21-.08-.1-.14-.21-.2-.33ZM185.24,126.25l.02.16c0,.06.02.13.04.19-.02-.11-.04-.23-.05-.34ZM183.43,176.11s.03.07.05.11c.05.08.11.14.16.21-.08-.1-.14-.21-.2-.33ZM185.88,178.02c-.64-.16-1.21-.48-1.66-.9.07.07.14.15.22.22.42.33.9.56,1.43.7.29.07.58.11.87.11-.29,0-.58-.05-.87-.13ZM185.88,178.02c-.64-.16-1.21-.48-1.66-.9.07.07.14.15.22.22.42.33.9.56,1.43.7.29.07.58.11.87.11-.29,0-.58-.05-.87-.13ZM185.24,126.25l.02.16c0,.06.02.13.04.19-.02-.11-.04-.23-.05-.34ZM183.43,176.11s.03.07.05.11c.05.08.11.14.16.21-.08-.1-.14-.21-.2-.33ZM185.24,126.25l.02.16c0,.06.02.13.04.19-.02-.11-.04-.23-.05-.34ZM183.43,176.11s.03.07.05.11c.05.08.11.14.16.21-.08-.1-.14-.21-.2-.33ZM185.88,178.02c-.64-.16-1.21-.48-1.66-.9.07.07.14.15.22.22.42.33.9.56,1.43.7.29.07.58.11.87.11-.29,0-.58-.05-.87-.13ZM185.88,178.02c-.64-.16-1.21-.48-1.66-.9.07.07.14.15.22.22.42.33.9.56,1.43.7.29.07.58.11.87.11-.29,0-.58-.05-.87-.13ZM185.24,126.25l.02.16c0,.06.02.13.04.19-.02-.11-.04-.23-.05-.34ZM183.43,176.11s.03.07.05.11c.05.08.11.14.16.21-.08-.1-.14-.21-.2-.33ZM185.24,126.25l.02.16c0,.06.02.13.04.19-.02-.11-.04-.23-.05-.34ZM183.43,176.11s.03.07.05.11c.05.08.11.14.16.21-.08-.1-.14-.21-.2-.33ZM185.88,178.02c-.64-.16-1.21-.48-1.66-.9.07.07.14.15.22.22.42.33.9.56,1.43.7.29.07.58.11.87.11-.29,0-.58-.05-.87-.13ZM185.88,178.02c-.64-.16-1.21-.48-1.66-.9.07.07.14.15.22.22.42.33.9.56,1.43.7.29.07.58.11.87.11-.29,0-.58-.05-.87-.13ZM185.24,126.25l.02.16c0,.06.02.13.04.19-.02-.11-.04-.23-.05-.34ZM183.43,176.11s.03.07.05.11c.05.08.11.14.16.21-.08-.1-.14-.21-.2-.33ZM185.24,126.25l.02.16c0,.06.02.13.04.19-.02-.11-.04-.23-.05-.34ZM183.43,176.11s.03.07.05.11c.05.08.11.14.16.21-.08-.1-.14-.21-.2-.33ZM185.88,178.02c-.64-.16-1.21-.48-1.66-.9.07.07.14.15.22.22.42.33.9.56,1.43.7.29.07.58.11.87.11-.29,0-.58-.05-.87-.13ZM185.88,178.02c-.64-.16-1.21-.48-1.66-.9.07.07.14.15.22.22.42.33.9.56,1.43.7.29.07.58.11.87.11-.29,0-.58-.05-.87-.13ZM185.24,126.25l.02.16c0,.06.02.13.04.19-.02-.11-.04-.23-.05-.34ZM183.43,176.11s.03.07.05.11c.05.08.11.14.16.21-.08-.1-.14-.21-.2-.33ZM185.24,126.25l.02.16c0,.06.02.13.04.19-.02-.11-.04-.23-.05-.34ZM183.43,176.11s.03.07.05.11c.05.08.11.14.16.21-.08-.1-.14-.21-.2-.33ZM185.88,178.02c-.64-.16-1.21-.48-1.66-.9.07.07.14.15.22.22.42.33.9.56,1.43.7.29.07.58.11.87.11-.29,0-.58-.05-.87-.13ZM185.88,178.02c-.64-.16-1.21-.48-1.66-.9.07.07.14.15.22.22.42.33.9.56,1.43.7.29.07.58.11.87.11-.29,0-.58-.05-.87-.13ZM185.24,126.25l.02.16c0,.06.02.13.04.19-.02-.11-.04-.23-.05-.34ZM183.43,176.11s.03.07.05.11c.05.08.11.14.16.21-.08-.1-.14-.21-.2-.33ZM185.24,126.25l.02.16c0,.06.02.13.04.19-.02-.11-.04-.23-.05-.34ZM183.43,176.11s.03.07.05.11c.05.08.11.14.16.21-.08-.1-.14-.21-.2-.33ZM185.88,178.02c-.64-.16-1.21-.48-1.66-.9.07.07.14.15.22.22.42.33.9.56,1.43.7.29.07.58.11.87.11-.29,0-.58-.05-.87-.13ZM185.88,178.02c-.64-.16-1.21-.48-1.66-.9.07.07.14.15.22.22.42.33.9.56,1.43.7.29.07.58.11.87.11-.29,0-.58-.05-.87-.13ZM185.24,126.25l.02.16c0,.06.02.13.04.19-.02-.11-.04-.23-.05-.34ZM183.43,176.11s.03.07.05.11c.05.08.11.14.16.21-.08-.1-.14-.21-.2-.33ZM185.24,126.25l.02.16c0,.06.02.13.04.19-.02-.11-.04-.23-.05-.34ZM183.43,176.11s.03.07.05.11c.05.08.11.14.16.21-.08-.1-.14-.21-.2-.33ZM185.88,178.02c-.64-.16-1.21-.48-1.66-.9.07.07.14.15.22.22.42.33.9.56,1.43.7.29.07.58.11.87.11-.29,0-.58-.05-.87-.13ZM185.88,178.02c-.64-.16-1.21-.48-1.66-.9.07.07.14.15.22.22.42.33.9.56,1.43.7.29.07.58.11.87.11-.29,0-.58-.05-.87-.13ZM185.24,126.25l.02.16c0,.06.02.13.04.19-.02-.11-.04-.23-.05-.34ZM183.43,176.11s.03.07.05.11c.05.08.11.14.16.21-.08-.1-.14-.21-.2-.33ZM185.24,126.25l.02.16c0,.06.02.13.04.19-.02-.11-.04-.23-.05-.34ZM183.43,176.11s.03.07.05.11c.05.08.11.14.16.21-.08-.1-.14-.21-.2-.33ZM185.88,178.02c-.64-.16-1.21-.48-1.66-.9.07.07.14.15.22.22.42.33.9.56,1.43.7.29.07.58.11.87.11-.29,0-.58-.05-.87-.13ZM185.88,178.02c-.64-.16-1.21-.48-1.66-.9.07.07.14.15.22.22.42.33.9.56,1.43.7.29.07.58.11.87.11-.29,0-.58-.05-.87-.13ZM185.24,126.25l.02.16c0,.06.02.13.04.19-.02-.11-.04-.23-.05-.34ZM183.43,176.11s.03.07.05.11c.05.08.11.14.16.21-.08-.1-.14-.21-.2-.33ZM185.24,126.25l.02.16c0,.06.02.13.04.19-.02-.11-.04-.23-.05-.34ZM183.43,176.11s.03.07.05.11c.05.08.11.14.16.21-.08-.1-.14-.21-.2-.33ZM185.88,178.02c-.64-.16-1.21-.48-1.66-.9.07.07.14.15.22.22.42.33.9.56,1.43.7.29.07.58.11.87.11-.29,0-.58-.05-.87-.13ZM185.88,178.02c-.64-.16-1.21-.48-1.66-.9.07.07.14.15.22.22.42.33.9.56,1.43.7.29.07.58.11.87.11-.29,0-.58-.05-.87-.13ZM185.24,126.25l.02.16c0,.06.02.13.04.19-.02-.11-.04-.23-.05-.34ZM183.43,176.11s.03.07.05.11c.05.08.11.14.16.21-.08-.1-.14-.21-.2-.33ZM185.24,126.25l.02.16c0,.06.02.13.04.19-.02-.11-.04-.23-.05-.34ZM183.43,176.11s.03.07.05.11c.05.08.11.14.16.21-.08-.1-.14-.21-.2-.33ZM185.88,178.02c-.64-.16-1.21-.48-1.66-.9.07.07.14.15.22.22.42.33.9.56,1.43.7.29.07.58.11.87.11-.29,0-.58-.05-.87-.13ZM185.88,178.02c-.64-.16-1.21-.48-1.66-.9.07.07.14.15.22.22.42.33.9.56,1.43.7.29.07.58.11.87.11-.29,0-.58-.05-.87-.13ZM185.24,126.25l.02.16c0,.06.02.13.04.19-.02-.11-.04-.23-.05-.34ZM183.43,176.11s.03.07.05.11c.05.08.11.14.16.21-.08-.1-.14-.21-.2-.33ZM185.24,126.25l.02.16c0,.06.02.13.04.19-.02-.11-.04-.23-.05-.34ZM183.43,176.11s.03.07.05.11c.05.08.11.14.16.21-.08-.1-.14-.21-.2-.33ZM185.88,178.02c-.64-.16-1.21-.48-1.66-.9.07.07.14.15.22.22.42.33.9.56,1.43.7.29.07.58.11.87.11-.29,0-.58-.05-.87-.13ZM185.88,178.02c-.64-.16-1.21-.48-1.66-.9.07.07.14.15.22.22.42.33.9.56,1.43.7.29.07.58.11.87.11-.29,0-.58-.05-.87-.13ZM185.24,126.25l.02.16c0,.06.02.13.04.19-.02-.11-.04-.23-.05-.34ZM183.43,176.11s.03.07.05.11c.05.08.11.14.16.21-.08-.1-.14-.21-.2-.33ZM185.24,126.25l.02.16c0,.06.02.13.04.19-.02-.11-.04-.23-.05-.34ZM183.43,176.11s.03.07.05.11c.05.08.11.14.16.21-.08-.1-.14-.21-.2-.33ZM185.88,178.02c-.64-.16-1.21-.48-1.66-.9.07.07.14.15.22.22.42.33.9.56,1.43.7.29.07.58.11.87.11-.29,0-.58-.05-.87-.13ZM185.88,178.02c-.64-.16-1.21-.48-1.66-.9.07.07.14.15.22.22.42.33.9.56,1.43.7.29.07.58.11.87.11-.29,0-.58-.05-.87-.13ZM185.24,126.25l.02.16c0,.06.02.13.04.19-.02-.11-.04-.23-.05-.34ZM183.43,176.11s.03.07.05.11c.05.08.11.14.16.21-.08-.1-.14-.21-.2-.33ZM185.24,126.25l.02.16c0,.06.02.13.04.19-.02-.11-.04-.23-.05-.34ZM183.43,176.11s.03.07.05.11c.05.08.11.14.16.21-.08-.1-.14-.21-.2-.33ZM185.88,178.02c-.64-.16-1.21-.48-1.66-.9.07.07.14.15.22.22.42.33.9.56,1.43.7.29.07.58.11.87.11-.29,0-.58-.05-.87-.13ZM185.88,178.02c-.64-.16-1.21-.48-1.66-.9.07.07.14.15.22.22.42.33.9.56,1.43.7.29.07.58.11.87.11-.29,0-.58-.05-.87-.13ZM185.24,126.25l.02.16c0,.06.02.13.04.19-.02-.11-.04-.23-.05-.34ZM183.43,176.11s.03.07.05.11c.05.08.11.14.16.21-.08-.1-.14-.21-.2-.33ZM185.24,126.25l.02.16c0,.06.02.13.04.19-.02-.11-.04-.23-.05-.34ZM183.43,176.11s.03.07.05.11c.05.08.11.14.16.21-.08-.1-.14-.21-.2-.33ZM185.88,178.02c-.64-.16-1.21-.48-1.66-.9.07.07.14.15.22.22.42.33.9.56,1.43.7.29.07.58.11.87.11-.29,0-.58-.05-.87-.13ZM185.88,178.02c-.64-.16-1.21-.48-1.66-.9.07.07.14.15.22.22.42.33.9.56,1.43.7.29.07.58.11.87.11-.29,0-.58-.05-.87-.13ZM185.24,126.25l.02.16c0,.06.02.13.04.19-.02-.11-.04-.23-.05-.34ZM183.43,176.11s.03.07.05.11c.05.08.11.14.16.21-.08-.1-.14-.21-.2-.33ZM185.24,126.25l.02.16c0,.06.02.13.04.19-.02-.11-.04-.23-.05-.34ZM183.43,176.11s.03.07.05.11c.05.08.11.14.16.21-.08-.1-.14-.21-.2-.33ZM185.88,178.02c-.64-.16-1.21-.48-1.66-.9.07.07.14.15.22.22.42.33.9.56,1.43.7.29.07.58.11.87.11-.29,0-.58-.05-.87-.13ZM185.88,178.02c-.64-.16-1.21-.48-1.66-.9.07.07.14.15.22.22.42.33.9.56,1.43.7.29.07.58.11.87.11-.29,0-.58-.05-.87-.13ZM185.24,126.25l.02.16c0,.06.02.13.04.19-.02-.11-.04-.23-.05-.34ZM183.43,176.11s.03.07.05.11c.05.08.11.14.16.21-.08-.1-.14-.21-.2-.33ZM185.24,126.25l.02.16c0,.06.02.13.04.19-.02-.11-.04-.23-.05-.34ZM185.24,126.25l.02.16c0,.06.02.13.04.19-.02-.11-.04-.23-.05-.34ZM185.24,126.25l.02.16c0,.06.02.13.04.19-.02-.11-.04-.23-.05-.34ZM185.24,126.25l.02.16c0,.06.02.13.04.19-.02-.11-.04-.23-.05-.34ZM185.24,126.25l.02.16c0,.06.02.13.04.19-.02-.11-.04-.23-.05-.34ZM185.24,126.25l.02.16c0,.06.02.13.04.19-.02-.11-.04-.23-.05-.34ZM185.24,126.25l.02.16c0,.06.02.13.04.19-.02-.11-.04-.23-.05-.34ZM185.24,126.25l.02.16c0,.06.02.13.04.19-.02-.11-.04-.23-.05-.34ZM185.24,126.25l.02.16c0,.06.02.13.04.19-.02-.11-.04-.23-.05-.34ZM185.24,126.25l.02.16c0,.06.02.13.04.19-.02-.11-.04-.23-.05-.34ZM185.24,126.25l.02.16c0,.06.02.13.04.19-.02-.11-.04-.23-.05-.34ZM185.24,126.25l.02.16c0,.06.02.13.04.19-.02-.11-.04-.23-.05-.34ZM185.24,126.25l.02.16c0,.06.02.13.04.19-.02-.11-.04-.23-.05-.34ZM185.24,126.25l.02.16c0,.06.02.13.04.19-.02-.11-.04-.23-.05-.34ZM185.24,126.25l.02.16c0,.06.02.13.04.19-.02-.11-.04-.23-.05-.34ZM185.24,126.25l.02.16c0,.06.02.13.04.19-.02-.11-.04-.23-.05-.34ZM185.24,126.25l.02.16c0,.06.02.13.04.19-.02-.11-.04-.23-.05-.34ZM185.24,126.25l.02.16c0,.06.02.13.04.19-.02-.11-.04-.23-.05-.34ZM185.24,126.25l.02.16c0,.06.02.13.04.19-.02-.11-.04-.23-.05-.34ZM185.24,126.25l.02.16c0,.06.02.13.04.19-.02-.11-.04-.23-.05-.34ZM185.24,126.25l.02.16c0,.06.02.13.04.19-.02-.11-.04-.23-.05-.34ZM185.24,126.25l.02.16c0,.06.02.13.04.19-.02-.11-.04-.23-.05-.34ZM185.24,126.25l.02.16c0,.06.02.13.04.19-.02-.11-.04-.23-.05-.34ZM185.24,126.25l.02.16c0,.06.02.13.04.19-.02-.11-.04-.23-.05-.34ZM185.24,126.25l.02.16c0,.06.02.13.04.19-.02-.11-.04-.23-.05-.34ZM185.24,126.25l.02.16c0,.06.02.13.04.19-.02-.11-.04-.23-.05-.34ZM185.24,126.25l.02.16c0,.06.02.13.04.19-.02-.11-.04-.23-.05-.34ZM185.24,126.25l.02.16c0,.06.02.13.04.19-.02-.11-.04-.23-.05-.34Z"/>
          <path class="cls-2" d="M237.01,164.74c-.28-.49-.66-.92-1.1-1.25-.46-.36-1-.63-1.6-.78-.17-.05-.35-.08-.52-.1-.97-.14-1.95.06-2.81.57-.07.04-.15.09-.22.13-.08.06-.17.12-.25.17-.05.04-.1.08-.15.13-.07.06-.13.11-.19.17h0l-.02.02c-.23.22-.44.47-.61.75h-.02s-.02-.01-.02-.01l-2.52-.47c-.11-.02-.22-.03-.34-.04l-5.09-.16h-.02s-.01,0-.01,0c-.06-1.61-.84-3.13-2.11-4.12-.57-.44-1.23-.78-1.98-.97-1.4-.37-2.88-.16-4.14.58-1.25.74-2.15,1.92-2.52,3.33-.37,1.41-.16,2.89.57,4.14.14.23.28.45.45.64l-.02.03-2.63,4.2-4.51,3.1-2.46-.7c-.42-.11-.84-.1-1.24.04l-2.39.82-2.22-.36-5.33-.87-.25-.04h-.02s-.01,0-.01,0c-.07-.49-.24-.97-.49-1.42-.25-.43-.58-.8-.96-1.1-.41-.32-.89-.55-1.41-.69-.46-.12-.94-.15-1.41-.1h-.01s0-.02,0-.02v-.02l-.46-1.05-.95-2.2-.39-1.8-1.98-9.24h0s0-.02,0-.02c1.46-.63,2.64-1.92,3.08-3.59.31-1.2.2-2.43-.3-3.55-.02-.03-.03-.07-.05-.1-.07-.14-.14-.28-.22-.42-.08-.14-.17-.27-.26-.4h0c-.09-.13-.19-.26-.29-.37-.01-.02-.02-.03-.04-.05-.02-.02-.05-.05-.07-.08-.18-.19-.38-.38-.59-.55,0,0-.01,0-.01,0-.02-.02-.04-.04-.06-.05l-.02-.02s-.08-.07-.13-.1h0s0-.02,0-.02l4.98-12.11,1.52-3.67c-.06,0-.11-.01-.17-.02.06,0,.11.01.17.01h0v-.02c.23.02.45.02.67,0,.11,0,.23-.02.33-.03.88-.1,1.71-.42,2.41-.91.15-.1.29-.2.42-.31.03-.02.06-.04.08-.07,0,0,.01-.01.02-.02h.01c.05-.05.1-.1.14-.15.07-.06.13-.13.19-.19.1-.11.19-.21.28-.33l.02-.02s.06-.08.08-.11c.07-.08.12-.16.17-.24l.02-.02c.07-.11.13-.22.2-.33.06-.11.12-.23.18-.36.05-.13.11-.27.16-.4,0-.02.01-.04.02-.05.02-.06.04-.1.06-.16.03-.08.05-.17.08-.27.36-1.39.16-2.83-.57-4.06-.34-.59-.8-1.1-1.33-1.51-.57-.45-1.22-.77-1.94-.96-1.3-.34-2.6-.16-3.72.39v-.02s-.01,0-.01,0l-1.82-2.19-1.43-17.08v-.04c1.42-.84,2.44-2.18,2.86-3.78.14-.54.2-1.08.2-1.63-.01-1.08-.3-2.13-.86-3.09-.4-.69-.93-1.28-1.54-1.76-.38-.3-.8-.54-1.24-.74-.33-.15-.66-.27-1.02-.36-1.6-.42-3.28-.19-4.71.64-1.25.74-2.18,1.86-2.68,3.19h-.03l-2.24-.34-.44-.56-3.42-4.28-.87-5.77-.45-2.99v-.04s.08-.04.13-.07c1.13-.66,1.95-1.74,2.28-3.01.13-.49.18-.99.16-1.48-.04-.79-.26-1.57-.67-2.27-.67-1.14-1.74-1.95-3.01-2.28-.05-.02-.11-.03-.16-.04-.05-.01-.11-.02-.16-.03-.01-.01-.02-.02-.05-.02h0c-.06-.02-.12-.02-.18-.02-.02,0-.04,0-.07-.01-.1-.02-.22-.02-.33-.03-.01,0-.02,0-.04,0h-.02c-.05,0-.11-.01-.16,0-.02,0-.03,0-.04,0h-.1s-.07,0-.1,0h-.02s-.08,0-.12,0h-.04c-.08,0-.16.01-.24.02-.08.01-.17.02-.26.04-.05,0-.1.02-.16.02-.03,0-.06.01-.09.02-.08.01-.16.03-.24.05-.13.04-.26.08-.39.13-.01,0-.03.01-.04.02-.13.04-.25.1-.36.16-.08.04-.17.08-.24.12-.09.05-.18.1-.27.15-.08.05-.17.11-.25.17-.08.05-.15.1-.22.16-.07.05-.14.11-.21.17-.05.05-.11.1-.17.16-.07.07-.13.13-.2.2h0c-.07.09-.14.17-.22.27-.09.12-.18.25-.27.37h-.02s-14.06-4.6-14.06-4.6l-11.44-12.43.09-.79c.12-.97-.47-1.9-1.4-2.21l-4.33-1.43h-.03c.36-2.6-.74-5.13-2.72-6.68-.75-.58-1.63-1.03-2.6-1.28-3.84-1-7.78,1.31-8.79,5.15-.99,3.79,1.24,7.68,4.99,8.74v.04l-1.04,12.57c-.02.27,0,.54.08.8l2.42,7.6-1.77,3.37-.16-.03c-.74-.18-1.51.07-2.01.63-.5.56-.66,1.35-.41,2.06l2.45,6.97c.26.74.94,1.28,1.72,1.37h.11s.83,3.56.83,3.56l-1.77,8.42c-.08.4-.05.82.11,1.21l2.01,4.91h0s0,.03,0,.03c-.66.69-1.15,1.56-1.41,2.55-.83,3.18,1.08,6.44,4.26,7.27,1.54.4,3.15.17,4.51-.63,1.37-.81,2.35-2.1,2.75-3.63.2-.77.25-1.55.14-2.32-.11-.77-.37-1.51-.77-2.2-.39-.66-.89-1.23-1.48-1.69-.55-.43-1.17-.75-1.86-.97v-.02s.01-.01.01-.01l.54-1.48c.08-.23.13-.47.13-.72l-.02-7.98.83-1.18c.39-.56.48-1.28.23-1.93l-.97-2.48-.8-11.18.69-1.7c.16-.4.19-.84.08-1.25l-2.04-8.39,2.31-8.04,4.96,5.42.32,19.15c.01.5.2.98.53,1.34l1.33,1.46-.31,1.49c-.04.22-.05.45-.02.67l.57,4.56v.02s.01.01.01.01c-.37.13-.74.3-1.08.51-1.39.81-2.38,2.11-2.79,3.68-.84,3.23,1.1,6.53,4.33,7.37.34.09.67.14,1.02.17v.02s0,.01,0,.01l2.62,20.88c.02.2.08.4.16.58l.6,1.36-.77,1.58c-.07.16-.13.33-.16.49l-1.62,8.33v.02s-.01.01-.01.01c-2.66.04-5.09,1.84-5.79,4.55-.42,1.57-.19,3.21.64,4.61.81,1.4,2.13,2.4,3.7,2.81.74.19,1.49.24,2.22.16.25-.02.49-.07.74-.13.14-.04.28-.08.42-.13h0s.01.03.01.03l3.95,6.42.05.29.28,1.43c.08.42.28.79.59,1.08l4.92,4.78,1.54,1.5.02.02c-.14.22-.27.46-.38.7-.01.02-.02.04-.03.05,0,.03-.02.07-.04.1t0,.02s0,.02-.02.03h0c-.02.06-.04.11-.05.16-.08.2-.14.42-.2.63-.04.15-.07.31-.1.46,0,0,0,.01,0,.02-.01.06-.02.12-.03.19,0,0,0,.02,0,.02-.01.13-.03.27-.04.4,0,.04,0,.08-.01.11v.11s0,.06,0,.09t0,.02v.02c0,.08,0,.17,0,.25,0,.04,0,.08,0,.13,0,.04,0,.08.01.13v.07c.01.1.01.21.03.31.01.1.03.2.05.29.02.1.04.2.06.29.02.1.05.19.08.28.02.1.05.19.09.28.03.09.06.18.1.28.03.09.06.16.1.24h0v.02s.01,0,.01.01c.08.18.18.36.28.53.81,1.39,2.11,2.37,3.67,2.78.2.05.4.09.6.12.19.04.39.05.59.06.07,0,.13.01.19.01h.36s.08,0,.12,0c.17-.01.34-.03.51-.05.1,0,.19-.02.28-.05.09-.02.19-.04.28-.06.09-.02.19-.05.28-.07.1-.03.19-.05.28-.09.08-.03.17-.07.27-.1.09-.04.17-.08.27-.11.08-.04.17-.08.25-.13l.25-.14c.07-.03.11-.06.17-.1v.02s.02,0,.02,0l9.15,9.56c.07.07.14.14.22.2.33.25.72.41,1.14.44.12,0,.24,0,.36-.01l7.2-.78,2.11-.22,6.4,11.71.2.36c.33.6.92.99,1.6,1.07.67.07,1.34-.2,1.78-.71l4.43-5.17,1.1.22,5.59,1.14c.76.14,1.54-.14,2.02-.74.49-.61.58-1.43.27-2.14l-2.37-5.24h.04c.73-.1,1.35-.58,1.63-1.26l.49-1.21,4.51,1.3.02-.05.13.1h.04s3.77,1.1,3.77,1.1h.02s.02.01.02.01h0c.04.42.14.8.28,1.19l.09.02-.07.03c.04.11.09.23.14.34.07.16.14.31.24.46,0,0,0,0,0,.01h0c.03.06.07.12.11.17.04.06.07.11.11.17.01.01.02.03.04.05t.01.01c.04.05.07.1.11.15.04.05.08.1.12.14.1.12.2.23.31.34.07.07.13.13.19.19.01.01.03.02.04.04.01.01.03.02.04.04.1.1.2.18.31.27.2.16.43.3.66.43.11.06.24.12.36.17.12.05.24.11.37.15.16.06.33.11.51.16.22.06.45.1.67.14,1.17.15,2.35-.09,3.39-.7,1.24-.72,2.11-1.89,2.47-3.28.12-.45.17-.91.17-1.36,0-.14,0-.3-.02-.44h0c-.02-.31-.08-.6-.15-.88-.03-.13-.07-.25-.11-.36-.02-.05-.03-.1-.05-.14-.01-.02-.02-.05-.03-.08-.01-.01-.02-.03-.02-.04t0-.01h0s-.02-.08-.04-.11c0,0,0,0,0-.01,0-.01,0-.02-.01-.03-.02-.05-.04-.1-.07-.15-.17-.36-.38-.71-.63-1.02l.02-.02,2.31-2.89.36-.45.05-.07.49-.61c.62-.77.59-1.84,0-2.58l2.33-3.49.25-.11,1.51-.69c.4-.19.74-.51.95-.9l.22-.42.02-.03c.99.16,2.01-.04,2.89-.55,1.02-.59,1.74-1.55,2.04-2.69.3-1.14.13-2.33-.46-3.34ZM142.27,149.51h-.01s.02-.01.02-.01h0ZM177.92,103.17l1.12-1.45.02-.03c.36.18.75.33,1.15.43.76.2,1.52.25,2.28.16v.03s1,11.93,1,11.93l.39,4.69c.04.42.2.82.47,1.14l1.9,2.29h.01s0,.02,0,.02c-.4.54-.7,1.16-.89,1.85-.18.68-.22,1.36-.13,2.02.03.3.1.6.19.88.38,1.25,1.21,2.33,2.35,3.02v.02s-.01.01-.01.01l-.9,2.21-5.52,13.38h0s-.01.04-.01.04c-2.59-.41-5.14,1.14-5.95,3.66h-.02l-8.18-.61-4.7-.35-.87-.07-14.4-1.07h-.01c.04.28.06.58.04.86,0-.29-.02-.58-.06-.87-.05-.41-.14-.81-.28-1.19-.2-.57-.48-1.11-.84-1.6l.02-.03,11.39-14.81.49-.64,19.94-25.93ZM141.26,96.77h0s0-.04,0-.04l-.57-4.49.34-1.63c.13-.64-.05-1.31-.49-1.8l-1.36-1.51-.33-19.15c0-.5-.2-.98-.54-1.36l-5.59-6.12c-.51-.55-1.27-.78-1.99-.61-.72.16-1.3.72-1.51,1.43l-2.56,8.91c-.1.34-.11.7-.02,1.05l2.03,8.36-.66,1.66c-.12.28-.17.6-.15.92l.82,11.34c.01.2.06.41.13.6l.9,2.33-.77,1.1c-.24.36-.37.76-.37,1.19l.02,8.03-.75,2.04h0s0,.03,0,.03c-.51.07-1.01.2-1.47.39v-.02s-.02-.01-.02-.01l-1.75-4.28,1.75-8.39c.06-.3.06-.6-.01-.89l-.92-3.95c-.2-.85-.92-1.48-1.78-1.58l-.14-.02-2.1-5.98c.83.08,1.63-.34,2.02-1.09l2.01-3.83c.26-.48.31-1.07.14-1.58l-2.46-7.69,1.04-12.44c-.07.01-.13,0-.18,0,.06,0,.12-.01.17-.01v-.02c2.46-.17,4.71-1.61,5.87-3.82h.02s3.98,1.32,3.98,1.32l-.07.63c-.08.6.12,1.19.53,1.64l11.66,12.67c.24.27.54.45.87.56l14.17,4.64h.03c-.14,2.31,1.36,4.47,3.69,5.08.39.1.78.16,1.17.16v.02s0,.01,0,.01l1.31,8.66c.05.35.2.69.43.97l2.83,3.56-24.45,6.31h-.02c-.06-.13-.13-.25-.2-.37-.82-1.39-2.13-2.38-3.69-2.78-.34-.09-.68-.15-1.02-.17ZM144.22,142.89v.02c-.22-.13-.45-.24-.68-.34h0v-.04l1.61-8.27.82-1.71c.27-.54.27-1.17.03-1.72l-.66-1.49-2.62-20.8v-.03c.09-.03.19-.07.28-.1.08-.03.16-.07.23-.1.13-.06.25-.13.37-.2.09-.04.18-.1.27-.16.14-.08.28-.17.41-.27.08-.05.16-.11.22-.17.08-.06.15-.12.22-.18.13-.11.25-.24.37-.36.02-.02.05-.05.08-.08.66-.72,1.15-1.6,1.4-2.58.16-.6.22-1.19.19-1.8h.02s.02,0,.02,0l25.74-6.65c.18.08.37.14.58.18l1.56.24.84.13h.02s0,0,0,0c.02.39.07.76.16,1.14.04.14.08.29.13.43.14.43.33.85.56,1.26.19.33.41.63.66.92l-.02.03-.34.44-19.43,25.26-.16.2-12.9,16.77v.02ZM162.7,167.64v.02c-.52-.33-1.09-.58-1.71-.74-.14-.04-.29-.07-.43-.09-.13-.02-.25-.04-.39-.05h0c-.1-.02-.22-.03-.32-.04-.03,0-.06,0-.08,0h-.06s-.04,0-.06,0c-.12-.01-.25,0-.38,0-.03,0-.06,0-.1,0-.05,0-.1,0-.14.01h-.04s-.07,0-.1,0c-.07,0-.15.02-.23.02-.13.02-.25.04-.37.07-.02,0-.04,0-.05.01-.13.02-.26.06-.38.09-.05.01-.08.02-.12.04-.14.04-.27.09-.41.14-.07.03-.14.06-.2.08-.07.03-.14.07-.21.1-.16.08-.31.16-.47.25-.1.06-.2.13-.31.19l-.02-.02-3.52-3.42-2.76-2.68-.09-.08-.33-1.67c-.05-.24-.14-.48-.27-.69l-3.94-6.41v-.02s-.01,0-.01,0c.87-.76,1.5-1.75,1.82-2.88.02-.05.02-.1.04-.15.03-.1.05-.2.07-.29-.01.1-.03.2-.06.3-.02.05-.02.1-.04.14h.02s5.43.4,5.43.4l.84.07,8.36.63.86.07,6.54.48,6.09.45h.01s.02,0,.02,0c.1.65.33,1.28.67,1.86.04.06.08.13.12.19h-.01s-.01.02-.01.02l-2.51,2.57-5.13,5.25-5.63,5.78h-.01ZM216.87,182.4c-.12.08-.24.16-.35.25-.22.17-.43.37-.63.57,0,.01-.02.02-.02.03t-.01.01h0c-.07.07-.13.14-.19.22-.01.02-.03.04-.05.05h0s-.01.01-.01.01h0c-.07.08-.13.15-.18.23h0c-.05.07-.1.14-.14.22h0s0,0,0,0c0-.01,0-.02.02-.02.01-.02.03-.05.05-.07-.02.04-.05.07-.07.1-.21.33-.38.67-.51,1.02h0s-.01,0-.01,0h-.01s-3.46-1.01-3.46-1.01l-.93-.27h-.02s-4.02-1.17-4.02-1.17c-1.02-.29-2.08.22-2.48,1.21l-.54,1.34-.38.05c-.65.09-1.21.48-1.52,1.05-.31.57-.34,1.25-.07,1.84l2.26,5-5.56-1.13-.56-.11c-.73-.15-1.48.11-1.97.68l-4.18,4.88-.76-1.39-5.68-10.39c-.4-.74-1.19-1.16-2.02-1.07l-.83.09-8.07.87-.5.05-9-9.4h0s-.01-.02-.01-.02c.37-.55.67-1.18.85-1.87.31-1.2.24-2.41-.14-3.49-.17-.48-.4-.95-.68-1.37h.02s0-.02,0-.02l5.47-5.61,5.3-5.43,2.52-2.58h.01s0-.01,0-.01c.42.25.87.43,1.36.55.34.09.67.14,1.01.16v.02h0s1.49,6.96,1.49,6.96l.9,4.23c.02.13.07.27.12.39l1.36,3.13.1.23v.02s.01.01.01.01c-.22.21-.42.45-.58.71-.21.33-.37.7-.48,1.1-.22.85-.15,1.74.2,2.54.06.14.13.28.21.42.04.07.09.14.14.22.15.24.33.45.54.64.47.45,1.05.77,1.69.93.13.04.25.06.37.08,0,0,.02,0,.02,0,.08.01.16.02.23.02.09.01.18.01.27.01h.16c.05,0,.11,0,.17,0h.05c.08-.01.16-.02.24-.03.06,0,.11-.02.17-.03l.09-.02c.07-.01.14-.03.2-.05.03,0,.07-.01.1-.03.06-.01.11-.04.17-.05.03,0,.05-.02.08-.03.09-.03.17-.07.27-.11.11-.05.23-.11.34-.17.32-.19.61-.42.86-.68.22-.23.41-.49.56-.77h.02s.02,0,.02,0l6.32,1.03,1.64.27c.34.05.69.02,1.01-.09l2.36-.81,2.53.72c.59.17,1.22.06,1.73-.28l4.77-3.27c.24-.16.43-.37.58-.61l2.52-4.05.02-.02c.29.13.59.24.91.33.24.06.49.11.74.13v.04l.98,8.66v.03s.02.13.02.13l.46,4.01v.04ZM220.93,185.46h0s0,0,0,0h0ZM230.27,170.28h0s-.08.17-.08.17l-1.73.79c-.36.16-.64.42-.86.74l-2.59,3.89c-.51.75-.45,1.72.08,2.4l-.3.37-.37.46-2.3,2.88v.02s-.02,0-.02,0c-.14-.07-.3-.13-.45-.19-.16-.05-.31-.1-.48-.14-.06-.02-.12-.03-.19-.04-.05-.01-.1-.02-.15-.04-.11-.02-.22-.04-.33-.05-.03,0-.07,0-.1,0-.08-.01-.16-.02-.24-.02-.11-.01-.22-.02-.33-.01-.09,0-.19,0-.28,0-.09,0-.18.01-.27.02h0s0-.02,0-.02h0s0-.02,0-.02l-.41-3.58-.13-1.13v-.04l-.86-7.51h0s0-.03,0-.03c.14-.05.28-.1.41-.16.04-.01.07-.03.1-.04.07-.04.14-.07.21-.11.07-.04.14-.07.2-.11.98-.58,1.75-1.42,2.2-2.43h.02s.01,0,.01,0l5.47.17,2.25.43h.03c0,.78.2,1.55.6,2.25.24.4.53.76.88,1.06v.02Z"/>
          <path class="cls-2" d="M215.74,183.39l-.07.09c.06-.07.12-.14.19-.21-.05.04-.08.08-.11.12ZM215.32,183.96s-.01.02-.02.04c.02-.04.04-.07.07-.1-.02.02-.04.04-.05.07ZM215.29,183.99s-.04.05-.05.08c.02-.03.04-.06.06-.08h0ZM215.74,183.39l-.07.09c.06-.07.12-.14.19-.21-.05.04-.08.08-.11.12ZM215.32,183.96s-.01.02-.02.04c.02-.04.04-.07.07-.1-.02.02-.04.04-.05.07ZM215.29,183.99s-.04.05-.05.08c.02-.03.04-.06.06-.08h0ZM215.32,183.96s-.01.02-.02.04c.02-.04.04-.07.07-.1-.02.02-.04.04-.05.07ZM215.29,183.99s-.04.05-.05.08c.02-.03.04-.06.06-.08h0ZM215.74,183.39l-.07.09c.06-.07.12-.14.19-.21-.05.04-.08.08-.11.12ZM215.29,183.99s-.04.05-.05.08c.02-.03.04-.06.06-.08h0ZM215.32,183.96s-.01.02-.02.04c.02-.04.04-.07.07-.1-.02.02-.04.04-.05.07ZM215.29,183.99s-.04.05-.05.08c.02-.03.04-.06.06-.08h0ZM215.32,183.96s-.01.02-.02.04c.02-.04.04-.07.07-.1-.02.02-.04.04-.05.07ZM215.29,183.99s-.04.05-.05.08c.02-.03.04-.06.06-.08h0ZM215.32,183.96s-.01.02-.02.04c.02-.04.04-.07.07-.1-.02.02-.04.04-.05.07ZM215.29,183.99s-.04.05-.05.08c.02-.03.04-.06.06-.08h0ZM215.32,183.96s-.01.02-.02.04c.02-.04.04-.07.07-.1-.02.02-.04.04-.05.07ZM215.29,183.99s-.04.05-.05.08c.02-.03.04-.06.06-.08h0ZM215.32,183.96s-.01.02-.02.04c.02-.04.04-.07.07-.1-.02.02-.04.04-.05.07ZM215.29,183.99s-.04.05-.05.08c.02-.03.04-.06.06-.08h0ZM215.32,183.96s-.01.02-.02.04c.02-.04.04-.07.07-.1-.02.02-.04.04-.05.07ZM215.29,183.99s-.04.05-.05.08c.02-.03.04-.06.06-.08h0ZM215.32,183.96s-.01.02-.02.04c.02-.04.04-.07.07-.1-.02.02-.04.04-.05.07ZM215.29,183.99s-.04.05-.05.08c.02-.03.04-.06.06-.08h0ZM215.32,183.96s-.01.02-.02.04c.02-.04.04-.07.07-.1-.02.02-.04.04-.05.07ZM215.29,183.99s-.04.05-.05.08c.02-.03.04-.06.06-.08h0ZM215.32,183.96s-.01.02-.02.04c.02-.04.04-.07.07-.1-.02.02-.04.04-.05.07ZM215.29,183.99s-.04.05-.05.08c.02-.03.04-.06.06-.08h0ZM215.32,183.96s-.01.02-.02.04c.02-.04.04-.07.07-.1-.02.02-.04.04-.05.07ZM215.29,183.99s-.04.05-.05.08c.02-.03.04-.06.06-.08h0ZM215.32,183.96s-.01.02-.02.04c.02-.04.04-.07.07-.1-.02.02-.04.04-.05.07ZM215.29,183.99s-.04.05-.05.08c.02-.03.04-.06.06-.08h0ZM215.32,183.96s-.01.02-.02.04c.02-.04.04-.07.07-.1-.02.02-.04.04-.05.07ZM215.29,183.99s-.04.05-.05.08c.02-.03.04-.06.06-.08h0ZM215.32,183.96s-.01.02-.02.04c.02-.04.04-.07.07-.1-.02.02-.04.04-.05.07ZM215.29,183.99s-.04.05-.05.08c.02-.03.04-.06.06-.08h0ZM215.32,183.96s-.01.02-.02.04c.02-.04.04-.07.07-.1-.02.02-.04.04-.05.07ZM215.29,183.99s-.04.05-.05.08c.02-.03.04-.06.06-.08h0ZM215.32,183.96s-.01.02-.02.04c.02-.04.04-.07.07-.1-.02.02-.04.04-.05.07ZM215.29,183.99s-.04.05-.05.08c.02-.03.04-.06.06-.08h0ZM215.29,183.99s-.04.05-.05.08c.02-.03.04-.06.06-.08h0ZM215.29,183.99s-.04.05-.05.08c.02-.03.04-.06.06-.08h0ZM215.29,183.99s-.04.05-.05.08c.02-.03.04-.06.06-.08h0ZM215.29,183.99s-.04.05-.05.08c.02-.03.04-.06.06-.08h0ZM215.29,183.99s-.04.05-.05.08c.02-.03.04-.06.06-.08h0ZM215.29,183.99s-.04.05-.05.08c.02-.03.04-.06.06-.08h0ZM215.29,183.99s-.04.05-.05.08c.02-.03.04-.06.06-.08h0ZM215.29,183.99s-.04.05-.05.08c.02-.03.04-.06.06-.08h0ZM215.29,183.99s-.04.05-.05.08c.02-.03.04-.06.06-.08h0ZM215.29,183.99s-.04.05-.05.08c.02-.03.04-.06.06-.08h0ZM210.54,186.33l-.02.05.14.04-.13-.1ZM214.78,185.02h.01s0,0,0,0h-.01ZM214.78,188.72s.01.03.02.05l.07-.03-.09-.02ZM215.87,183.24h0s.02,0,.02-.02c-.01,0-.02.01-.02.02ZM215.74,183.39l-.07.09c.06-.07.12-.14.19-.21-.05.04-.08.08-.11.12ZM215.32,183.96s-.01.02-.02.04c.02-.04.04-.07.07-.1-.02.02-.04.04-.05.07ZM215.29,183.99s-.04.05-.05.08c.02-.03.04-.06.06-.08h0ZM216.36,182.77c-.07.05-.13.1-.18.16-.1.1-.19.18-.28.28h0c.19-.2.4-.39.63-.57-.05.04-.11.08-.17.13ZM216.52,182.64c.11-.08.23-.17.35-.25h0c-.12.07-.24.16-.35.25ZM219.3,181.54h0c.09,0,.18-.01.27-.02-.09,0-.18,0-.27.02ZM220.93,185.46h0s0,0,0,0h0ZM220.41,181.54c-.08-.01-.16-.02-.24-.02.08,0,.16.01.24.02.03,0,.07,0,.1,0-.03,0-.07-.01-.1-.01ZM221.18,181.68c-.06-.02-.12-.03-.19-.04-.05-.01-.1-.02-.15-.03.05.01.1.02.15.04.07.01.13.02.19.04.16.04.32.09.48.14-.16-.06-.31-.11-.48-.15ZM215.29,183.99s-.04.05-.05.08c.02-.03.04-.06.06-.08h0ZM215.29,183.99s-.04.05-.05.08c.02-.03.04-.06.06-.08h0ZM215.29,183.99s-.04.05-.05.08c.02-.03.04-.06.06-.08h0ZM215.29,183.99s-.04.05-.05.08c.02-.03.04-.06.06-.08h0ZM215.29,183.99s-.04.05-.05.08c.02-.03.04-.06.06-.08h0ZM215.29,183.99s-.04.05-.05.08c.02-.03.04-.06.06-.08h0ZM215.29,183.99s-.04.05-.05.08c.02-.03.04-.06.06-.08h0ZM215.29,183.99s-.04.05-.05.08c.02-.03.04-.06.06-.08h0ZM215.29,183.99s-.04.05-.05.08c.02-.03.04-.06.06-.08h0ZM215.29,183.99s-.04.05-.05.08c.02-.03.04-.06.06-.08h0ZM215.32,183.96s-.01.02-.02.04c.02-.04.04-.07.07-.1-.02.02-.04.04-.05.07ZM215.29,183.99s-.04.05-.05.08c.02-.03.04-.06.06-.08h0ZM215.32,183.96s-.01.02-.02.04c.02-.04.04-.07.07-.1-.02.02-.04.04-.05.07ZM215.29,183.99s-.04.05-.05.08c.02-.03.04-.06.06-.08h0ZM215.32,183.96s-.01.02-.02.04c.02-.04.04-.07.07-.1-.02.02-.04.04-.05.07ZM215.29,183.99s-.04.05-.05.08c.02-.03.04-.06.06-.08h0ZM215.32,183.96s-.01.02-.02.04c.02-.04.04-.07.07-.1-.02.02-.04.04-.05.07ZM215.29,183.99s-.04.05-.05.08c.02-.03.04-.06.06-.08h0ZM215.32,183.96s-.01.02-.02.04c.02-.04.04-.07.07-.1-.02.02-.04.04-.05.07ZM215.29,183.99s-.04.05-.05.08c.02-.03.04-.06.06-.08h0ZM215.32,183.96s-.01.02-.02.04c.02-.04.04-.07.07-.1-.02.02-.04.04-.05.07ZM215.29,183.99s-.04.05-.05.08c.02-.03.04-.06.06-.08h0ZM215.32,183.96s-.01.02-.02.04c.02-.04.04-.07.07-.1-.02.02-.04.04-.05.07ZM215.29,183.99s-.04.05-.05.08c.02-.03.04-.06.06-.08h0ZM215.32,183.96s-.01.02-.02.04c.02-.04.04-.07.07-.1-.02.02-.04.04-.05.07ZM215.29,183.99s-.04.05-.05.08c.02-.03.04-.06.06-.08h0ZM215.32,183.96s-.01.02-.02.04c.02-.04.04-.07.07-.1-.02.02-.04.04-.05.07ZM215.29,183.99s-.04.05-.05.08c.02-.03.04-.06.06-.08h0ZM215.32,183.96s-.01.02-.02.04c.02-.04.04-.07.07-.1-.02.02-.04.04-.05.07ZM215.29,183.99s-.04.05-.05.08c.02-.03.04-.06.06-.08h0ZM215.32,183.96s-.01.02-.02.04c.02-.04.04-.07.07-.1-.02.02-.04.04-.05.07ZM215.29,183.99s-.04.05-.05.08c.02-.03.04-.06.06-.08h0ZM215.32,183.96s-.01.02-.02.04c.02-.04.04-.07.07-.1-.02.02-.04.04-.05.07ZM215.29,183.99s-.04.05-.05.08c.02-.03.04-.06.06-.08h0ZM215.32,183.96s-.01.02-.02.04c.02-.04.04-.07.07-.1-.02.02-.04.04-.05.07ZM215.29,183.99s-.04.05-.05.08c.02-.03.04-.06.06-.08h0ZM215.32,183.96s-.01.02-.02.04c.02-.04.04-.07.07-.1-.02.02-.04.04-.05.07ZM215.29,183.99s-.04.05-.05.08c.02-.03.04-.06.06-.08h0ZM215.32,183.96s-.01.02-.02.04c.02-.04.04-.07.07-.1-.02.02-.04.04-.05.07ZM215.29,183.99s-.04.05-.05.08c.02-.03.04-.06.06-.08h0ZM215.29,183.99s-.04.05-.05.08c.02-.03.04-.06.06-.08h0ZM215.74,183.39l-.07.09c.06-.07.12-.14.19-.21-.05.04-.08.08-.11.12ZM215.74,183.39l-.07.09c.06-.07.12-.14.19-.21-.05.04-.08.08-.11.12ZM215.32,183.96s-.01.02-.02.04c.02-.04.04-.07.07-.1-.02.02-.04.04-.05.07ZM215.29,183.99s-.04.05-.05.08c.02-.03.04-.06.06-.08h0ZM215.74,183.39l-.07.09c.06-.07.12-.14.19-.21-.05.04-.08.08-.11.12ZM215.32,183.96s-.01.02-.02.04c.02-.04.04-.07.07-.1-.02.02-.04.04-.05.07ZM215.29,183.99s-.04.05-.05.08c.02-.03.04-.06.06-.08h0ZM215.74,183.39l-.07.09c.06-.07.12-.14.19-.21-.05.04-.08.08-.11.12ZM215.32,183.96s-.01.02-.02.04c.02-.04.04-.07.07-.1-.02.02-.04.04-.05.07ZM215.29,183.99s-.04.05-.05.08c.02-.03.04-.06.06-.08h0Z"/>
          <path class="cls-2" d="M216.87,182.36v.04c-.12.08-.24.16-.35.25-.22.17-.43.37-.63.57,0,.01-.02.02-.02.03t-.01.01h0c-.07.07-.13.14-.19.22l.07-.09.05-.07s.04-.05.08-.08h0s.01-.02.02-.02h0s.02-.02.02-.02h0s.05-.07.09-.1l.1-.1h0s.04-.04.06-.06h.01c.05-.06.11-.11.18-.16,0-.01.02-.02.03-.03.05-.04.09-.08.14-.11,0,0,.01,0,.01-.01.11-.08.22-.18.34-.25Z"/>
          <path class="cls-2" d="M220.41,181.53v.02c-.08-.01-.16-.02-.24-.02-.11-.01-.22-.02-.33-.01-.09,0-.19,0-.28,0-.09,0-.18.01-.27.02h0s0-.02,0-.02h0s0-.02,0-.02c.37-.04.74-.04,1.11,0v.02Z"/>
          <path class="cls-2" d="M216.87,182.38v.02c-.12.08-.24.16-.35.25-.22.17-.43.37-.63.57,0,.01-.02.02-.02.03t-.01.01h0c-.07.07-.13.14-.19.22l.07-.09.05-.07s.04-.05.08-.08h0s.01-.02.02-.02h0s.02-.02.02-.02h0s.05-.07.09-.1l.1-.1s.04-.04.06-.06h.01c.05-.06.11-.11.18-.16,0-.01.02-.02.03-.03.05-.04.09-.08.14-.11,0,0,.01,0,.01-.01.11-.08.22-.16.34-.24Z"/>
          <polygon class="cls-2" points="210.67 186.43 210.52 186.39 210.54 186.33 210.67 186.43"/>
          <path class="cls-2" d="M214.78,188.72h-.02c-.14-.39-.24-.8-.29-1.2h.02s.02.01.02.01h0c.04.42.14.8.28,1.19Z"/>
          <path class="cls-2" d="M215.37,183.89s-.05.07-.07.1c-.21.33-.38.67-.51,1.02h0s-.01,0-.01,0h-.01s.04-.09.05-.13c.02-.04.04-.08.05-.12,0-.01.01-.02.02-.04h0s.01-.02.01-.02t0-.01s0,0,0,0c0,0,0-.02.01-.03,0,0,0,0,0-.01,0-.02.01-.03.02-.04,0-.02.01-.03.02-.04.04-.08.08-.17.13-.25.04-.08.09-.16.14-.24.02-.03.04-.06.05-.08h0s0,0,0,0c0-.01,0-.02.02-.02.01-.02.03-.05.05-.07Z"/>
          <path class="cls-2" d="M215.37,183.89s-.05.07-.07.1c-.21.33-.38.67-.51,1.02h0s-.01,0-.01,0c.01-.04.02-.08.04-.13.02-.04.04-.08.05-.12,0-.01.01-.02.02-.04h0s.01-.02.01-.02t0-.01s0,0,0,0c0,0,0-.02.01-.03,0,0,0,0,0-.01,0-.02.01-.03.02-.04,0-.02.01-.03.02-.04.04-.08.08-.17.13-.25.04-.08.09-.16.14-.24.02-.03.04-.06.06-.08,0,0,0,0,0,0,0-.01,0-.02.02-.02.01-.02.03-.05.05-.07Z"/>
          <path class="cls-2" d="M214.87,188.74l-.07.03h-.02s-.02-.04-.02-.05c-.14-.39-.24-.79-.29-1.19h.02s.02.01.02.01h0c.04.42.14.8.28,1.19l.09.02Z"/>
          <path class="cls-2" d="M215.3,183.99c-.21.33-.38.67-.51,1.02h0s-.01,0-.01,0h-.01s.04-.09.05-.13c.02-.04.04-.08.05-.12,0-.01.01-.02.02-.04h0s.01-.02.01-.02t0-.01s0,0,0,0c0,0,0-.02.01-.03,0,0,0,0,0-.01,0-.02.01-.03.02-.04,0-.02.01-.03.02-.04.04-.08.08-.17.13-.25.04-.08.09-.16.14-.24.02-.03.04-.06.05-.08h.01Z"/>
          <path class="cls-2" d="M214.78,188.72c-.14-.38-.25-.78-.3-1.19h.02c.04.42.14.8.28,1.19Z"/>
          <path class="cls-2" d="M216.87,182.36v.04c-.12.08-.24.16-.35.25-.22.17-.43.37-.63.57,0,.01-.02.02-.02.03v-.02s.01-.02.02-.02h0s.02-.02.02-.02h0s.05-.07.09-.1l.1-.1h0s.04-.04.06-.06h.01c.05-.06.11-.11.18-.16,0-.01.02-.02.03-.03.05-.04.09-.08.14-.11,0,0,.01,0,.01-.01.11-.08.22-.18.34-.25Z"/>
          <path class="cls-2" d="M222.12,181.99v.02s-.02,0-.02,0c-.14-.07-.3-.13-.45-.19-.16-.05-.31-.1-.48-.14-.06-.02-.12-.03-.19-.04-.05-.01-.1-.02-.15-.04-.11-.02-.22-.04-.33-.05-.03,0-.07,0-.1,0-.08-.01-.16-.02-.24-.02-.11-.01-.22-.02-.33-.01-.09,0-.19,0-.28,0-.09,0-.18.01-.27.02h0s0-.02,0-.02h0s0-.02,0-.02c.37-.04.74-.04,1.11,0,.2.02.41.06.61.1.06.01.11.03.17.04.33.09.64.2.93.34Z"/>
          <path class="cls-2" d="M224.69,184.59h0s-.01.02-.01.02c-.17-.36-.38-.71-.63-1.02l.02-.02c.25.32.46.66.63,1.02Z"/>
          <path class="cls-2" d="M222.11,182.01h0c-.14-.06-.3-.13-.45-.18-.16-.05-.31-.1-.48-.14-.06-.02-.12-.03-.19-.04-.05-.01-.1-.02-.15-.04-.11-.02-.22-.04-.33-.05-.03,0-.07,0-.1,0-.08-.01-.16-.02-.24-.02-.11-.01-.22-.02-.33-.01-.09,0-.19,0-.28,0-.09,0-.18.01-.27.02h0s0-.02,0-.02c.37-.04.74-.04,1.12,0,.19.02.39.05.58.1.06.01.13.02.19.04.33.08.64.19.93.34Z"/>
          <polygon class="cls-2" points="220.93 185.46 220.93 185.46 220.93 185.46 220.93 185.46"/>
          <path class="cls-2" d="M222.12,181.99v.02s-.02,0-.02,0c-.14-.07-.3-.13-.45-.19-.16-.05-.31-.1-.48-.14-.06-.02-.12-.03-.19-.04h0s0-.01,0-.01l.02-.02c.06.01.11.03.17.04.33.09.64.2.93.34Z"/>
          <path class="cls-2" d="M225.04,188.23c-.04.16-.08.31-.14.45-.2.57-.49,1.09-.87,1.55-.09.11-.19.23-.29.33-.1.11-.2.21-.31.31-.27.25-.56.46-.87.65-1.24.72-2.69.93-4.09.56-.14-.04-.29-.08-.43-.14-.1-.04-.2-.07-.3-.11-.02,0-.04-.01-.05-.02l-.13-.05c-.11-.05-.22-.1-.32-.16-.02,0-.03-.02-.05-.02-.11-.06-.22-.13-.33-.2-.12-.08-.23-.16-.35-.25-.53-.42-.98-.93-1.33-1.53,0,0,0-.01,0-.02h.02s0,0,0,0h0c.03.06.07.12.11.17.04.06.07.11.11.17.01.01.02.03.04.05t.01.01c.04.05.07.1.11.15.04.05.08.1.12.14.1.12.2.23.31.34.07.07.13.13.19.19.01.01.03.02.04.04.01.01.03.02.04.04.1.1.2.19.31.27.2.16.43.3.66.43.11.06.24.12.36.17.12.05.24.11.37.15.16.06.33.11.51.16.22.06.45.1.67.14,1.17.15,2.35-.09,3.39-.7,1.24-.72,2.11-1.89,2.47-3.28.12-.45.17-.91.17-1.36,0-.14,0-.3-.02-.44h0c-.02-.31-.08-.6-.15-.88-.03-.13-.07-.25-.11-.36-.02-.05-.03-.1-.05-.14-.01-.02-.02-.05-.03-.08-.01-.01-.02-.03-.02-.04t0-.01h0s-.02-.08-.04-.11c0,0,0,0,0-.01,0-.01,0-.02-.01-.03-.02-.05-.04-.1-.07-.15-.17-.36-.38-.71-.63-1.02l.02-.02c.25.32.46.66.63,1.02.52,1.1.67,2.38.34,3.65Z"/>
          <path class="cls-2" d="M225.03,188.24c-.04.15-.08.3-.13.45-.2.57-.49,1.09-.87,1.55-.09.11-.19.23-.29.33-.1.11-.2.21-.31.31-1.3,1.16-3.14,1.68-4.96,1.21-.15-.04-.3-.08-.44-.13-.1-.04-.2-.07-.3-.11-.42-.18-.8-.41-1.14-.69.2.16.43.3.66.43.11.06.24.12.36.17.12.05.24.11.37.15.16.07.33.11.51.16.22.06.45.1.67.13,1.17.15,2.35-.09,3.39-.7,1.24-.72,2.11-1.89,2.47-3.28.12-.45.17-.91.17-1.36,0-.14,0-.3-.02-.44h0c-.02-.31-.08-.6-.15-.88-.03-.13-.07-.25-.11-.36-.02-.05-.03-.1-.05-.14-.01-.02-.02-.05-.03-.08-.01-.01-.02-.03-.02-.04t0-.01h0s-.02-.08-.04-.11c0,0,0,0,0-.01,0-.01,0-.02-.01-.03-.02-.05-.04-.1-.07-.15-.17-.36-.38-.71-.63-1.02h.01c.25.31.46.65.63,1.01.52,1.09.67,2.37.34,3.64Z"/>
          <path class="cls-2" d="M215.32,183.96s-.01.01-.02.02c0,0,0,0,0,0h0s-.04.05-.05.08c-.05.08-.1.16-.14.24-.05.08-.09.17-.13.25,0,.01-.02.02-.02.04,0,.01-.02.02-.02.04,0,0,0,0,0,.01,0,.01,0,.02-.01.03t0,0s0,0,0,.01c0,0,0,.01-.01.02h0s-.01.04-.02.05c-.02.04-.04.08-.05.12-.02.04-.04.08-.05.12h.01s.01.01.01.01h0c.13-.36.3-.71.51-1.03.02-.04.04-.07.07-.1-.02.02-.04.04-.05.07ZM216.54,182.61s0,.01-.01.01c-.05.04-.09.07-.14.11-.01,0-.02.02-.03.03-.07.05-.13.1-.18.16h-.01s-.04.04-.06.05h0s-.1.1-.1.1c-.04.03-.07.06-.09.09h0s-.02.02-.02.02h0s-.02.02-.02.03h0s-.05.05-.08.08l-.05.07-.07.09c.06-.07.12-.14.19-.21h0s0-.01.01-.02c0-.01.02-.02.02-.03.19-.2.4-.4.63-.57.11-.08.23-.17.35-.25v-.04c-.12.07-.22.17-.34.25ZM221.19,181.65c-.06-.01-.11-.03-.17-.04-.2-.04-.4-.08-.61-.1-.37-.04-.74-.04-1.11,0h0v.02h0v.02c.09-.01.18-.02.27-.02.09,0,.19,0,.28,0,.11,0,.22,0,.33.01.08,0,.16.01.24.02.03,0,.07,0,.1,0,.11.01.22.03.33.05.05.01.1.02.15.04.07.01.13.02.19.04.16.04.32.09.48.14.15.05.31.12.45.19h0s.01-.02.01-.02c-.3-.14-.61-.25-.93-.34ZM224.69,184.59c-.17-.37-.38-.71-.63-1.02l-.02.02c.25.32.46.66.63,1.02.02.05.05.1.07.15,0,.01,0,.02.01.03,0,0,0,0,0,.01.02.03.03.07.04.1h0s0,.01,0,.02c0,.01,0,.03.02.04,0,.02.02.05.03.08.02.04.03.09.05.14.04.11.08.23.11.36.07.28.13.57.15.87h0c.01.16.02.31.02.45,0,.45-.05.9-.17,1.36-.36,1.39-1.24,2.55-2.47,3.28-1.04.61-2.22.85-3.39.7-.22-.04-.45-.08-.67-.14-.17-.04-.34-.1-.51-.16-.13-.04-.25-.1-.37-.15-.12-.05-.24-.11-.36-.17-.23-.13-.45-.27-.66-.43-.11-.08-.21-.16-.31-.27-.01-.01-.03-.02-.04-.04-.01-.01-.03-.02-.04-.04-.07-.06-.13-.13-.19-.19-.1-.11-.21-.22-.31-.34-.04-.05-.08-.1-.12-.14-.04-.05-.07-.1-.11-.15t-.01-.01s-.02-.04-.04-.05c-.04-.05-.07-.11-.11-.17-.04-.05-.08-.11-.11-.17h0s0-.01,0-.02c-.1-.14-.17-.3-.24-.46-.05-.11-.1-.22-.14-.34l.07-.03-.09-.02c-.14-.39-.23-.77-.28-1.18h0s-.02-.01-.02-.01h-.02c.05.4.14.8.29,1.19,0,.02.01.04.02.06.1.28.23.54.39.8,0,0,0,.01,0,.02.35.6.8,1.11,1.33,1.53.11.09.23.17.35.25.11.07.22.14.33.2.02,0,.03.02.05.02.1.06.21.11.32.16l.13.05s.04.01.05.02c.1.04.19.08.3.11.14.05.29.1.43.14,1.4.37,2.85.16,4.09-.56.31-.19.61-.4.87-.65.11-.1.21-.2.31-.31.1-.1.2-.22.29-.33.38-.46.67-.99.87-1.55.06-.14.1-.3.14-.45.33-1.27.18-2.55-.34-3.65Z"/>
          <path class="cls-2" d="M221.19,181.65c-.06-.01-.11-.03-.17-.04-.2-.04-.4-.08-.61-.1-.37-.04-.74-.04-1.11,0h0v.02h0c.09,0,.18,0,.27,0,.09,0,.19,0,.28,0,.11,0,.22,0,.33.01.08,0,.16,0,.24.02.03,0,.07,0,.1.01.11.01.22.03.33.05.05,0,.1.02.15.03.07.01.13.02.19.04.16.04.32.09.48.15.15.05.31.12.45.19h0s.01-.02.01-.02c-.3-.14-.61-.25-.93-.34ZM216.54,182.61s0,.01-.01.01c-.05.04-.09.07-.14.11-.01,0-.02.02-.03.03.06-.04.11-.08.17-.13.11-.09.23-.17.35-.25v-.03c-.12.07-.22.17-.34.25ZM216.16,182.93s-.04.04-.06.05h0s-.1.1-.1.1c-.04.03-.07.06-.09.09h0s-.02.02-.02.02h0c.09-.08.18-.17.28-.27h-.01ZM215.87,183.23h0s.01,0,.02-.01h0s-.02,0-.02.01ZM215.79,183.31l-.05.07s.07-.08.11-.12h0s0-.01.01-.02h0s-.05.04-.08.07ZM224.69,184.59c-.17-.37-.38-.71-.63-1.02l-.02.02c.25.32.46.66.63,1.02.02.05.05.1.07.15,0,.01,0,.02.01.03,0,0,0,0,0,.01.02.03.03.07.04.1h0s0,.01,0,.02c0,.01,0,.03.02.04,0,.02.02.05.03.08.02.04.03.09.05.14.04.11.08.24.11.36.07.28.13.57.15.87h0c.01.16.02.31.02.45,0,.45-.05.9-.17,1.36-.36,1.39-1.24,2.55-2.47,3.28-1.04.61-2.22.85-3.39.7-.22-.04-.45-.08-.67-.14-.17-.04-.34-.1-.51-.16-.13-.04-.25-.1-.37-.15-.12-.05-.24-.11-.36-.17-.23-.13-.45-.27-.66-.43-.11-.08-.21-.16-.31-.27-.01-.01-.03-.02-.04-.04-.01-.01-.03-.02-.04-.04-.07-.06-.13-.13-.19-.19-.1-.11-.21-.22-.31-.34-.04-.05-.08-.1-.12-.14-.04-.05-.07-.1-.11-.15t-.01-.01s-.02-.04-.04-.05c-.04-.05-.07-.11-.11-.17-.04-.05-.08-.11-.11-.17h0s0-.01,0-.02c-.1-.14-.17-.3-.24-.46-.05-.11-.1-.22-.14-.34,0-.02-.01-.03-.02-.05-.14-.39-.23-.77-.28-1.18h0s-.02-.01-.02-.01h-.02c.05.4.14.8.29,1.19,0,.02.01.04.02.06.1.28.23.54.39.8,0,0,0,.01,0,.02.35.6.8,1.11,1.33,1.53.11.09.23.17.35.25.11.07.22.14.33.2.02,0,.03.02.05.02.1.06.21.11.32.16l.13.05s.04.01.05.02c.1.04.19.08.3.11.14.05.29.1.43.14,1.4.37,2.85.16,4.09-.56.31-.19.61-.4.87-.65.11-.1.21-.2.31-.31.1-.1.2-.22.29-.33.38-.46.67-.99.87-1.55.06-.14.1-.3.14-.45.33-1.27.18-2.55-.34-3.65ZM215.3,183.98s0,0,0,0c-.02.02-.04.05-.06.08-.05.08-.1.16-.14.24-.05.08-.09.17-.13.25,0,.01-.02.02-.02.04,0,.01-.02.02-.02.04,0,0,0,0,0,.01,0,.01,0,.02-.01.03t0,0s0,0,0,.01c0,0,0,.01-.01.02h0s-.01.04-.02.05c-.02.04-.04.08-.05.12-.02.04-.04.08-.05.12h.01s.01,0,.01,0c.13-.36.3-.7.51-1.02,0-.01.01-.02.02-.04-.01,0-.01.01-.02.02Z"/>
        </g>
      </g>
      <circle class="cls-1" cx="131.69" cy="131.69" r="129.19"/>
    </g>
  </g>
</svg>