<?xml version="1.0" encoding="UTF-8"?>
<svg id="Capa_2" data-name="Capa 2" xmlns="http://www.w3.org/2000/svg" viewBox="0 0 397.47 295.4">
  <defs>
    <style>
      .cls-1 {
        fill: #116742;
      }

      .cls-2 {
        fill: #81bc56;
      }

      .cls-3 {
        fill: #818485;
      }

      .cls-4 {
        fill: #10623b;
      }
    </style>
  </defs>
  <g id="Capa_2-2" data-name="Capa 2">
    <g>
      <path class="cls-1" d="M372.56,211.73c-16-27.11-12.92-44.8-16-47.56-7.08-6.35-12.14-9.58-15.06-15.05l-7.16,6.94c-.41.4-.86.74-1.35,1.02,2.24,3.6,5.32,6.7,9.51,8.93-1.4-.25-13.24-2.59-26.65-9.78l-5.85-.86c-1.43,2.11-3.44,3.77-5.85,4.81-1.04.44-2.1.76-3.19.93,8.09,5.43,18.14,10.39,31.13,14.75,7.18,3.49,21.76,23.41,19.93,33.71-.6,3.33-2.59.68-7.85,13.12h23.04c-.08-2.3-.16-3.55.61-9.18.3-2.22,5.51-.48,4.74-1.78ZM338.54,132.13c-1.21.48-2.46.72-3.74.72s-2.56-.24-3.77-.72c-1.34-.54-2.52-1.33-3.5-2.32-.2,4.69-.06,10.01.95,15.21l8.62-8.34c.45-.43.94-.8,1.46-1.1-.03-1.08-.04-2.23-.02-3.45ZM338.93,140.47l-9.33,9.04c.42,1.38.93,2.73,1.52,4.04.16-.11.3-.23.44-.36l8.32-8.07c-.41-1.39-.73-2.92-.95-4.65ZM339.16,118.11c-.29-.28-.62-.52-.97-.73-.16-.1-.34-.2-.51-.29-.02-.01-.04-.02-.07-.03-.02-.01-.04-.02-.06-.03-.14-.08-.28-.17-.44-.23-1.56-.62-3.26-.6-4.8.07-.72.31-1.37.74-1.91,1.28h-.01l-1.61-.88c-.14,1.09-.35,2.54-.55,4.26l.36.2c-.05.3-.07.61-.07.91,0,.84.17,1.68.51,2.47.06.14.14.27.22.4.02.04.05.08.07.12.02.03.03.06.05.09,0,.01.01.01.02.02.07.14.16.27.25.41.1.14.2.28.31.42.06.07.13.15.19.22h.01c.09.12.19.22.29.31.1.1.21.2.32.29.1.09.21.17.31.25.21.15.42.29.65.42.14.08.28.15.43.22.06.02.11.06.16.08.06.04.11.06.17.09.14.05.28.08.41.12.05.01.1.03.15.05.05.01.1.02.15.04.07.02.14.04.21.05.03.01.06.02.09.02.13.03.27.06.4.07.09.02.19.03.28.04.04,0,.08,0,.12,0,.17.02.33.05.5.05.85,0,1.69-.17,2.49-.52.44-.19.84-.43,1.21-.72.07-.05.14-.1.21-.17h.01v-.04c.16-2.84.43-6,.8-9.53l-.35.19ZM303.73,60.74c-.05.2-.11.4-.18.61-.48,1.55-1.28,2.99-2.32,4.23l.16.32-.44.33,1.69,6.09c21.38,8.2,26.51,27.57,26.42,40.54l1.14.63c.18-.09.35-.17.53-.25,1.31-.56,2.67-.84,4.06-.84,1.28,0,2.55.24,3.76.72.26.1.52.22.77.34l.52-.28c.09-11.17-3.9-39.23-36.11-52.44ZM299.96,59.3c-5.13-1.8-10.91-3.24-17.42-4.22-3.86-1.67-7.53-3.3-11.04-4.9l5.1,5.54c.46.5,1.06.84,1.72.98l4.66,1.02c.02,1.08.24,2.17.7,3.23.07.15.15.3.23.44.01.02.02.03.03.05.01.03.03.05.04.08.02.04.04.08.06.12.01.02.02.03.03.05.09.17.18.33.28.48.1.16.2.31.31.46.02.03.04.05.06.08.03.03.05.06.08.09.1.12.19.24.3.36.1.13.21.24.32.36.04.04.07.08.11.11l.18.18c.07.07.15.14.23.2.08.07.16.14.24.21.06.05.11.09.18.13,0,.01.03.02.04.03.04.03.09.07.13.1.13.1.26.19.4.27.07.05.14.1.21.13.01.02.02.02.04.03.01.01.03.02.04.03.05.02.09.05.13.07.01.01.03.01.04.02.08.05.17.09.25.14.23.12.46.22.7.32.09.04.18.07.28.11.06.02.13.05.19.07.04.01.09.03.13.04.01,0,.03.01.04.01.16.06.32.1.49.14.02.01.05.01.07.02.08.02.17.04.25.06.08.02.15.04.23.05.09.02.18.03.28.04.19.03.38.05.58.07.05,0,.1.01.15.01h.04c.07.01.13.01.19.02.12,0,.23.02.34.02.34,0,.67-.02,1.01-.06l1.02,3.67c1.54.3,3.02.65,4.44,1.06l-1.7-6.13c.46-.3.88-.65,1.25-1.03.31-.3.59-.63.85-.97.17-.23.33-.48.48-.73.09-.15.18-.31.26-.47.03-.06.06-.12.09-.18.07-.15.14-.3.2-.45.08-.18.15-.37.21-.56.07-.21.13-.43.19-.65.03-.11.05-.23.07-.34h-.01ZM307.69,151.31s-.02-.01-.03-.02c-4.79-3.24-9.56-7.15-13.9-11.85h-.01s-.02-.01,0-.02c-.02-.01-.03-.02-.03-.03-1.79,1.09-3.17,2.72-3.96,4.7-.07.18-.14.37-.2.56l-7.81-.86c1.26,1.51,2.57,2.99,3.95,4.46l3.42.37c.02.21.08.42.11.63.01.02.01.05.01.07.01.02.01.04.02.06.01.03.01.06.02.1.02.14.06.27.1.4.01.03.01.06.02.09.02.05.03.11.04.17t.01.02s.01.04.01.06h0c.03.12.06.23.09.34.04.15.09.29.14.43.01.02.01.03.02.05,0,.01.01.02.01.03.03.07.05.14.08.21.02.08.04.15.07.22.27.63.61,1.23,1,1.78l.08.08.02.02s.06.05.09.07c0,.01.02.01.02.02,1.02.91,2.09,1.82,3.2,2.72h.01s.01.02.01.02c.01-.01.02,0,.03.01.01.02.02.03.04.04,0,0,0,.01,0,.01.03.02.06.05.09.07.23.12.47.22.71.32,1.16.46,2.37.69,3.58.69,1.3,0,2.6-.26,3.83-.79,1.25-.53,2.33-1.3,3.19-2.25.13-.13.24-.27.36-.41.11-.12.21-.25.3-.38.1-.13.19-.26.28-.39.2-.26.36-.54.51-.82.08-.14.15-.28.22-.42.1-.19.18-.38.26-.57,0,0,0-.01-.01-.01ZM275.42,143.1l-2.05-1.78c-.3-.26-.64-.47-1.01-.61l-11.28-4.22c.11-.61.17-1.23.17-1.84,0-1.23-.24-2.47-.71-3.64l7.26-4.84c-.34-1.3-.63-2.63-.86-3.98.66,1.08,1.33,2.16,1.99,3.23l11.17-7.44c-.2-.5-.39-1-.58-1.51-.3-.79-.57-1.58-.81-2.37l-20.4,13.59c-1.18-1.17-2.63-2-4.2-2.45l-.53-83.55c-1.37-.68-2.7-1.35-4.01-2.01l.53,85.29c-.4.05-.79.13-1.19.24l-6.1-12.03-.65-2.97c-.2-.94-.81-1.74-1.66-2.2l-2.3-1.24-23.77-23.69c.34-.54.64-1.1.88-1.71.96-2.41.92-5.06-.11-7.44-.39-.91-.91-1.74-1.53-2.47l25.96-33.72c.31-.07.61-.18.9-.34l2.21-1.23c-1.73-.91-3.41-1.8-5.03-2.67l-8.52-2.04-6.78-6.43c-6.76-3.84-12.53-7.2-17.87-10.07-.01-.01-.02-.01-.02-.01-.01-.01-.02-.01-.02-.01-.67,1.31-.96,2.8-.83,4.3l-22.27,8.04-26.67-4.44-.66-1.09c-.8-1.34-2.46-1.93-3.94-1.4l-6.88,2.46c-1.3-2.25-3.3-3.98-5.75-4.95-2.87-1.15-6.02-1.1-8.86.12-5.86,2.53-8.58,9.36-6.05,15.22,1.89,4.38,6.16,7,10.65,7,1.45,0,2.91-.27,4.33-.85l11.05,16.9c.23.36.53.67.89.92l10.54,7.21,1.08,5.99-.24.12c-1.1.5-1.83,1.56-1.91,2.77-.08,1.2.5,2.35,1.51,3l9.94,6.39c1.06.68,2.45.69,3.52.03l.15-.1,4.54,3.67,6.06,12.37c.29.59.75,1.08,1.33,1.41l7.38,4.22c-.15,1.54.08,3.13.73,4.65.09.23.21.44.34.65.03.06.06.11.09.17l.03.06c.07.13.15.26.23.39.08.14.18.27.27.4,0,.01.01.02.01.02.07.1.14.2.22.29.1.14.21.28.32.41.01.02.02.03.04.04.11.14.23.27.36.4.35.37.73.71,1.13,1.01l.57.39c.34.22.69.41,1.05.59.14.06.28.12.42.18.12.05.24.09.36.14.07.03.14.05.21.08.03.01.07.03.1.04.12.04.24.08.36.12.19.05.39.1.59.15.05.01.1.02.14.03.19.04.39.07.58.1.46.08.92.13,1.39.13,1.26,0,2.54-.26,3.78-.79,2.35-1.01,4.16-2.88,5.11-5.25.45-1.14.68-2.34.68-3.53,0-1.29-.27-2.58-.79-3.8-1.01-2.35-2.88-4.17-5.26-5.11-2.22-.89-4.63-.91-6.85-.09l-.77-2.4c-.12-.37-.3-.72-.55-1.03l-7.87-10.05-.12-2.3c-.06-1.1-.66-2.1-1.61-2.66l-3.66-2.18-12.01-13.32-.81-2.82c-.19-.66-.58-1.24-1.12-1.67l-10.82-8.58-5-12.43,11.59,1.96,19.25,23.86c.5.62,1.21,1.03,1.99,1.17l3.11.55,1.07,2.18c.16.32.37.62.63.88l5.21,5.2c-.34.54-.64,1.1-.88,1.71-.96,2.41-.92,5.05.11,7.43.1.23.22.45.34.66.03.06.06.11.09.17.02.02.03.04.04.07.02.04.05.09.08.13.08.16.18.31.28.46.01.01.01.02.02.03.04.06.08.12.12.18.01.01.01.02.02.02.01,0,.01.02.02.03.14.2.28.38.43.56.07.09.15.19.24.28.08.09.17.18.25.27.14.16.28.3.43.44.01,0,.02.01.03.02h.01s.01.02.02.03c.06.06.13.11.19.16.07.06.14.12.22.18.03.03.05.05.08.07.02.02.04.03.07.05.22.17.45.33.68.49h.01c.22.14.44.27.67.39.02.02.04.03.06.04.04.02.08.04.12.06.25.13.5.24.75.34.08.04.17.07.25.1.17.06.34.12.52.17.15.05.3.09.46.13.02.01.04.01.06.02.05.01.1.03.15.04.06.01.11.03.17.04.1.02.21.04.31.06.05.01.09.02.13.02.11.02.22.04.33.05.02,0,.03.01.05.01.08.01.16.02.23.03.1.01.2.02.3.02.03.01.06.01.09.01.2.01.4.04.61.04,1.28,0,2.59-.25,3.84-.79.52-.23,1.01-.49,1.47-.8l23.85,23.78c.23.23.49.42.77.57l2.1,1.13.6,2.75c.06.27.16.54.28.78l6.15,12.11c-1.31,1.05-2.34,2.42-2.98,4.02-.96,2.43-.93,5.09.11,7.49,1.03,2.4,2.94,4.25,5.37,5.22,1.17.46,2.39.7,3.61.7,1.32,0,2.63-.27,3.87-.81,1.73-.74,3.17-1.94,4.21-3.46l11.3,4.23.35.31c1.54-.54,3.05-1.02,4.52-1.46-.03-.05-.06-.09-.09-.14l-.2-.02ZM210.49,69.03c-.2-.1-.41-.2-.62-.28-2.41-.96-5.05-.92-7.44.1-.52.22-1.01.49-1.47.79l-5.13-5.11-1.17-2.39c-.47-.94-1.36-1.61-2.39-1.79l-3.2-.57-19.26-23.86c-.5-.62-1.22-1.04-2.01-1.18l-13.08-2.22c-1.18-.2-2.38.26-3.12,1.19-.75.92-.94,2.19-.5,3.3l5.54,13.77c.21.53.56,1,1.01,1.35l10.79,8.55.79,2.75c.13.48.38.93.72,1.31l12.19,13.51c.22.25.48.46.76.63l3.44,2.05.11,2.15c.04.68.28,1.32.7,1.86l7.92,10.11,1.06,3.32c-.59.59-1.09,1.25-1.5,1.97l-6.43-3.68-6.04-12.31c-.21-.43-.51-.81-.88-1.11l-5.05-4.08c-1.09-.88-2.62-.97-3.81-.24l-.2.12-8.53-5.48c1.12-.71,1.72-2.04,1.48-3.37l-1.23-6.81c-.15-.86-.66-1.64-1.38-2.14l-10.67-7.29-10.93-16.72c.56-.5,1.07-1.05,1.5-1.65.16-.23.32-.45.47-.68.15-.24.3-.48.43-.72.41-.72.73-1.49.95-2.28.08-.27.15-.54.21-.81.06-.27.11-.54.15-.81.12-.74.15-1.49.11-2.24-.02-.49-.07-.98-.16-1.47l6.32-2.26.53.87c.49.83,1.33,1.39,2.28,1.55l27.18,4.52c.56.1,1.13.04,1.66-.15l22.45-8.09c1.5,2.19,3.99,3.46,6.57,3.46,1.05,0,2.12-.21,3.14-.65.61-.26,1.16-.59,1.66-.97l10.17,9.64c.41.39.93.67,1.49.81l7.07,1.71-24.65,32.02ZM260.66,144.87c-1.13,1.01-2.4,1.82-3.78,2.41-1.71.74-3.53,1.12-5.4,1.12-1.74,0-3.46-.33-5.09-.98-3.42-1.36-6.1-3.97-7.54-7.34-1.98-4.6-1.25-9.85,1.68-13.72l-4.9-9.64c-.27-.55-.48-1.14-.61-1.71l-.22-.98-.48-.26c-.62-.33-1.19-.76-1.69-1.26l-21.89-21.82c-1.43.5-2.93.75-4.45.75s-3.08-.26-4.5-.75c.19.28.36.58.51.89.21-.01.42-.01.63-.01,1.71,0,3.39.32,5,.96,1.66.66,3.15,1.63,4.43,2.86,1.28,1.24,2.29,2.71,3,4.38,1.43,3.29,1.48,6.97.15,10.33-1.34,3.36-3.9,5.99-7.21,7.43-1.71.74-3.5,1.11-5.35,1.11-5.42,0-10.3-3.21-12.44-8.17-.53-1.23-.88-2.53-1.02-3.86l-5.45-3.11c-1.27-.72-2.28-1.8-2.93-3.11l-5.67-11.58-2.13-1.72c-.36.05-.73.08-1.1.08-1.4,0-2.77-.4-3.94-1.15l-9.94-6.39c-2.24-1.45-3.52-3.99-3.34-6.64.11-1.62.74-3.12,1.77-4.3l-.35-1.95-9.16-6.27c-.82-.57-1.48-1.25-2-2.06l-9.46-14.47c-.84.14-1.69.21-2.55.21-6.23,0-11.83-3.69-14.28-9.39-1.63-3.79-1.7-8.01-.16-11.87,1.53-3.86,4.47-6.89,8.27-8.53,1.95-.84,4.01-1.27,6.14-1.27,4.37,0,8.5,1.85,11.41,4.98l4.16-1.49c.79-.28,1.62-.42,2.46-.42,2.36,0,4.58,1.15,5.93,3.03l23.86,3.97,18.85-6.81c.21-1.14.58-2.24,1.11-3.25-13.77-7.02-25.42-10.52-45.42-10.11l6.32-2.42c-22.16,0-51.24-7.99-82.89,35.88-.57.79-19.59-6.93-19.59-6.93-.48,3.75.21,9.13.21,9.13-21.11-6.15-38.91,9.17-38.91,9.17,6.39,1.33,7.61,1.62,5.87,3.07-9.72,8.04-13.35,13.82-15.15,21.63-.34-.38-.89-.92-1.34-1.53-4.87-6.67-3.58-15.09-2.39-20.28-1.77,2.6-11.69,17.63-5.92,31.26.67,1.59,3.22,4.71,4.57,6.45-.54,13.13,1.09,17.49,2.87,18.8,2.3,1.68,3.64,1.04,5.59,4.23.48.79.72,1.71.72,2.15.52,8.04,2.96,19.12,3.47,21.24,1.11,4.64,2.84,9.32,5.28,12.24-.22,1.06.33,5.72,3.06,11.03,2.18,4.25,6.76,5.29,8.44,5.78,1.94.56,3.59.58,6.82.59,3.87.02,5.31-.37,7.45-.66,1.48,3.47,4.5,9.33,10.37,14.82,5.54,5.16,11.2,7.76,14.67,9.03-2.04-5.33-.84-13.87-.63-16.66.38,1.24,3.29,6.53,4.04,7.33.59-3.41,4.85-20.95,11.55-25.04,7.7-4.69,21.1,5.49,40.3,16.6-9.13-.45-15.21-4.25-17.25-5.68-1.13,9.09-4.82,24.76-12.37,37.37-4.78,7.98-9.59,8.71-14.56,21.1h24.25c0-.44.49-7.49,1.37-8.57.72-.88,4.08-1.18,6.47-.97-.05-1.07-.41-9.36,1.62-13.65.3-.65,1.14-2.46,2.39-3.56,1.29-1.15,1.68-1.45,2.5-1.66,2.85-.53,7.83-1.83,12.88-5.48,6.69-4.84,9.68-11,10.82-13.78l-.44-17.63c-4.29-1.68-8.67-4.98-13.63-8.74-13.49-10.23-12.04-42.45-11.41-45.63-.25,4.92,1.31,16.56,8.15,28.89,7.81,14.09,19.66,20.45,24,22.51-.08,12.28-1.65,25.65-.45,36.56.23,1.17.74,2.84,2,4.33,3.01,3.57,7.47,3.33,10.22,4.34,1.63.59,3.58,1.31,5.88,2.4,6.67,3.14,8.3,6.17,13.12,8.37.64.3,1.44.48,2.86.45,5.55-.14,18.16-2.46,24.37-1.56-2.07-4.26-4.99-11.67-9.78-17.07-.79-.89-2.59-2.23-4.5-2.69-4.22-.99-8.32,3.37-9.28,4.34-.49-.39-3.07-3.66-3.77-4.01-1.61-.82-2.12.3-3.58-.07-.7-.17-2.49-1.06-5.04-3.81,2.68-1.71,5.89-4.14,9-7.56,6.3-6.91,8.98-14.29,10.17-18.66-3.26,2.85-4.64,3.77-9.28,7,1.21-3.91,3.19-8.77,6.5-13.84,1.6-2.44,3.25-4.54,4.83-6.33-2.81-20.22-7.37-30.31-11.37-38.54,12.81,17.06,18.66,31.9,18,36.56-.47,3.38-1.66,6.33-1.66,6.33-.9,2.23-1.96,3.94-2.78,5.11,12.71-2.52,18.79-3.02,33.11-2.52-.82,1.87-1.68,4.24-2.3,7.04-.64,2.89-.26,5.92-.29,8,7.39-6.71,17.73-14.45,31.33-20.44,1.1-.49,2.2-.95,3.28-1.38l-5.07-1.9ZM55.11,106.57c-1.35,8.12-1.55,5.89-6.97,7.75-.38.14-3.94,2.2-4.16,2.33.14-.14,1.25-1.27,1.52-3.49.86-7.06,3.58-7.89,7.5-9.23,1.28-.43,3.21-2.03,3.58-1.75.48.37-1.27,3.23-1.47,4.39ZM71.71,90.11c-14.84,3.72-14.5-11.07-9.41-14.46,21.54-14.34,7.85-33.41,7.85-33.41,28.89,24.01,10.08,45.73,1.56,47.87Z"/>
      <path class="cls-1" d="M303.43,180.79c0,5.3-21.16,19.9-23.35,33.6-.27,1.72-3.94.31-4.72,1.32-1.29,1.68-1.39,4.66-1.41,6.98h-24.59c1.63-4.14,4.89-10.93,13-15.68,4.63-2.72,15.63-19.46,15.63-28.68-8.7-7.28-14.06-13.56-19.39-22.3,3.87-2.04,8.68-4.01,14.55-5.23h.01c.38.11.78.19,1.18.23l7.59.83c4.78,5.97,9.96,10.56,16.87,15.07,2.93,7.34,4.63,11.11,4.63,13.86Z"/>
      <g>
        <path class="cls-1" d="M285.94,64.01c.08.07.16.14.24.21.06.05.11.09.18.13-.15-.11-.29-.22-.42-.34ZM285.53,63.63l.18.18c.07.07.15.14.23.2-.14-.12-.28-.25-.41-.38ZM337.27,128.36c-.97.42-1.99.57-2.98.49.17.02.33.05.5.05.85,0,1.69-.17,2.49-.52.44-.19.84-.43,1.21-.72-.37.28-.78.51-1.22.7ZM332.31,128.36c.06.04.11.06.17.09.14.05.28.08.41.12-.2-.06-.39-.13-.58-.21ZM285.94,64.01c.08.07.16.14.24.21.06.05.11.09.18.13-.15-.11-.29-.22-.42-.34ZM285.53,63.63l.18.18c.07.07.15.14.23.2-.14-.12-.28-.25-.41-.38ZM380.49,108.2c-.01-.05-.03-.09-.04-.14.01.07.03.14.05.21,0-.02,0-.05,0-.07ZM337.27,128.36c-.97.42-1.99.57-2.98.49.17.02.33.05.5.05.85,0,1.69-.17,2.49-.52.44-.19.84-.43,1.21-.72-.37.28-.78.51-1.22.7ZM332.31,128.36c.06.04.11.06.17.09.14.05.28.08.41.12-.2-.06-.39-.13-.58-.21ZM285.94,64.01c.08.07.16.14.24.21.06.05.11.09.18.13-.15-.11-.29-.22-.42-.34ZM285.53,63.63l.18.18c.07.07.15.14.23.2-.14-.12-.28-.25-.41-.38ZM380.49,108.2c-.01-.05-.03-.09-.04-.14.01.07.03.14.05.21,0-.02,0-.05,0-.07ZM337.27,128.36c-.97.42-1.99.57-2.98.49.17.02.33.05.5.05.85,0,1.69-.17,2.49-.52.44-.19.84-.43,1.21-.72-.37.28-.78.51-1.22.7ZM332.31,128.36c.06.04.11.06.17.09.14.05.28.08.41.12-.2-.06-.39-.13-.58-.21ZM285.94,64.01c.08.07.16.14.24.21.06.05.11.09.18.13-.15-.11-.29-.22-.42-.34ZM285.53,63.63l.18.18c.07.07.15.14.23.2-.14-.12-.28-.25-.41-.38ZM380.49,108.2c-.01-.05-.03-.09-.04-.14.01.07.03.14.05.21,0-.02,0-.05,0-.07ZM337.27,128.36c-.97.42-1.99.57-2.98.49.17.02.33.05.5.05.85,0,1.69-.17,2.49-.52.44-.19.84-.43,1.21-.72-.37.28-.78.51-1.22.7ZM332.31,128.36c.06.04.11.06.17.09.14.05.28.08.41.12-.2-.06-.39-.13-.58-.21ZM285.94,64.01c.08.07.16.14.24.21.06.05.11.09.18.13-.15-.11-.29-.22-.42-.34ZM285.53,63.63l.18.18c.07.07.15.14.23.2-.14-.12-.28-.25-.41-.38ZM380.49,108.2c-.01-.05-.03-.09-.04-.14.01.07.03.14.05.21,0-.02,0-.05,0-.07ZM337.27,128.36c-.97.42-1.99.57-2.98.49.17.02.33.05.5.05.85,0,1.69-.17,2.49-.52.44-.19.84-.43,1.21-.72-.37.28-.78.51-1.22.7ZM332.31,128.36c.06.04.11.06.17.09.14.05.28.08.41.12-.2-.06-.39-.13-.58-.21ZM285.94,64.01c.08.07.16.14.24.21.06.05.11.09.18.13-.15-.11-.29-.22-.42-.34ZM285.53,63.63l.18.18c.07.07.15.14.23.2-.14-.12-.28-.25-.41-.38ZM380.49,108.2c-.01-.05-.03-.09-.04-.14.01.07.03.14.05.21,0-.02,0-.05,0-.07ZM337.27,128.36c-.97.42-1.99.57-2.98.49.17.02.33.05.5.05.85,0,1.69-.17,2.49-.52.44-.19.84-.43,1.21-.72-.37.28-.78.51-1.22.7ZM332.31,128.36c.06.04.11.06.17.09.14.05.28.08.41.12-.2-.06-.39-.13-.58-.21ZM285.94,64.01c.08.07.16.14.24.21.06.05.11.09.18.13-.15-.11-.29-.22-.42-.34ZM285.53,63.63l.18.18c.07.07.15.14.23.2-.14-.12-.28-.25-.41-.38ZM380.49,108.2c-.01-.05-.03-.09-.04-.14.01.07.03.14.05.21,0-.02,0-.05,0-.07ZM285.53,63.63l.18.18c.07.07.15.14.23.2-.14-.12-.28-.25-.41-.38ZM285.94,64.01c.08.07.16.14.24.21.06.05.11.09.18.13-.15-.11-.29-.22-.42-.34ZM332.31,128.36c.06.04.11.06.17.09.14.05.28.08.41.12-.2-.06-.39-.13-.58-.21ZM337.27,128.36c-.97.42-1.99.57-2.98.49.17.02.33.05.5.05.85,0,1.69-.17,2.49-.52.44-.19.84-.43,1.21-.72-.37.28-.78.51-1.22.7ZM380.49,108.2c-.01-.05-.03-.09-.04-.14.01.07.03.14.05.21,0-.02,0-.05,0-.07ZM285.53,63.63l.18.18c.07.07.15.14.23.2-.14-.12-.28-.25-.41-.38ZM285.94,64.01c.08.07.16.14.24.21.06.05.11.09.18.13-.15-.11-.29-.22-.42-.34ZM332.31,128.36c.06.04.11.06.17.09.14.05.28.08.41.12-.2-.06-.39-.13-.58-.21ZM337.27,128.36c-.97.42-1.99.57-2.98.49.17.02.33.05.5.05.85,0,1.69-.17,2.49-.52.44-.19.84-.43,1.21-.72-.37.28-.78.51-1.22.7ZM380.49,108.2c-.01-.05-.03-.09-.04-.14.01.07.03.14.05.21,0-.02,0-.05,0-.07ZM285.53,63.63l.18.18c.07.07.15.14.23.2-.14-.12-.28-.25-.41-.38ZM285.94,64.01c.08.07.16.14.24.21.06.05.11.09.18.13-.15-.11-.29-.22-.42-.34ZM332.31,128.36c.06.04.11.06.17.09.14.05.28.08.41.12-.2-.06-.39-.13-.58-.21ZM337.27,128.36c-.97.42-1.99.57-2.98.49.17.02.33.05.5.05.85,0,1.69-.17,2.49-.52.44-.19.84-.43,1.21-.72-.37.28-.78.51-1.22.7ZM380.49,108.2c-.01-.05-.03-.09-.04-.14.01.07.03.14.05.21,0-.02,0-.05,0-.07ZM285.53,63.63l.18.18c.07.07.15.14.23.2-.14-.12-.28-.25-.41-.38ZM285.94,64.01c.08.07.16.14.24.21.06.05.11.09.18.13-.15-.11-.29-.22-.42-.34ZM332.31,128.36c.06.04.11.06.17.09.14.05.28.08.41.12-.2-.06-.39-.13-.58-.21ZM337.27,128.36c-.97.42-1.99.57-2.98.49.17.02.33.05.5.05.85,0,1.69-.17,2.49-.52.44-.19.84-.43,1.21-.72-.37.28-.78.51-1.22.7ZM380.49,108.2c-.01-.05-.03-.09-.04-.14.01.07.03.14.05.21,0-.02,0-.05,0-.07ZM285.53,63.63l.18.18c.07.07.15.14.23.2-.14-.12-.28-.25-.41-.38ZM285.94,64.01c.08.07.16.14.24.21.06.05.11.09.18.13-.15-.11-.29-.22-.42-.34ZM332.31,128.36c.06.04.11.06.17.09.14.05.28.08.41.12-.2-.06-.39-.13-.58-.21ZM337.27,128.36c-.97.42-1.99.57-2.98.49.17.02.33.05.5.05.85,0,1.69-.17,2.49-.52.44-.19.84-.43,1.21-.72-.37.28-.78.51-1.22.7ZM380.49,108.2c-.01-.05-.03-.09-.04-.14.01.07.03.14.05.21,0-.02,0-.05,0-.07ZM285.53,63.63l.18.18c.07.07.15.14.23.2-.14-.12-.28-.25-.41-.38ZM285.94,64.01c.08.07.16.14.24.21.06.05.11.09.18.13-.15-.11-.29-.22-.42-.34ZM332.31,128.36c.06.04.11.06.17.09.14.05.28.08.41.12-.2-.06-.39-.13-.58-.21ZM337.27,128.36c-.97.42-1.99.57-2.98.49.17.02.33.05.5.05.85,0,1.69-.17,2.49-.52.44-.19.84-.43,1.21-.72-.37.28-.78.51-1.22.7ZM285.53,63.63l.18.18c.07.07.15.14.23.2-.14-.12-.28-.25-.41-.38ZM285.94,64.01c.08.07.16.14.24.21.06.05.11.09.18.13-.15-.11-.29-.22-.42-.34Z"/>
        <path class="cls-1" d="M266.94,122.19c.23,1.35.52,2.68.86,3.98l1.13-.75c-.66-1.07-1.33-2.15-1.99-3.23ZM266.94,122.19c.23,1.35.52,2.68.86,3.98l1.13-.75c-.66-1.07-1.33-2.15-1.99-3.23ZM266.94,122.19c.23,1.35.52,2.68.86,3.98l1.13-.75c-.66-1.07-1.33-2.15-1.99-3.23ZM266.94,122.19c.23,1.35.52,2.68.86,3.98l1.13-.75c-.66-1.07-1.33-2.15-1.99-3.23ZM266.94,122.19c.23,1.35.52,2.68.86,3.98l1.13-.75c-.66-1.07-1.33-2.15-1.99-3.23ZM396.71,102.73c-1.09-2.54-3.27-4.28-5.77-4.91v-.05l.1-8.23c.02-1.58-1.06-2.9-2.54-3.25l-.5-6.71,1.42-2.73c.33-.63.44-1.37.32-2.07l-.13-.74v-.06c1.41-.78,2.5-2.02,3.1-3.54.7-1.75.67-3.67-.08-5.4-.74-1.73-2.12-3.07-3.87-3.76-.84-.34-1.73-.5-2.61-.5-.94,0-1.89.19-2.79.58-1.73.74-3.06,2.12-3.76,3.87-.05.13-.1.26-.14.38-.05.16-.1.32-.14.47-.03.11-.05.21-.07.31-.03.14-.05.27-.07.4h0v.06c-.07.51-.09,1.03-.04,1.55h-.03s-.02.02-.02.02l-3.66,1.89c-.16.08-.3.17-.46.28l-6.59,4.81v.02s-.03.01-.03.01c-1.67-1.98-4.14-3.12-6.71-3.12-1.15,0-2.32.23-3.45.72-2.14.92-3.8,2.63-4.66,4.8s-.83,4.54.1,6.69c.92,2.14,2.63,3.8,4.79,4.66.4.15.8.28,1.2.37v.05l.82,7.89-2.65,8.36-3.79,1.54c-.63.26-1.16.69-1.53,1.26l-2.21,3.39-10.74,5.88-.35.19-.04.02h0c-.57-.54-1.25-.98-2.02-1.29-.74-.29-1.52-.44-2.3-.44-.83,0-1.67.17-2.46.51-.71.31-1.34.74-1.88,1.27h-.03s-.01-.01-.01-.01v-.02h-.02l-1.61-.88-3.37-1.84-13.84-11.6v-.02s-.03-.01-.03-.01c1.23-2.24,1.45-5.02.36-7.56-.78-1.82-2.14-3.27-3.87-4.19-.05-.03-.1-.06-.15-.08-.22-.11-.45-.21-.69-.31-.24-.09-.48-.18-.72-.25h-.01c-.24-.07-.49-.13-.73-.18-.03-.01-.06-.01-.1-.02-.05-.01-.11-.02-.17-.03-.42-.07-.85-.11-1.29-.12h-.02s-.09-.01-.13-.01h-.05c-.09,0-.18,0-.27.01v-.05s-5.63-20.19-5.63-20.19l-1.7-6.13c-.08.05-.15.1-.23.14.08-.05.15-.1.23-.16v-.02s0-.01,0-.01c.3-.2.58-.41.85-.65.14-.12.27-.24.39-.36,1.01-.99,1.74-2.2,2.15-3.52.09-.27.16-.54.21-.81.02-.05.03-.11.04-.16,0-.01.01-.03.01-.04v-.03c.02-.1.04-.21.05-.32.02-.14.04-.29.05-.43.02-.23.03-.45.03-.68v-.05c.01-.08,0-.16,0-.23,0-.16-.01-.32-.02-.48v-.05c-.02-.2-.04-.41-.07-.61-.04-.21-.08-.42-.13-.64-.06-.22-.12-.45-.19-.67-.01-.03-.02-.06-.03-.09-.03-.09-.05-.17-.08-.26-.05-.14-.11-.27-.17-.41-.91-2.1-2.58-3.72-4.7-4.56-1.02-.41-2.1-.61-3.17-.61-1.15,0-2.3.23-3.38.7-1.97.85-3.45,2.35-4.32,4.14h-.02s-.02-.01-.02-.01l-4.45-.97-18.61-20.17-.02-.02v-.02c.96-2.46.92-5.15-.13-7.58-1.05-2.44-2.99-4.32-5.46-5.3-1.19-.48-2.43-.71-3.67-.71-1.34,0-2.67.27-3.93.82-2.44,1.05-4.33,2.98-5.31,5.45-.86,2.16-.93,4.49-.24,6.67h-.02s-.02.03-.02.03l-3.16,1.76-1.11-.27-8.52-2.04-6.78-6.43-3.52-3.34-.04-.04c.04-.07.07-.14.1-.22.78-1.96.75-4.11-.09-6.05-.84-1.94-2.38-3.44-4.34-4.22s-4.11-.75-6.05.09c-.08.03-.16.07-.23.11-.08.04-.15.08-.23.12-.03,0-.06.01-.09.03-.09.04-.17.09-.25.15-.03.01-.06.03-.09.05-.15.08-.3.18-.45.28-.02.01-.03.02-.05.03-.01,0-.02,0-.03.02-.07.05-.15.1-.21.16-.02.01-.03.03-.05.04-.04.02-.08.06-.12.09-.04.04-.08.07-.12.1l-.03.03s-.11.08-.15.12t-.02.02l-.03.03c-.1.08-.19.17-.28.26-.1.1-.2.2-.29.31-.06.06-.11.12-.17.19-.03.03-.06.07-.09.11-.09.1-.17.2-.25.31-.13.17-.25.35-.36.54-.01.02-.03.04-.03.06-.12.18-.22.36-.31.55-.07.13-.13.26-.18.39-.07.15-.13.3-.19.46-.06.15-.11.31-.15.46-.04.14-.08.28-.11.42-.04.14-.07.29-.09.43-.02.12-.04.24-.06.37-.02.15-.04.29-.05.44v.03c-.01.17-.02.35-.02.53,0,.24.01.49.03.74h-.02s-.03.01-.03.01l-22.27,8.04-26.67-4.44-.66-1.09c-.8-1.34-2.46-1.93-3.94-1.4l-6.88,2.46-.03.02h-.02c-2.1-3.62-5.96-5.74-9.99-5.74-1.52,0-3.07.3-4.55.94-5.84,2.52-8.54,9.32-6.02,15.15,2.47,5.76,9.12,8.47,14.9,6.13v.02s.03.02.03.02l11.05,16.9c.23.36.53.67.89.92l10.54,7.21,1.08,5.99-.24.12c-1.1.5-1.83,1.56-1.91,2.77-.08,1.2.5,2.35,1.51,3l9.94,6.39c1.06.68,2.45.69,3.52.03l.15-.1,4.54,3.67,6.06,12.37c.29.59.75,1.08,1.33,1.41l7.38,4.22h.02s.02.02.02.02c-.15,1.53.08,3.11.73,4.61,2.08,4.82,7.7,7.06,12.53,4.98,2.33-1.01,4.14-2.87,5.08-5.23.94-2.37.9-4.96-.11-7.29-.5-1.17-1.21-2.21-2.1-3.07-.89-.86-1.95-1.55-3.13-2.02-1.13-.45-2.33-.68-3.52-.68-1.12,0-2.23.2-3.3.6v-.03s-.01-.02-.01-.02l-.77-2.4c-.12-.37-.3-.72-.55-1.03l-7.87-10.05-.12-2.3c-.06-1.1-.66-2.1-1.61-2.66l-3.66-2.18-12.01-13.32-.81-2.82c-.19-.66-.58-1.24-1.12-1.67l-10.82-8.58-5-12.43,11.59,1.96,19.25,23.86c.5.62,1.21,1.03,1.99,1.17l3.11.55,1.07,2.18c.16.32.37.62.63.88l5.21,5.2.02.02h.02c-.34.54-.64,1.11-.87,1.71-.96,2.4-.92,5.02.1,7.39,2.11,4.9,7.81,7.17,12.71,5.05.51-.22.99-.48,1.45-.79l.02.03h.02s23.85,23.79,23.85,23.79c.23.23.49.42.77.57l2.1,1.13.6,2.75c.06.27.16.54.28.78l6.15,12.11v.03s.02.02.02.02c-3.33,2.67-4.61,7.33-2.84,11.44,1.02,2.39,2.92,4.23,5.34,5.19,2.41.96,5.06.93,7.44-.1,1.12-.48,2.12-1.16,2.97-1.98.29-.28.55-.57.8-.88.14-.19.28-.38.41-.58h0s.04.02.04.02l11.3,4.23.35.31,1.77,1.54c.51.44,1.13.72,1.81.79l10.92,1.2,3.42.37h.05c.04.42.11.84.21,1.26.01.03.01.06.02.09.02.05.03.11.04.17t.01.02s.01.04.01.06h0c.03.1.06.18.09.26.1.34.22.67.36,1,.1.23.21.46.33.68,0,.01.01.02.02.03.04.09.09.17.14.26.01.01.01.03.02.04.11.18.22.37.34.54.03.05.07.1.1.15.03.05.07.1.11.15.03.04.06.08.09.12,0,.01.02.01.02.02.01.01.02.02.02.03.08.11.16.22.25.32.05.05.09.1.13.15.04.05.09.1.14.15.03.03.05.06.08.09.11.12.22.25.34.36.11.11.23.22.34.32.12.1.24.21.36.3.13.1.25.19.38.28.12.1.26.19.39.27.13.09.26.17.4.25.13.08.24.15.37.2h.01s.01.02.01.02c.01-.01.02,0,.03.01.28.14.57.27.87.39,2.39.95,5,.92,7.37-.1.3-.13.59-.28.88-.44.28-.15.55-.32.81-.51.08-.06.17-.11.25-.17.15-.12.31-.24.45-.36.05-.04.09-.08.14-.12.21-.18.4-.37.59-.56.11-.11.21-.22.31-.34.1-.12.2-.23.29-.35.1-.12.19-.25.28-.37.09-.13.18-.25.26-.38.08-.13.16-.26.24-.39.08-.13.15-.27.22-.4.07-.14.14-.27.2-.41l.18-.42c.05-.1.08-.19.12-.29h.03s.02.01.02.01l20.95,3.07c.16.03.32.04.47.04.66,0,1.32-.2,1.87-.57.16-.11.3-.23.44-.36l8.32-8.07,2.45-2.37,20.21,8.76c1,.43,2.14.34,3.06-.23.92-.58,1.5-1.57,1.55-2.65l.5-10.88,9.79-4.87c1.11-.56,1.81-1.68,1.82-2.92.02-1.25-.66-2.38-1.76-2.96l-8.15-4.29.05-.05c.82-.84,1.13-2.06.82-3.19l-.57-2.01,13.07-5.23h.03s.03-.02.03-.02c.45.47.96.87,1.52,1.22.19.12.38.23.58.33.25.13.51.24.78.35,2.13.84,4.47.81,6.57-.1,2.11-.9,3.73-2.58,4.58-4.71.85-2.13.81-4.46-.1-6.57ZM210.49,69.03l-.03.03c-.2-.1-.4-.19-.61-.27-2.4-.95-5.03-.91-7.4.11-.51.22-1,.48-1.45.78h-.02s-.02-.04-.02-.04l-5.13-5.11-1.17-2.39c-.47-.94-1.36-1.61-2.39-1.79l-3.2-.57-19.26-23.86c-.5-.62-1.22-1.04-2.01-1.18l-13.08-2.22c-1.18-.2-2.38.26-3.12,1.19-.75.92-.94,2.19-.5,3.3l5.54,13.77c.21.53.56,1,1.01,1.35l10.79,8.55.79,2.75c.13.48.38.93.72,1.31l12.19,13.51c.22.25.48.46.76.63l3.44,2.05.11,2.15c.04.68.28,1.32.7,1.86l7.92,10.11,1.06,3.32v.02s.02.03.02.03c-.58.58-1.07,1.24-1.47,1.94h-.03s-.02-.02-.02-.02l-6.43-3.68-6.04-12.31c-.21-.43-.51-.81-.88-1.11l-5.05-4.08c-1.09-.88-2.62-.97-3.81-.24l-.2.12-8.53-5.48c1.12-.71,1.72-2.04,1.48-3.37l-1.23-6.81c-.15-.86-.66-1.64-1.38-2.14l-10.67-7.29-10.93-16.72c-.07.07-.15.13-.22.18.07-.06.14-.13.21-.19l-.02-.03c2.94-2.64,4.35-6.66,3.65-10.6h.02s.02-.02.02-.02l6.32-2.26.53.87c.49.83,1.33,1.39,2.28,1.55l27.18,4.52c.56.1,1.13.04,1.66-.15l22.45-8.09h.02s.02-.02.02-.02c2.09,3.05,6.12,4.3,9.65,2.78.59-.25,1.14-.57,1.64-.96l.03.02v.02s10.18,9.64,10.18,9.64c.41.39.93.67,1.49.81l7.07,1.71-24.65,32.02ZM250.11,125.03c-.39.05-.78.12-1.17.23v-.02s-.03-.03-.03-.03l-6.1-12.03-.65-2.97c-.2-.94-.81-1.74-1.66-2.2l-2.3-1.24-23.77-23.69-.02-.03h-.01c.09-.14.17-.28.25-.41.07-.12.13-.24.19-.36.11-.2.19-.41.28-.61.07-.15.13-.31.19-.47.1-.24.18-.49.25-.74.05-.14.09-.29.12-.43.04-.15.07-.3.1-.45.05-.27.09-.54.12-.81.01-.06.01-.12.02-.18.13-1.56-.12-3.15-.76-4.64-.39-.91-.9-1.72-1.53-2.45l.02-.02.02-.02,25.96-33.72c.31-.07.61-.18.9-.34l2.21-1.23,1.19-.67h.03s.01-.02.01-.02c.4.47.84.89,1.32,1.28.19.15.39.29.59.43.6.41,1.25.75,1.95,1.03.56.22,1.14.4,1.73.51v.95s.54,85.29.54,85.29v.03s.01.03.01.03ZM254.17,135.27h-.02l.02-.02v.02ZM258.31,127.69h-.02c.33.33.65.68.91,1.06-.29-.37-.6-.72-.93-1.04-.47-.46-.98-.87-1.53-1.22-.81-.52-1.7-.92-2.63-1.19v-.06l-.53-83.55-.02-2.93v-.06c.63-.13,1.26-.33,1.87-.59,1.15-.5,2.17-1.18,3.04-2.05l.04.04,12.99,14.08,5.1,5.54c.46.5,1.06.84,1.72.98l4.66,1.02h.04c.02,1.09.25,2.17.7,3.21,1.53,3.56,5.2,5.54,8.87,5.11v.03s.02.02.02.02l1.02,3.67,6.2,22.32v.02s.02.04.02.04c-3.68,2.03-5.37,6.49-3.91,10.48h-.01s-.02.02-.02.02l-17.2,11.46-20.4,13.59ZM290.99,141.95c-.04.06-.08.11-.11.16-.14.19-.26.38-.38.58-.06.1-.12.21-.18.31-.06.11-.11.22-.17.32-.13.26-.24.51-.35.78-.07.18-.14.36-.2.55h-.05l-7.81-.86-6.12-.67-.2-.02-2.05-1.78c-.3-.26-.64-.47-1.01-.61l-11.28-4.22-.04-.02h-.01c.35-1.82.17-3.69-.53-5.43-.03-.08-.07-.15-.1-.23-.06-.15-.13-.3-.2-.44.09.14.16.28.22.43.03.08.07.15.09.23l.03-.02,7.26-4.84,1.13-.75,11.17-7.44,18.02-12.01h.02s.03-.03.03-.03c.77.72,1.67,1.29,2.67,1.69.11.04.23.09.34.12v.02s0,.03,0,.03l-3.36,30.23v.02s0,.03,0,.03c-.96.09-1.93.34-2.87.74-.22.09-.43.2-.63.31-.18.09-.36.2-.54.31h-.01c-.15.08-.3.18-.44.27-.04.03-.08.06-.11.08-.03.02-.05.04-.08.06-.03.02-.05.04-.07.06-.16.11-.32.24-.48.37-.04.03-.08.06-.12.1-.06.05-.12.1-.17.16-.02.01-.03.02-.05.04-.04.03-.08.07-.12.11-.09.08-.18.17-.27.26-.14.14-.28.3-.41.45-.02.02-.04.04-.05.06-.14.16-.27.33-.39.49ZM380.29,107.12c-.01-.13-.02-.25-.02-.37.05.68.18,1.35.39,2h-.02s-.02.01-.02.01l-13.04,5.22c-1.57.63-2.41,2.33-1.95,3.96l.63,2.22-.43.44c-.73.75-1.05,1.78-.89,2.82.17,1.03.79,1.91,1.72,2.4l7.77,4.09-8.94,4.45c-1.07.53-1.76,1.6-1.82,2.8l-.47,10.27-19.71-8.53c-1.24-.54-2.65-.28-3.61.65l-.95.92-9.33,9.04-.58.56-20.61-3.01h-.05c-.07-1.08-.32-2.16-.77-3.21-.78-1.82-2.07-3.27-3.62-4.27-.69-.44-1.43-.8-2.2-1.05v-.03s.01-.02.01-.02l3.37-30.27v-.02s.01-.02.01-.02c.77-.1,1.53-.31,2.26-.63.51-.22.98-.48,1.42-.79l.02.02h.02s14.02,11.77,14.02,11.77c.16.14.34.27.53.37l4.8,2.62.36.2.03.02h.02c-.17,1.13-.02,2.27.44,3.34.66,1.52,1.87,2.7,3.42,3.32,1.54.61,3.23.59,4.76-.07.19-.08.37-.17.54-.26,0-.01.02-.02.03-.02.11-.06.22-.13.32-.2.14-.08.27-.18.4-.28.05-.04.11-.09.16-.13.07-.05.14-.11.2-.17t.02,0l.05-.05c.1-.09.19-.18.28-.27.1-.1.19-.21.29-.32.07-.08.14-.17.21-.26.03-.04.07-.09.1-.14.06-.08.11-.16.16-.24.03-.03.05-.07.07-.11.08-.13.15-.26.22-.4.1-.18.18-.37.26-.56.42-1.04.54-2.15.37-3.22h.03s.02-.02.02-.02l11.33-6.21c.48-.26.89-.64,1.19-1.1l2.18-3.35,3.9-1.59c.91-.37,1.6-1.12,1.9-2.06l2.8-8.81c.14-.44.18-.89.14-1.34l-.79-7.6v-.05c.5-.12.99-.28,1.47-.49.37-.16.72-.34,1.06-.55l.04.04,14.46,14.77.04.04c-.3.87-.45,1.77-.46,2.67v-.3c-.04.45-.02.91.04,1.37ZM386.94,97.71v.05c-.51.12-1.01.28-1.5.49-.95.41-1.8.97-2.52,1.67l-.02-.02v-.02s-13.84-14.1-13.84-14.1v-.02s-.03-.02-.03-.02c.13-.2.24-.4.35-.61.03-.05.06-.1.08-.15.05-.12.11-.23.16-.34.05-.12.11-.23.15-.35.67-1.69.8-3.51.38-5.24h.03s.02-.03.02-.03l7.07-5.16,3.27-1.68h.02s.02-.02.02-.02c.76.99,1.78,1.75,2.97,2.23.7.28,1.42.44,2.15.48v.03s.01.02.01.02l.05.29-1.4,2.7c-.29.55-.41,1.16-.36,1.77l.56,7.47c.1,1.44,1.12,2.61,2.47,2.95l-.09,7.61ZM266.94,122.19c.23,1.35.52,2.68.86,3.98l1.13-.75c-.66-1.07-1.33-2.15-1.99-3.23ZM266.94,122.19c.23,1.35.52,2.68.86,3.98l1.13-.75c-.66-1.07-1.33-2.15-1.99-3.23ZM266.94,122.19c.23,1.35.52,2.68.86,3.98l1.13-.75c-.66-1.07-1.33-2.15-1.99-3.23ZM266.94,122.19c.23,1.35.52,2.68.86,3.98l1.13-.75c-.66-1.07-1.33-2.15-1.99-3.23Z"/>
        <path class="cls-1" d="M380.72,103.38c-.3.87-.45,1.77-.46,2.67v-.45c0-.08.01-.16.02-.24v-.04c.01-.14.03-.29.05-.43.03-.2.06-.39.11-.59.02-.1.04-.19.06-.28,0-.01,0-.02,0-.03.06-.21.12-.42.19-.63l.02.02Z"/>
        <path class="cls-1" d="M380.67,108.75h-.02c-.05-.13-.09-.26-.12-.4,0-.02-.01-.05-.02-.08-.02-.07-.04-.14-.05-.21-.01-.02-.01-.05-.02-.07-.03-.14-.06-.29-.08-.44-.03-.14-.04-.29-.06-.43-.01-.13-.02-.25-.02-.37.05.68.18,1.35.39,2Z"/>
        <path class="cls-1" d="M384.31,113.43c-.56-.33-1.08-.74-1.55-1.21h.03c.45.46.96.86,1.52,1.21Z"/>
        <path class="cls-1" d="M386.95,97.74v.02c-.51.12-1.01.28-1.5.49-.95.41-1.8.97-2.52,1.67l-.02-.02c.71-.69,1.56-1.26,2.53-1.67.5-.21,1-.38,1.51-.49Z"/>
        <path class="cls-1" d="M392.25,114.04c-2.18.94-4.53.9-6.58.07,2.13.84,4.47.81,6.57-.1,2.11-.9,3.73-2.58,4.58-4.71.85-2.13.81-4.46-.1-6.57-1.09-2.54-3.27-4.28-5.77-4.91v-.02c2.51.63,4.7,2.37,5.8,4.93,1.88,4.36-.13,9.42-4.5,11.31Z"/>
        <path class="cls-1" d="M385.42,98.2c-.95.41-1.8.98-2.53,1.68v.02s.03.02.03.02c.72-.7,1.57-1.26,2.52-1.67.49-.21.99-.37,1.5-.49v-.05c-.51.12-1.02.28-1.52.49ZM380.67,103.34c-.07.21-.11.43-.17.65,0,.01,0,.02,0,.03-.02.09-.04.18-.06.28-.05.2-.08.39-.11.59-.02.14-.04.29-.05.43v.04c-.01.08-.02.16-.02.24v.45c.01-.9.16-1.8.46-2.67l-.04-.04ZM396.76,102.72c-1.1-2.56-3.3-4.32-5.82-4.95v.05c2.5.63,4.68,2.37,5.77,4.91.91,2.11.95,4.44.1,6.57-.85,2.13-2.47,3.81-4.58,4.71-2.1.91-4.44.94-6.57.1-.27-.1-.53-.22-.78-.35-.2-.1-.39-.21-.58-.33-.56-.35-1.07-.75-1.52-1.22h-.03s0,.01,0,.01h-.02c.82.83,1.81,1.49,2.93,1.93,1.03.41,2.11.62,3.19.62,1.15,0,2.31-.24,3.41-.71,2.12-.91,3.75-2.6,4.61-4.74.85-2.14.81-4.49-.1-6.6ZM380.27,106.75c0,.12.01.24.02.37.02.14.03.29.06.43.02.15.05.3.08.44.01.02.01.05.02.07.01.05.03.09.04.14,0,.02,0,.05,0,.07.01.03.02.06.02.08.03.14.06.28.1.41h.04c-.21-.66-.34-1.33-.39-2.01Z"/>
      </g>
    </g>
    <g>
      <g>
        <path class="cls-2" d="M81.84,260.09c.04.23.05.54.02.92-.03.38-.07.67-.11.88-.04.21-.08.41-.13.6s-.09.37-.16.54c-.44,1.05-1.13,1.91-2.05,2.59-.36.25-.74.47-1.15.65-.41.18-.85.34-1.31.49-.23.08-.47.14-.73.17-.25.03-.49.07-.73.11-.11.02-.21.03-.3.03s-.19.01-.3.03c-.08.02-.17.02-.27,0s-.19-.01-.3.03c-.08.02-.17.03-.27.02-.09-.01-.19-.02-.3-.02h-9.22c-.36,0-.66-.02-.9-.05-.24-.03-.42-.17-.52-.43-.06-.17-.09-.43-.08-.77.01-.35.02-.64.02-.87v-18.53c0-.25,0-.52-.02-.8-.01-.28.04-.51.14-.68.08-.15.24-.25.47-.32.04-.02.08-.03.13-.02.04.01.08,0,.13-.02h9.4c.15,0,.29,0,.44-.02.15-.01.28,0,.41.02.1.04.21.05.32.03.1-.02.21-.02.32,0h.19c.13.04.26.06.39.05.14-.01.28,0,.43.05.17.04.33.07.49.09.16.02.32.05.49.09.4.15.78.29,1.14.43.36.14.68.31.98.52.42.29.77.66,1.04,1.1.27.44.49.95.66,1.52.04.15.07.29.08.44.01.15.04.31.08.47.02.08.03.17.02.25-.01.08,0,.17.02.25.02.06.03.14.02.24-.01.09-.03.16-.05.21v.28c0,.06,0,.14-.02.22-.01.08-.02.15-.02.19-.04.15-.07.28-.08.39-.01.12-.04.23-.08.33-.27.76-.63,1.38-1.07,1.86-.15.15-.31.27-.47.38-.17.11-.32.24-.44.41-.04.04-.09.1-.14.17-.05.07-.06.16-.02.27.04.17.18.31.41.43.23.12.43.23.6.33.57.38,1.03.82,1.39,1.33.34.48.6,1.05.79,1.7.06.17.11.34.13.52.02.18.05.35.09.52v.35ZM68.11,248.79c-.11.15-.16.33-.16.55v2.38c0,.15,0,.3-.02.46s0,.29.02.39v.32c.04.13.07.24.09.33.02.09.05.18.09.27.08.11.22.18.39.22.18.04.38.07.6.08.22.01.45.01.68,0,.23-.01.44-.02.63-.02.32,0,.65,0,.99.02.35.01.69.02,1.04.02s.68-.02.99-.05c.32-.03.59-.09.82-.17.63-.21,1.1-.58,1.42-1.1.15-.27.24-.63.28-1.07.04-.71-.06-1.28-.32-1.69-.25-.41-.62-.73-1.1-.96-.13-.04-.26-.08-.41-.11-.15-.03-.31-.07-.47-.11-.08-.02-.21-.03-.38-.03-.25-.06-.54-.09-.87-.08-.33.01-.64.02-.93.02h-2.68s-.09.03-.14.03-.1.01-.14.03c-.21.06-.36.16-.44.28ZM76.94,260.59c.04-.29.03-.61-.05-.95-.07-.34-.15-.59-.24-.76-.29-.76-.87-1.28-1.74-1.58-.36-.1-.75-.17-1.18-.19-.43-.02-.88-.03-1.34-.03h-3.57s-.08.06-.11.05c-.03-.01-.07-.02-.11-.02-.25.06-.42.17-.5.32-.11.17-.16.38-.16.65v3.55c0,.25,0,.51.02.77.01.26.07.47.17.62.08.11.22.18.41.24.19.05.4.08.65.09.24.01.49.01.74,0s.47-.02.66-.02c.63,0,1.24,0,1.83.02.59.01,1.15-.02,1.67-.09s.99-.2,1.4-.38c.41-.18.74-.46.99-.84.1-.17.19-.36.25-.58.06-.22.13-.45.19-.68v-.19Z"/>
        <path class="cls-2" d="M86.06,244.69h2.71c.23,0,.45,0,.66.02.21.01.37.09.47.24.1.15.16.34.17.57.01.23.02.48.02.76v18.87c0,.27,0,.58.02.92.01.34-.04.59-.14.76-.08.15-.27.26-.57.35-.15.04-.31.05-.47.03-.17-.02-.34-.03-.5-.03h-1.86c-.23,0-.45-.01-.65-.03-.2-.02-.36-.08-.49-.19-.11-.11-.17-.26-.19-.47-.02-.21-.03-.43-.03-.66v-18.87c0-.29,0-.64-.02-1.04-.01-.4.04-.68.14-.85.08-.13.22-.23.41-.32.06,0,.12,0,.17-.02.05-.01.1-.02.14-.02Z"/>
        <path class="cls-2" d="M101.97,244.18c4.08-.06,6.89,1.15,8.43,3.63.21.34.37.68.49,1.04.12.36.23.75.33,1.17.04.17.06.36.05.58-.01.22-.06.38-.14.49-.11.13-.25.21-.44.24-.19.03-.4.05-.63.05h-2.56c-.19,0-.35-.02-.47-.06-.25-.11-.41-.27-.47-.51-.06-.23-.15-.46-.25-.69-.08-.21-.2-.43-.35-.66-.15-.23-.31-.41-.47-.54-.29-.21-.58-.39-.85-.54-.25-.11-.56-.19-.93-.27-.37-.07-.75-.12-1.14-.14-.39-.02-.77-.01-1.15.03-.38.04-.72.13-1.01.25-.48.21-.86.46-1.12.74-.26.28-.45.71-.55,1.28-.04.15-.05.31-.03.49.02.18.05.32.09.43.17.44.4.75.71.93.3.18.67.35,1.09.52.23.11.47.18.71.24.24.05.49.12.74.21.57.19,1.15.35,1.75.49.6.14,1.19.29,1.78.46.1.04.21.06.32.06s.21.02.32.06c.42.15.86.28,1.31.41.45.13.86.31,1.22.54.57.36,1.06.72,1.47,1.07.41.36.79.82,1.15,1.39.1.17.19.36.27.57.07.21.15.42.24.63.02.06.03.12.03.17s.01.1.03.14c.08.34.13.76.13,1.26.04.11.04.21,0,.32v.57c-.04.23-.08.45-.11.66-.03.21-.08.42-.14.63-.13.38-.26.73-.41,1.04-.15.32-.33.62-.54.92-.08.11-.17.19-.25.27-.08.07-.16.16-.22.27-.11.13-.22.25-.35.36-.13.12-.26.23-.41.33-.11.08-.22.17-.33.25-.12.08-.24.17-.36.25-.36.23-.73.42-1.12.57-.39.15-.79.29-1.22.44-.29.1-.6.17-.92.21-.32.03-.63.08-.95.14-.15.04-.29.06-.43.05-.14-.01-.27,0-.39.05h-.25s-.1,0-.17-.02c-.07-.01-.13,0-.17.02-.11.02-.28.03-.54.03s-.43-.01-.54-.03h-.32c-.15-.04-.3-.06-.46-.05-.16.01-.3,0-.43-.05-.11,0-.2,0-.28-.02-.08-.01-.18-.03-.28-.05-.25-.06-.52-.12-.79-.16-.27-.04-.53-.11-.76-.19-1.03-.34-1.94-.76-2.71-1.28-.78-.52-1.43-1.19-1.96-2.04-.34-.5-.6-1.1-.79-1.8-.04-.13-.07-.25-.08-.38-.01-.13-.04-.26-.08-.41-.04-.17-.07-.37-.09-.62-.02-.24.02-.43.13-.55.1-.17.26-.27.46-.3.2-.03.43-.05.68-.05h2.52c.19,0,.36.03.5.09.23.11.37.28.41.52.04.24.12.49.22.74.08.25.19.48.32.69.13.21.26.41.41.6.1.13.22.24.35.35.13.11.25.2.38.28.46.29,1.03.54,1.7.73.15.04.29.06.43.06s.29.02.46.06h.16c.17.04.4.06.69.06s.53-.02.69-.06c.06-.02.17-.03.32-.03.1-.02.22-.04.33-.05.12-.01.23-.04.33-.08.72-.19,1.28-.44,1.7-.76.42-.32.71-.84.88-1.58.04-.15.05-.32.02-.5-.03-.19-.07-.34-.11-.44-.21-.57-.57-1.01-1.07-1.33-.06-.04-.18-.1-.35-.19-.32-.19-.67-.34-1.06-.46-.39-.12-.77-.24-1.15-.36-.15-.04-.29-.08-.43-.11-.14-.03-.29-.07-.46-.11-.34-.1-.68-.19-1.03-.27-.35-.07-.68-.16-.99-.27-.11-.04-.19-.06-.25-.06s-.14-.02-.22-.06c-.17-.04-.32-.08-.46-.13-.14-.04-.29-.08-.46-.13-.48-.17-.95-.34-1.39-.52-.44-.18-.85-.38-1.23-.62-.48-.32-.93-.68-1.33-1.1-.4-.42-.72-.9-.95-1.45-.08-.19-.15-.38-.19-.58-.04-.2-.09-.42-.16-.65-.04-.19-.07-.46-.09-.82s-.01-.65.03-.88c.02-.08.03-.21.03-.38.06-.23.12-.45.16-.66.04-.21.1-.42.19-.63.32-.74.72-1.36,1.22-1.88.49-.52,1.07-.98,1.72-1.4.42-.25.87-.45,1.36-.6.48-.15,1-.28,1.55-.41.21-.04.42-.07.62-.08.2-.01.4-.04.62-.08.06-.02.16-.02.3,0s.23.01.27-.03Z"/>
        <path class="cls-2" d="M136.15,255.13c.04.13.07.34.08.65,0,.31,0,.52-.05.65v.41c-.04.21-.06.43-.06.66s-.02.46-.06.69c-.04.15-.07.29-.09.44-.02.15-.05.29-.09.44-.11.38-.21.75-.3,1.1-.09.36-.22.71-.36,1.04-.63,1.47-1.48,2.7-2.56,3.68-1.07.98-2.4,1.73-3.98,2.26-.23.08-.46.15-.69.19-.23.04-.46.08-.69.13-.11.04-.22.06-.33.06s-.23.01-.33.03l-1.04.09c-.08.02-.23.03-.44.02-.21-.01-.35-.03-.41-.05-.11-.02-.21-.03-.3-.02-.09.01-.19,0-.3-.02h-.35c-.17-.04-.33-.07-.47-.08-.15-.01-.31-.04-.47-.08-.17-.04-.34-.08-.5-.11-.17-.03-.34-.07-.5-.11-.23-.08-.47-.17-.71-.25-.24-.08-.48-.18-.71-.28-1.26-.55-2.33-1.28-3.2-2.19-.87-.92-1.58-2-2.13-3.27-.13-.29-.23-.6-.32-.93-.08-.33-.18-.66-.28-.99-.04-.1-.06-.19-.06-.27s-.01-.15-.03-.24c-.04-.15-.07-.3-.09-.46-.02-.16-.05-.32-.09-.49-.02-.1-.03-.21-.02-.3s0-.18-.05-.27c-.02-.13-.02-.26,0-.39.02-.14.02-.27,0-.39-.04-.11-.06-.27-.06-.49s.02-.38.06-.49c.02-.1.02-.21,0-.3s-.02-.19,0-.3v-.19c.04-.15.06-.29.05-.43-.01-.14,0-.27.05-.39.04-.11.06-.22.06-.33s.02-.23.06-.33c.1-.36.19-.71.25-1.06s.16-.69.28-1.03c.17-.36.33-.71.47-1.07.15-.36.33-.69.54-1.01.63-1.01,1.36-1.85,2.18-2.52.82-.67,1.82-1.25,3-1.74.27-.1.56-.19.87-.25.31-.06.6-.14.9-.22.11-.04.21-.06.3-.06s.19-.01.3-.03l.95-.09s.1-.02.17,0,.13.02.17,0c1.49-.04,2.79.11,3.88.46,1.09.35,2.07.83,2.94,1.44.27.19.56.41.85.65.29.24.54.49.73.74.1.11.21.22.32.33.1.12.2.23.28.33.23.34.46.68.69,1.03s.43.72.6,1.12c.13.29.24.58.33.85.09.27.19.57.3.88.06.21.12.43.16.65.04.22.09.45.16.68.04.15.06.29.06.43s.02.27.06.39.06.26.05.39c-.01.14,0,.26.02.36v.25ZM131.26,256.46c.04-.1.06-.26.06-.46s-.02-.35-.06-.46v-.54c-.02-.08-.03-.16-.02-.24.01-.07,0-.15-.05-.24-.04-.17-.07-.33-.08-.49-.01-.16-.04-.31-.08-.46,0-.1-.02-.22-.06-.35-.06-.23-.13-.46-.19-.69-.06-.23-.15-.46-.25-.69-.46-1.07-1.13-1.94-2-2.6-.87-.66-2.09-.99-3.65-.99-.04.02-.09.03-.14.02-.05-.01-.1,0-.14.02-.08.02-.17.03-.25.02-.08-.01-.18,0-.28.05-.23.04-.46.09-.68.14-.22.05-.43.12-.62.21-.88.38-1.58.9-2.1,1.58-.52.67-.93,1.48-1.25,2.43-.06.23-.11.46-.14.68-.03.22-.08.45-.14.68-.02.08-.03.16-.03.24s-.01.15-.03.24c-.04.11-.05.22-.03.35.02.13.02.24,0,.35-.04.11-.07.3-.08.58-.01.28,0,.48.05.58v.35c.02.08.03.17.03.27s.01.18.03.27c0,.08,0,.16.02.24.01.07.02.15.02.24.06.23.11.46.14.69.03.23.09.45.17.66.23.67.52,1.3.85,1.88.34.58.76,1.05,1.26,1.4.11.11.22.19.33.25.12.06.24.13.36.19.23.15.48.26.74.35.26.08.54.17.84.25.1.04.21.06.3.05.09-.01.19,0,.3.02.13.04.25.06.38.06h.66c.1-.02.2-.03.28-.02.08.01.18,0,.28-.05.21-.04.42-.08.63-.11.21-.03.41-.09.6-.17.9-.36,1.61-.82,2.13-1.39.52-.57.95-1.3,1.31-2.21.11-.23.18-.48.24-.76.05-.27.12-.55.21-.82l.09-.76c.02-.08.03-.17.03-.27v-.55Z"/>
        <path class="cls-2" d="M140.35,244.62h2.68c.23,0,.46.01.68.03.22.02.38.09.49.22.11.17.16.38.17.65.01.26.02.53.02.8v10.79c0,.08,0,.17-.02.27s0,.18.02.27v.5c0,.19,0,.39-.02.6-.01.21,0,.4.05.57,0,.15.01.26.03.35.04.23.08.46.11.69s.09.46.17.69c.23.55.53,1,.9,1.36.37.36.86.64,1.47.85.17.04.34.07.5.09.17.02.34.05.51.09.1.04.2.06.28.05.08-.01.18,0,.28.02.08.02.22.03.41.02.19-.01.32-.03.38-.05h.47c.17-.04.34-.07.5-.09.17-.02.33-.05.47-.09.29-.06.53-.14.69-.22.38-.17.71-.39.99-.68.28-.28.51-.6.68-.96.23-.55.37-1.19.41-1.94.04-.75.06-1.52.06-2.32v-10.51c0-.29,0-.62-.02-.98s.05-.62.17-.79c.1-.13.25-.21.44-.24s.4-.05.63-.05h2.02c.17,0,.33,0,.49-.02.16-.01.31,0,.46.05.29.06.48.17.57.32.11.17.15.41.14.71-.01.31-.02.58-.02.84v10.6c0,.8-.01,1.58-.03,2.34-.02.76-.12,1.44-.28,2.05-.29.99-.67,1.85-1.12,2.57-.45.73-1.05,1.34-1.78,1.85-.65.46-1.42.84-2.3,1.14-.19.06-.38.12-.58.16-.2.04-.39.08-.58.13-.13.04-.25.06-.36.06s-.24.02-.36.06c-.25.04-.54.07-.85.09-.32.02-.62.03-.92.03-2,.02-3.7-.23-5.11-.74-1.41-.52-2.51-1.35-3.31-2.51-.27-.38-.5-.77-.68-1.18-.18-.41-.34-.86-.49-1.34-.04-.1-.06-.19-.06-.27s-.02-.16-.06-.27c-.17-.59-.25-1.25-.25-1.99v-13.84c0-.2.03-.36.09-.49.13-.15.29-.25.5-.32h.13s.08-.01.13-.03Z"/>
        <path class="cls-2" d="M181.94,266.43c.04.13.04.24-.02.35-.05.11-.11.18-.17.22-.13.11-.3.15-.52.14-.22-.01-.45-.02-.68-.02h-1.74c-.34,0-.63-.02-.88-.05-.25-.03-.44-.15-.57-.36-.17-.27-.26-.61-.28-1.01-.02-.4-.07-.78-.16-1.14,0-.08,0-.16-.02-.24-.01-.07-.02-.14-.02-.21-.06-.25-.09-.52-.09-.8s-.02-.54-.06-.77c-.02-.06-.03-.16-.03-.28-.04-.23-.08-.47-.11-.71-.03-.24-.08-.48-.14-.71-.17-.48-.37-.92-.6-1.29s-.56-.66-.98-.85c-.11-.04-.21-.07-.32-.09-.11-.02-.22-.05-.35-.09-.38-.13-.82-.19-1.31-.19h-4.06c-.17.04-.32.07-.44.09-.13.02-.23.08-.32.19-.17.21-.24.54-.22.98.02.44.03.84.03,1.2v4.04c0,.17,0,.34-.02.52s-.02.35-.02.52v.46c0,.14-.02.26-.06.36-.06.19-.19.32-.38.38-.11.04-.23.06-.38.06h-1.89c-.34,0-.69,0-1.07.02s-.66-.06-.85-.21c-.17-.11-.25-.3-.25-.58v-20.02c0-.23,0-.47-.02-.73-.01-.25.04-.45.14-.6.08-.13.24-.23.47-.32.04-.02.09-.03.14-.02.05.01.1,0,.14-.02h10.73c.34,0,.66,0,.96.02.3.01.59.05.87.11.11.04.22.06.33.06s.23.02.33.06c.15.04.29.08.44.13.15.04.29.09.44.16.53.23,1.01.52,1.45.85.44.34.81.73,1.1,1.17.08.11.15.22.21.33s.12.23.21.33c.17.29.29.6.38.92.08.32.18.66.28,1.04.02.08.03.17.02.25s0,.17.05.25v.28c.04.17.05.37.03.62-.02.24-.05.44-.09.58-.04.17-.06.32-.06.46s-.02.28-.06.43c-.11.32-.21.62-.32.9-.11.28-.24.55-.41.8-.04.06-.09.13-.16.21s-.12.14-.16.21c-.06.08-.13.17-.21.25-.07.08-.15.16-.24.22-.13.11-.25.21-.38.32-.13.11-.26.21-.41.32-.08.06-.17.13-.25.21-.08.07-.15.16-.19.27-.04.13-.02.23.06.32.08.08.16.15.22.19.21.17.42.34.63.5.21.17.39.37.54.6.25.36.45.73.6,1.1.15.38.28.81.41,1.29.04.19.07.39.08.6.01.21.04.41.08.6,0,.13,0,.25.02.36s.02.24.02.36c.02.08.03.17.02.27s0,.19.02.3c.02.08.03.17.02.25-.01.08,0,.18.02.28.04.21.06.43.06.66s.02.45.06.66l.09.57.13.57c.04.19.08.37.13.54ZM176.74,252.2c.04-.23.05-.52.02-.85-.03-.34-.07-.59-.11-.76-.04-.08-.06-.16-.06-.22s-.02-.13-.06-.19c-.25-.65-.72-1.13-1.39-1.42-.36-.17-.77-.26-1.23-.28-.46-.02-.95-.03-1.45-.03h-3.66s-.08.06-.13.05c-.04-.01-.08-.02-.13-.02-.25.06-.42.17-.5.32-.11.17-.15.38-.14.65s.02.52.02.77v3.69c0,.25.05.45.16.6.08.13.22.21.41.25.19.04.4.07.63.09s.47.03.73.02c.25-.01.47-.02.66-.02h1.86c.15,0,.3,0,.47.02.17.01.32,0,.44-.05h.41c.17-.04.33-.06.49-.06s.31-.02.46-.06c.36-.1.67-.24.95-.41.27-.17.51-.39.69-.66.13-.19.22-.4.28-.63.06-.23.13-.49.19-.79Z"/>
        <path class="cls-2" d="M195.42,244.12c2.21-.04,4.03.34,5.46,1.14,1.43.8,2.57,1.86,3.41,3.19.23.36.42.72.57,1.09.15.37.28.77.41,1.21.04.15.08.32.13.5s.03.37-.03.54c-.04.13-.12.21-.24.24-.12.03-.25.07-.39.11h-.25c-.13.04-.27.06-.43.05-.16-.01-.31-.02-.46-.02-.19,0-.42,0-.68.02-.26.01-.52.01-.77,0-.25-.01-.48-.03-.69-.06-.21-.03-.37-.08-.47-.14-.17-.15-.29-.35-.38-.6s-.19-.47-.32-.66c-.4-.69-.93-1.24-1.58-1.64-.44-.27-.94-.49-1.48-.66-.36-.13-.8-.19-1.34-.19s-1.01.05-1.41.16c-.17.04-.32.08-.46.11-.14.03-.28.08-.43.14-1.43.61-2.44,1.62-3.03,3.03-.11.25-.2.52-.28.79-.08.27-.18.56-.28.85-.02.15-.04.28-.06.41-.02.13-.04.26-.06.41-.04.13-.06.26-.05.39,0,.14,0,.28-.05.43-.04.17-.06.34-.05.52,0,.18.02.35.02.52,0,.08,0,.17-.02.25-.01.08,0,.17.02.25v.28c.04.11.06.21.05.32-.01.11,0,.21.05.32,0,.13.02.29.06.5.04.23.08.45.13.65.04.2.09.39.16.58.29.88.67,1.64,1.14,2.26.46.62,1.07,1.13,1.83,1.53.23.11.47.19.73.27.25.07.53.15.82.24.1.02.21.04.3.05.09.01.19.02.3.02h.25c.11.04.24.06.41.05.17-.01.3-.03.41-.05.13,0,.22-.01.28-.03.25-.04.49-.08.71-.13.22-.04.44-.12.65-.22.48-.21.9-.49,1.25-.84.35-.35.66-.74.93-1.18.13-.21.23-.44.32-.69s.18-.5.28-.76c.06-.23.13-.44.19-.63.06-.19.2-.34.41-.44.13-.04.28-.06.47-.06h3.04c.2,0,.36.04.49.13.15.11.23.27.24.5,0,.23-.02.45-.08.66l-.19.85c-.11.32-.21.62-.3.92-.09.29-.22.58-.36.85-.11.17-.19.33-.25.49-.06.16-.15.31-.25.46-1.16,1.81-2.84,3.07-5.05,3.79-.23.08-.46.15-.69.19-.23.04-.46.08-.69.13-.11.04-.21.06-.3.05s-.19,0-.3.05c-.15,0-.29,0-.43.02-.14.01-.28.03-.43.05h-1.07c-.19,0-.37-.02-.54-.06-.06-.02-.17-.03-.32-.03-.15-.02-.29-.04-.44-.06s-.31-.04-.47-.06c-.21-.06-.42-.12-.62-.16-.2-.04-.41-.09-.62-.16-.19-.06-.38-.13-.57-.21s-.37-.15-.54-.24c-1.26-.55-2.33-1.28-3.2-2.19-.87-.92-1.58-2-2.13-3.27-.13-.32-.23-.63-.32-.95s-.18-.64-.28-.98c-.04-.1-.06-.19-.06-.27s-.01-.15-.03-.24c-.04-.19-.07-.39-.09-.6-.02-.21-.05-.41-.09-.6-.04-.1-.06-.19-.05-.27,0-.07,0-.15-.02-.24v-.6c-.04-.1-.06-.26-.06-.47s.02-.37.06-.47c.02-.06.03-.13.02-.21-.01-.07-.02-.13-.02-.17v-.28c.04-.17.07-.35.08-.54s.03-.38.05-.57c.04-.17.07-.33.09-.49.02-.16.05-.32.09-.49.08-.29.16-.58.22-.87.06-.28.15-.55.25-.8.1-.27.21-.55.33-.82.12-.27.25-.53.39-.76.34-.59.68-1.11,1.04-1.58.11-.15.22-.28.35-.41.13-.13.25-.25.38-.38.53-.53,1.08-.97,1.66-1.34.58-.37,1.24-.7,1.97-.99.25-.1.52-.19.79-.27.27-.07.56-.14.85-.21.13-.04.25-.06.38-.06s.24-.02.35-.06c.17-.02.33-.04.49-.05.16-.01.32-.03.49-.05.04-.02.09-.02.16,0,.06.02.12.02.16,0Z"/>
        <path class="cls-2" d="M210,244.65h14.55c.25,0,.49.01.73.03.23.02.4.11.5.25.04.06.07.14.08.22,0,.08.04.17.08.25v.35c.02.15.03.31.02.47-.01.17-.02.33-.02.47,0,.17,0,.33.02.49,0,.16,0,.31-.02.46-.02.11-.03.26-.03.47-.06.25-.17.42-.32.51-.13.08-.28.13-.47.13h-8.49c-.17,0-.36,0-.58-.02-.22-.01-.44-.01-.66,0-.22.01-.43.03-.62.06s-.33.08-.41.14c-.15.11-.24.26-.27.46-.03.2-.05.43-.05.68v2.71c.04.17.08.31.13.43.04.12.12.21.22.27.13.08.27.13.44.14.17.01.35.02.54.02h7.13c.15,0,.33,0,.55-.02.22-.01.44-.01.65,0,.21.01.41.03.58.05.18.02.31.06.39.13.11.06.18.19.22.38s.07.39.08.62c.01.22.01.45,0,.68-.01.23-.02.43-.02.6v.44c0,.15-.02.27-.06.38-.04.17-.13.31-.25.41-.11.06-.25.11-.43.13s-.38.03-.6.03-.44,0-.66-.02c-.22-.01-.41-.02-.55-.02h-6.15c-.25,0-.49,0-.73-.02-.23-.01-.45,0-.65.03s-.37.09-.5.19-.24.24-.3.43c-.02.11-.03.22-.03.33v3.3c0,.25.02.48.05.68.03.2.12.35.27.46.06.06.14.1.24.11.09.01.19.04.3.08h.32c.1.02.22.03.35.02.13-.01.24-.02.35-.02h9.42c.16,0,.3.03.43.09.17.06.28.18.35.35.04.11.07.23.08.38.01.15.02.31.02.47v1.45c0,.25-.01.49-.03.71-.02.22-.12.38-.28.49-.13.11-.29.16-.49.16h-14.85c-.29,0-.55-.02-.77-.05-.22-.03-.38-.13-.49-.3-.08-.13-.13-.29-.13-.49v-20.85c0-.19.04-.34.13-.44.08-.15.24-.25.47-.32.04-.02.08-.03.13-.02.04.01.08,0,.13-.02Z"/>
        <path class="cls-2" d="M237.01,244.18c4.08-.06,6.89,1.15,8.43,3.63.21.34.37.68.49,1.04.12.36.23.75.33,1.17.04.17.06.36.05.58-.01.22-.06.38-.14.49-.11.13-.25.21-.44.24-.19.03-.4.05-.63.05h-2.56c-.19,0-.35-.02-.47-.06-.25-.11-.41-.27-.47-.51-.06-.23-.15-.46-.25-.69-.08-.21-.2-.43-.35-.66-.15-.23-.3-.41-.47-.54-.29-.21-.58-.39-.85-.54-.25-.11-.56-.19-.93-.27-.37-.07-.75-.12-1.14-.14-.39-.02-.77-.01-1.15.03-.38.04-.72.13-1.01.25-.48.21-.86.46-1.12.74s-.45.71-.55,1.28c-.04.15-.05.31-.03.49.02.18.05.32.09.43.17.44.41.75.71.93.3.18.67.35,1.09.52.23.11.47.18.71.24.24.05.49.12.74.21.57.19,1.15.35,1.75.49.6.14,1.19.29,1.78.46.1.04.21.06.32.06s.21.02.32.06c.42.15.86.28,1.31.41.45.13.86.31,1.21.54.57.36,1.06.72,1.47,1.07.41.36.79.82,1.15,1.39.1.17.19.36.27.57.07.21.15.42.24.63.02.06.03.12.03.17s.01.1.03.14c.08.34.13.76.13,1.26.04.11.04.21,0,.32v.57c-.04.23-.08.45-.11.66-.03.21-.08.42-.14.63-.13.38-.26.73-.41,1.04-.15.32-.33.62-.54.92-.08.11-.17.19-.25.27-.08.07-.16.16-.22.27-.11.13-.22.25-.35.36-.13.12-.26.23-.41.33-.11.08-.22.17-.33.25-.12.08-.24.17-.36.25-.36.23-.73.42-1.12.57-.39.15-.79.29-1.21.44-.29.1-.6.17-.92.21-.32.03-.63.08-.95.14-.15.04-.29.06-.43.05-.14-.01-.27,0-.39.05h-.25s-.1,0-.17-.02c-.07-.01-.13,0-.17.02-.11.02-.28.03-.54.03s-.43-.01-.54-.03h-.32c-.15-.04-.3-.06-.46-.05-.16.01-.3,0-.43-.05-.11,0-.2,0-.28-.02-.08-.01-.18-.03-.28-.05-.25-.06-.52-.12-.79-.16-.27-.04-.53-.11-.76-.19-1.03-.34-1.94-.76-2.71-1.28-.78-.52-1.43-1.19-1.96-2.04-.34-.5-.6-1.1-.79-1.8-.04-.13-.07-.25-.08-.38-.01-.13-.04-.26-.08-.41-.04-.17-.07-.37-.09-.62-.02-.24.02-.43.13-.55.1-.17.26-.27.46-.3.2-.03.43-.05.68-.05h2.52c.19,0,.36.03.5.09.23.11.37.28.41.52.04.24.12.49.22.74.08.25.19.48.32.69.13.21.26.41.41.6.11.13.22.24.35.35.13.11.25.2.38.28.46.29,1.03.54,1.7.73.15.04.29.06.43.06s.29.02.46.06h.16c.17.04.4.06.69.06s.53-.02.69-.06c.06-.02.17-.03.32-.03.11-.02.22-.04.33-.05.12-.01.23-.04.33-.08.71-.19,1.28-.44,1.7-.76.42-.32.71-.84.88-1.58.04-.15.05-.32.02-.5s-.07-.34-.11-.44c-.21-.57-.57-1.01-1.07-1.33-.06-.04-.18-.1-.35-.19-.32-.19-.67-.34-1.06-.46-.39-.12-.77-.24-1.15-.36-.15-.04-.29-.08-.43-.11-.14-.03-.29-.07-.46-.11-.34-.1-.68-.19-1.03-.27-.35-.07-.68-.16-.99-.27-.11-.04-.19-.06-.25-.06s-.14-.02-.22-.06c-.17-.04-.32-.08-.46-.13-.14-.04-.29-.08-.46-.13-.48-.17-.95-.34-1.39-.52-.44-.18-.85-.38-1.23-.62-.48-.32-.93-.68-1.33-1.1-.4-.42-.72-.9-.95-1.45-.08-.19-.15-.38-.19-.58-.04-.2-.09-.42-.16-.65-.04-.19-.07-.46-.09-.82-.02-.36-.01-.65.03-.88.02-.08.03-.21.03-.38.06-.23.12-.45.16-.66.04-.21.1-.42.19-.63.32-.74.72-1.36,1.21-1.88.49-.52,1.07-.98,1.72-1.4.42-.25.87-.45,1.36-.6.48-.15,1-.28,1.55-.41.21-.04.42-.07.62-.08.2-.01.4-.04.62-.08.06-.02.16-.02.3,0,.14.02.23.01.27-.03Z"/>
      </g>
      <g>
        <path class="cls-4" d="M309.86,267.12h-12.04v-20.76l-10.76,20.76h-8.98l-10.74-20.76v20.76h-12.04v-32.55h14.3l12.98,23.25,12.96-23.25h14.32v32.55Z"/>
        <path class="cls-4" d="M354.44,267.12h-12.2l-8.32-9.98-8.34,9.98h-12.2l14.94-16.65-14.94-15.88h12.2l8.34,9.32,8.32-9.32h12.2l-14.94,15.88,14.94,16.65Z"/>
      </g>
    </g>
    <g>
      <path class="cls-3" d="M112.48,286.45c.55-.02,1.04.03,1.45.15.42.12.78.29,1.1.51.14.1.28.2.4.32.02.02.03.03.05.05.02.02.03.03.05.05.04.06.08.12.13.17.05.05.09.11.13.17.09.14.16.28.23.43.06.15.13.31.19.47.02.08.04.16.04.25s-.03.15-.1.19c-.02.02-.04.02-.07.02s-.05,0-.08.01h-.08s-.11.02-.2.02-.16,0-.2-.02c-.02,0-.05,0-.07,0s-.05,0-.08-.01c-.05,0-.09-.03-.13-.06-.05-.04-.08-.1-.1-.17-.02-.07-.05-.14-.08-.2-.04-.1-.09-.2-.14-.29-.05-.09-.11-.18-.17-.27-.02-.02-.04-.03-.06-.05-.02-.02-.04-.04-.06-.07-.07-.08-.14-.15-.22-.2-.04-.02-.08-.05-.11-.08-.03-.03-.07-.05-.11-.08-.11-.06-.23-.12-.36-.17-.13-.05-.26-.09-.4-.13-.07-.02-.14-.03-.22-.04-.07,0-.14-.02-.22-.04-.03,0-.06-.01-.09,0-.03,0-.05,0-.08,0h-.31c-.06,0-.11,0-.16.01-.02,0-.04,0-.06,0-.02,0-.04,0-.06,0-.05,0-.1.02-.15.02-.05,0-.1.02-.15.02-.28.07-.52.17-.73.3-.34.21-.61.45-.81.74-.2.28-.37.63-.51,1.04-.03.09-.06.18-.07.28-.02.1-.04.19-.06.29-.02.04-.02.08-.02.11,0,.04,0,.07-.02.11-.02.06-.02.11-.02.17,0,.06,0,.12-.02.19v.13s-.01.12-.01.2,0,.15.01.19v.12s.01.04.01.07,0,.05.01.07c.02.06.02.11.01.16,0,.05,0,.1.01.16.02.06.03.13.04.19s.03.12.04.19c.04.12.08.24.13.35.04.12.09.23.14.34.04.1.09.19.15.28.06.09.12.17.19.25.3.4.68.7,1.16.89.06.02.11.04.17.06s.12.03.18.05c.19.06.42.08.67.08h.16c.05,0,.1,0,.15-.01.04-.02.08-.02.13-.01.04,0,.09,0,.13-.01.11-.03.22-.06.32-.08.1-.02.19-.05.28-.09.74-.3,1.24-.83,1.5-1.6.02-.06.03-.13.04-.19.01-.06.03-.13.04-.19.02-.1.03-.2.02-.32,0-.12-.04-.2-.11-.25-.06-.04-.15-.06-.26-.06h-1.94c-.1,0-.19-.01-.25-.04-.06-.03-.1-.08-.12-.13-.02-.03-.03-.08-.04-.14s-.01-.12-.01-.19,0-.13.02-.19.03-.1.04-.13c.03-.06.09-.1.17-.12.04-.02.09-.02.14-.02h2.53c.09,0,.18,0,.26,0,.09,0,.17,0,.25.01.08.01.14.03.2.06.06.03.1.08.12.15.02.05.02.1.02.17,0,.06,0,.13,0,.19v3.6c0,.06,0,.1-.02.14-.02.06-.07.11-.14.14-.02.02-.08.02-.16.02-.11,0-.2-.01-.25-.04-.06-.02-.1-.06-.13-.11-.03-.05-.06-.1-.08-.17-.02-.06-.04-.14-.07-.22-.02-.06-.04-.13-.08-.22s-.1-.12-.19-.1c-.06.02-.1.04-.13.07-.03.03-.07.06-.11.1-.06.05-.12.1-.18.15-.06.05-.12.1-.18.14-.17.11-.35.2-.53.28-.19.07-.39.14-.61.2-.06.02-.11.03-.17.04-.06,0-.12.02-.18.04-.06,0-.11,0-.14.01h-.08s-.05,0-.08.01h-.12s-.08.01-.13.01-.1,0-.14-.01h-.2c-.09-.02-.17-.03-.25-.03s-.15-.02-.23-.04c-.14-.04-.28-.08-.42-.11-.14-.03-.27-.08-.4-.13-.46-.21-.86-.49-1.2-.83-.34-.35-.62-.75-.83-1.22-.04-.1-.08-.2-.11-.3-.04-.1-.07-.21-.11-.32,0-.03-.01-.06-.01-.09s0-.06-.02-.09c-.02-.09-.04-.18-.05-.28-.01-.1-.03-.19-.05-.29,0-.03,0-.06,0-.1,0-.03,0-.06,0-.08v-.11s-.02-.12-.02-.23,0-.19.02-.24v-.25s0-.1.01-.14c0-.04.01-.08.01-.13s0-.09.01-.13c.02-.1.04-.19.05-.29.01-.1.03-.19.05-.29.08-.26.16-.52.25-.76s.19-.47.33-.68c.24-.38.53-.7.86-.97s.73-.48,1.18-.63c.09-.03.17-.05.26-.07.08-.01.17-.03.26-.05.04-.02.08-.02.11-.02s.07,0,.11-.01c.06,0,.13-.01.2-.02.07,0,.13,0,.2,0Z"/>
      <path class="cls-3" d="M118.41,286.64h4.96c.09,0,.18,0,.26,0,.09,0,.16.01.22.05.02.02.04.04.06.06.02.02.03.05.05.07.02.06.02.15.02.27s0,.22-.02.28c-.03.11-.1.17-.2.19-.1.01-.23.02-.37.02h-3.22c-.13,0-.28,0-.45,0-.17,0-.3.02-.38.07s-.12.13-.13.25,0,.24,0,.37v1.22c0,.09,0,.19,0,.31s0,.22.02.29c.02.1.07.16.14.19.03.02.09.03.17.05h.12s.07.01.1,0c.04,0,.07,0,.11,0h2.76c.07,0,.15,0,.24,0s.18,0,.27,0c.09,0,.18.01.25.02.08.01.13.03.17.05.02.02.04.05.06.11.02.06.03.12.04.18,0,.06,0,.13,0,.2s-.01.13-.03.17c-.02.07-.05.12-.11.16-.02.02-.04.03-.07.03-.03,0-.05.01-.08.02h-.07s-.08.01-.12,0c-.04,0-.08,0-.12,0h-2.98c-.1,0-.19,0-.28,0s-.18,0-.26.01c-.08.01-.15.03-.21.07-.06.03-.1.09-.13.17-.02.05-.02.1-.02.17s0,.13,0,.19v1.81c0,.11,0,.21.01.31,0,.09.04.16.1.2.06.04.12.06.19.07.07,0,.15,0,.24,0h3.67c.06,0,.13,0,.19,0,.06,0,.12,0,.17.02.1.03.16.08.19.13.02.02.03.06.04.12,0,.06.01.11.02.17,0,.06,0,.12,0,.18,0,.06-.02.11-.02.14-.03.06-.07.11-.11.13-.05.03-.11.05-.19.05h-5.09c-.11,0-.21,0-.29-.02-.08-.01-.14-.05-.18-.11-.03-.05-.05-.11-.05-.19v-7.93c0-.07.02-.13.05-.17.03-.06.09-.1.18-.12.02,0,.03,0,.05,0s.03,0,.05,0Z"/>
      <path class="cls-3" d="M128.15,286.46c.46-.02.86.02,1.21.11.35.09.66.22.94.4.05.03.09.06.14.08s.09.06.13.1c.02.02.03.03.05.04.02.01.03.03.05.04.02.02.04.03.06.05.02.02.04.04.06.07l.1.12s.06.08.1.12c.03.04.06.08.08.13.02.04.04.09.07.13.07.11.13.24.17.38.04.14.08.29.12.44.02.06.02.13.02.21,0,.08-.02.13-.04.17-.04.06-.1.09-.19.1-.09,0-.18.01-.28.01h-.11s-.06,0-.1-.01c-.04,0-.07-.01-.1-.01s-.06,0-.09-.02c-.02,0-.03-.02-.05-.03-.02-.01-.03-.03-.05-.04-.05-.07-.08-.16-.1-.26-.02-.1-.05-.2-.09-.28-.14-.32-.33-.56-.58-.72-.18-.13-.4-.22-.66-.29-.05-.02-.1-.03-.14-.03-.05,0-.1-.01-.14-.03h-.1c-.06-.02-.13-.02-.19-.02h-.19c-.42,0-.76.06-1.04.19-.16.06-.3.15-.43.26s-.22.24-.29.4c-.03.06-.05.13-.07.2s-.03.14-.04.22c-.02.06-.02.14-.02.22,0,.08.01.15.03.2.06.18.13.32.21.42s.2.19.35.28c.18.11.37.2.59.25.22.06.44.12.67.18.07.02.14.03.22.04s.14.02.22.05c.11.03.23.06.35.08s.24.05.35.09c.03,0,.06.01.08.02.02,0,.05.01.08.02.07.02.14.03.22.05.07.02.14.04.22.07.16.06.32.12.47.18.15.06.3.14.43.23.18.11.33.24.47.39.14.15.25.32.34.52.03.07.06.14.07.22.02.07.03.15.05.23.02.04.02.09.02.14s0,.1.02.15v.24s-.01.06-.01.1v.1c-.02.06-.03.13-.03.2,0,.07-.02.13-.04.2-.04.12-.08.24-.13.35-.05.11-.11.22-.18.31-.14.21-.31.38-.52.53s-.43.27-.67.38c-.08.03-.16.06-.23.08s-.16.05-.25.07c-.09.03-.18.05-.28.07-.1.01-.19.03-.29.05-.04,0-.08.01-.13.01s-.09,0-.13.01c-.05,0-.1,0-.14,0-.05,0-.1,0-.14,0-.04,0-.1.01-.17.01s-.13,0-.17-.01h-.13c-.08-.02-.16-.02-.24-.02s-.16,0-.23-.02c-.03,0-.06-.01-.1-.02s-.07-.01-.11-.02c-.09-.02-.17-.03-.25-.05s-.15-.04-.23-.07c-.39-.13-.72-.29-.99-.49-.27-.2-.5-.46-.69-.78-.06-.1-.12-.21-.16-.32-.04-.11-.09-.23-.13-.36-.02-.05-.03-.1-.03-.14,0-.05-.01-.09-.03-.13-.02-.07-.02-.15-.02-.25s.02-.16.06-.2c.04-.06.11-.09.2-.1.09,0,.18-.01.27-.01h.1s.07,0,.09.01c.04,0,.07.01.1,0,.02,0,.05,0,.08.02.06.03.09.06.11.1.02.04.04.08.04.13,0,.04.01.09.03.14.02.06.03.11.04.17.01.06.03.11.05.17.14.34.34.62.61.82.14.1.28.19.44.25.16.06.33.12.52.18.06.02.13.03.19.04.06,0,.13.02.19.02.02,0,.04,0,.06,0,.02,0,.05,0,.07,0,.03,0,.07,0,.11,0,.04,0,.09,0,.13.01.03,0,.08.01.14.01s.11,0,.15-.02h.08s.08-.01.12-.01.08,0,.12-.01c.02,0,.05,0,.07,0,.02,0,.05,0,.08-.02.06-.02.13-.03.2-.04.07-.01.14-.03.2-.05.21-.09.39-.19.56-.31.16-.12.29-.27.38-.47.02-.06.04-.13.06-.19.02-.06.03-.13.05-.19.02-.06.02-.14.02-.23s0-.16-.02-.22c-.02-.04-.02-.07-.02-.1s0-.06-.02-.09c-.05-.14-.11-.25-.19-.34-.08-.09-.18-.18-.29-.26-.17-.12-.36-.22-.56-.29-.21-.07-.43-.13-.65-.19-.23-.05-.46-.1-.7-.15-.24-.05-.47-.1-.7-.17-.13-.04-.26-.07-.38-.1-.13-.03-.25-.07-.36-.11-.02,0-.03-.01-.04-.01s-.02,0-.04-.01c-.08-.03-.16-.06-.24-.1-.08-.03-.16-.07-.23-.12-.18-.11-.35-.23-.5-.37-.15-.13-.27-.3-.36-.51-.04-.07-.07-.15-.08-.23-.02-.08-.04-.17-.06-.26,0-.03,0-.06,0-.08,0-.02,0-.05,0-.07-.02-.1-.03-.22-.01-.37.02-.15.04-.26.06-.34.02-.09.05-.17.07-.25.02-.08.05-.16.08-.23.11-.24.26-.44.43-.61s.37-.31.59-.45c.02-.02.04-.03.06-.03.02,0,.04-.01.06-.03.18-.09.38-.16.61-.23.06-.02.12-.03.18-.04.06-.01.12-.03.18-.04s.13-.02.21-.02.15,0,.21-.02c.02,0,.06,0,.11,0,.05,0,.08,0,.1-.01Z"/>
      <path class="cls-3" d="M132.63,286.63h6.17c.08,0,.15.02.2.05.06.04.1.09.11.16.01.07.02.15.02.26v.14c-.02.06-.03.12-.04.16s-.04.08-.08.11c-.06.04-.15.06-.26.06h-1.69c-.09,0-.17,0-.26,0-.08,0-.16,0-.23.01-.07.01-.13.04-.17.07-.05.04-.08.09-.11.16-.02.07-.03.16-.02.28,0,.11.01.21.01.3v6.23c0,.12,0,.23-.02.32-.01.1-.06.16-.14.2-.04.02-.09.03-.14.03-.06,0-.12,0-.18,0h-.33c-.12,0-.19-.03-.23-.08-.05-.06-.07-.14-.08-.23,0-.09,0-.18,0-.29v-6.2c0-.09,0-.19,0-.31,0-.12,0-.21-.03-.28-.04-.13-.13-.2-.27-.2-.14,0-.29-.01-.45-.01h-1.32c-.1,0-.21,0-.33,0s-.22,0-.28-.03c-.02-.02-.05-.03-.07-.05-.02-.02-.04-.04-.06-.06-.02-.03-.04-.08-.05-.16,0-.07-.01-.14,0-.22,0-.07.01-.14.03-.2.02-.06.04-.11.06-.13.02-.02.04-.04.07-.05.03-.01.06-.02.09-.03.02,0,.03,0,.05,0,.02,0,.03,0,.05,0Z"/>
      <path class="cls-3" d="M140.48,286.66c.06,0,.12,0,.19,0,.07,0,.14,0,.21,0,.07,0,.13.01.19.03s.1.04.12.07c.05.06.07.13.08.23,0,.1,0,.2,0,.31v7.53c0,.12-.02.21-.06.27-.03.04-.07.06-.11.07s-.1.02-.16.04h-.23c-.11,0-.22,0-.31-.01s-.16-.05-.2-.12c-.03-.05-.05-.11-.05-.2v-7.53c0-.09,0-.19,0-.29s.01-.19.05-.26c.03-.06.1-.1.19-.12.02,0,.03,0,.05,0,.02,0,.03,0,.05,0Z"/>
      <path class="cls-3" d="M150.9,290.92c0,.08,0,.13-.01.17v.14c-.02.08-.02.16-.02.25s0,.16-.02.23c-.02.06-.03.12-.04.18,0,.06-.02.12-.02.18-.04.14-.08.27-.11.4-.03.13-.07.25-.12.37-.24.58-.55,1.07-.94,1.46-.39.39-.89.69-1.52.9-.09.02-.18.04-.26.06s-.18.04-.26.06c-.04,0-.08.01-.11.01s-.06,0-.1.01l-.4.04s-.08.01-.16,0c-.08,0-.14-.01-.16-.02-.04,0-.08-.01-.11,0s-.07,0-.1,0h-.13c-.06-.02-.11-.03-.16-.03-.05,0-.11-.01-.16-.02-.08-.02-.16-.04-.23-.05-.08-.01-.15-.03-.23-.05-.08-.03-.16-.06-.24-.1-.08-.03-.16-.06-.24-.1-.49-.22-.89-.51-1.21-.89-.32-.38-.58-.82-.79-1.33-.05-.11-.08-.23-.11-.35-.02-.12-.06-.24-.1-.37-.02-.03-.02-.06-.02-.08s0-.06-.02-.1c-.02-.06-.02-.12-.02-.18s0-.13-.02-.19c-.02-.03-.02-.06-.02-.1,0-.03,0-.06,0-.08v-.25s-.02-.1-.02-.17,0-.13.02-.17v-.16l.04-.43s.02-.1.02-.14,0-.1.02-.14c.03-.13.06-.25.08-.38.02-.12.06-.24.11-.35.06-.15.12-.3.18-.44s.13-.28.22-.41c.22-.36.49-.67.79-.94.3-.26.66-.48,1.08-.65.09-.04.18-.07.28-.1s.2-.05.31-.08c.05-.02.1-.02.15-.02s.1,0,.15-.02c.06,0,.13-.01.19-.02.06,0,.12,0,.19-.02.02,0,.04,0,.06,0,.02,0,.04,0,.06,0,.54-.02,1,.04,1.4.16s.75.29,1.06.51c.12.08.24.16.35.25.11.09.21.19.3.3.02.04.05.07.08.1.03.02.06.06.08.1.05.06.1.13.14.2.05.07.09.13.13.2.02.04.03.07.05.1.02.03.04.06.06.1.03.05.06.1.08.14.06.14.13.3.19.46.02.05.03.09.04.14.01.04.03.09.04.14.02.08.05.16.07.25.02.08.04.17.07.26.02.04.02.08.02.12s0,.08.01.12c.02.06.02.11.02.17s0,.12.02.18v.07s0,.08,0,.12,0,.08.01.12c0,.04.01.1.01.17ZM149.79,290.92c0-.1,0-.17-.02-.21v-.1s0-.08,0-.11,0-.07,0-.11c-.02-.04-.02-.08-.02-.11,0-.04,0-.07-.02-.11-.02-.07-.03-.14-.04-.22-.01-.07-.03-.14-.04-.2-.04-.11-.07-.22-.1-.32-.03-.1-.06-.2-.1-.29-.14-.33-.32-.62-.56-.89-.24-.26-.51-.47-.83-.61-.18-.08-.38-.14-.62-.19-.11-.03-.24-.05-.38-.05-.14,0-.28,0-.41,0-.06,0-.11.01-.16.02s-.11.01-.17.02c-.12.03-.23.06-.34.09-.11.03-.21.06-.32.1-.43.18-.77.45-1.02.79-.25.34-.45.75-.6,1.21-.03.09-.05.18-.07.27-.01.09-.03.19-.05.28,0,.04-.01.08-.01.11s0,.07-.01.11c-.02.03-.02.07-.02.1,0,.04,0,.07,0,.1v.11s-.01.11-.01.22,0,.18.01.22c0,.03,0,.06,0,.09,0,.03,0,.06,0,.09.02.06.03.13.03.21,0,.08.01.15.03.21,0,.03,0,.06,0,.09,0,.03,0,.06.02.09.02.09.04.18.06.26.02.09.04.18.08.26.04.09.07.17.1.26.03.08.07.17.11.25.04.06.08.13.11.19s.07.12.11.19c.25.35.57.63.97.83.11.06.23.11.34.14s.24.07.38.11c.06.02.11.02.16.02s.1,0,.16.02c.05.02.1.02.16.02.06,0,.12,0,.19,0h.12s.08-.01.12-.02c.04,0,.08,0,.12,0,.11-.02.22-.04.32-.06.1-.02.19-.04.28-.08.41-.17.74-.39,1-.66s.47-.61.64-1.02c.04-.1.07-.21.1-.32.03-.11.06-.22.09-.34.02-.05.03-.1.03-.15,0-.05.01-.11.03-.16l.04-.4v-.11s.02-.11.02-.21ZM147.31,284.33s-.04,0-.07,0c-.06.02-.11.06-.17.1-.06.04-.1.09-.13.15-.03.06-.06.12-.1.17-.07.11-.14.23-.22.35-.07.12-.14.24-.2.35-.04.05-.08.1-.11.15-.03.05-.06.11-.07.17-.02.05-.01.09,0,.13s.04.06.07.08c.07.04.17.05.29.03s.21-.05.27-.08c.04-.02.08-.06.11-.1s.07-.08.1-.12c.02-.02.05-.05.08-.07.03-.02.05-.05.07-.08.03-.04.06-.07.1-.1.03-.03.06-.06.1-.1.02,0,.03-.02.03-.02,0,0,.01-.02.03-.04.03-.04.07-.07.1-.1.04-.03.07-.06.09-.1.04-.05.08-.09.11-.14.04-.04.07-.09.11-.13.04-.04.08-.08.13-.13s.08-.1.1-.14c.02-.06.02-.1.01-.13-.02-.03-.07-.06-.13-.07-.06-.02-.13-.03-.21-.03-.08,0-.16,0-.24,0s-.15,0-.21,0c-.02,0-.03,0-.05,0Z"/>
      <path class="cls-3" d="M152.64,286.64c.14,0,.3,0,.48,0s.31.03.4.09c.06.05.12.12.18.21.06.09.11.17.16.25.1.16.21.32.32.49.11.16.21.33.32.5.06.09.11.17.17.26s.12.17.17.26c.24.38.48.77.73,1.15.25.38.5.76.74,1.15.06.11.13.22.21.32.08.1.15.21.21.32.14.22.27.43.41.64.14.21.28.42.41.63.04.06.09.14.15.23.06.09.13.14.22.14.04-.02.06-.03.06-.04.04-.05.06-.12.06-.2v-5.59c0-.06,0-.12-.01-.18s0-.12.01-.18v-.13s.03-.06.03-.1c0-.03.01-.06.03-.08.05-.06.12-.1.22-.1s.2,0,.31,0h.15c.05,0,.1,0,.14.02.1.04.15.11.16.21.01.1.02.22.02.35v7.36c0,.09,0,.18,0,.26,0,.09-.01.16-.05.2-.03.05-.07.08-.11.09-.04.01-.1.03-.16.04h-.61c-.1,0-.18-.02-.25-.05-.06-.02-.11-.06-.15-.12-.04-.06-.07-.11-.11-.17-.06-.1-.13-.2-.2-.3-.07-.1-.13-.21-.2-.31-.29-.43-.57-.86-.85-1.28-.28-.42-.56-.86-.84-1.3-.15-.24-.31-.48-.46-.71s-.31-.47-.46-.71c-.26-.42-.54-.84-.83-1.26-.03-.06-.06-.11-.1-.16-.03-.05-.08-.1-.13-.14-.02,0-.03-.02-.05-.04-.02-.02-.04-.02-.06-.01-.05.02-.08.05-.08.1,0,.05-.02.1-.04.14v.08c-.02.06-.02.12-.01.19,0,.07.01.13.01.2v5.17s0,.09,0,.14c0,.06,0,.1-.02.14v.1c-.02.08-.03.14-.05.17-.02.04-.04.07-.08.08-.04.01-.08.03-.13.04h-.24c-.11,0-.21,0-.3-.01-.09,0-.15-.04-.19-.11-.04-.05-.06-.11-.06-.2v-7.85c0-.11.02-.19.06-.26.02-.04.07-.08.14-.11.02,0,.04,0,.07,0s.05,0,.07,0Z"/>
      <path class="cls-3" d="M164.7,286.66c.06,0,.12,0,.19,0,.07,0,.14,0,.21,0,.07,0,.13.01.19.03s.1.04.12.07c.05.06.07.13.08.23,0,.1,0,.2,0,.31v7.53c0,.12-.02.21-.06.27-.03.04-.07.06-.11.07s-.1.02-.16.04h-.23c-.11,0-.22,0-.31-.01s-.16-.05-.2-.12c-.03-.05-.05-.11-.05-.2v-7.53c0-.09,0-.19,0-.29s.01-.19.05-.26c.03-.06.1-.1.19-.12.02,0,.03,0,.05,0,.02,0,.03,0,.05,0Z"/>
      <path class="cls-3" d="M167.75,286.64c.14,0,.3,0,.48,0s.31.03.4.09c.06.05.12.12.18.21.06.09.11.17.16.25.1.16.21.32.32.49.11.16.21.33.32.5.06.09.11.17.17.26s.12.17.17.26c.24.38.48.77.73,1.15.25.38.5.76.74,1.15.06.11.13.22.21.32.08.1.15.21.21.32.14.22.27.43.41.64.14.21.28.42.41.63.04.06.09.14.15.23.06.09.13.14.22.14.04-.02.06-.03.06-.04.04-.05.06-.12.06-.2v-5.59c0-.06,0-.12-.01-.18s0-.12.01-.18v-.13s.03-.06.03-.1c0-.03.01-.06.03-.08.05-.06.12-.1.22-.1s.2,0,.31,0h.15c.05,0,.1,0,.14.02.1.04.15.11.16.21.01.1.02.22.02.35v7.36c0,.09,0,.18,0,.26,0,.09-.01.16-.05.2-.03.05-.07.08-.11.09-.04.01-.1.03-.16.04h-.61c-.1,0-.18-.02-.25-.05-.06-.02-.11-.06-.15-.12-.04-.06-.07-.11-.11-.17-.06-.1-.13-.2-.2-.3-.07-.1-.13-.21-.2-.31-.29-.43-.57-.86-.85-1.28-.28-.42-.56-.86-.84-1.3-.15-.24-.31-.48-.46-.71s-.31-.47-.46-.71c-.26-.42-.54-.84-.83-1.26-.03-.06-.06-.11-.1-.16-.03-.05-.08-.1-.13-.14-.02,0-.03-.02-.05-.04-.02-.02-.04-.02-.06-.01-.05.02-.08.05-.08.1,0,.05-.02.1-.04.14v.08c-.02.06-.02.12-.01.19,0,.07.01.13.01.2v5.17s0,.09,0,.14c0,.06,0,.1-.02.14v.1c-.02.08-.03.14-.05.17-.02.04-.04.07-.08.08-.04.01-.08.03-.13.04h-.24c-.11,0-.21,0-.3-.01-.09,0-.15-.04-.19-.11-.04-.05-.06-.11-.06-.2v-7.85c0-.11.02-.19.06-.26.02-.04.07-.08.14-.11.02,0,.04,0,.07,0s.05,0,.07,0Z"/>
      <path class="cls-3" d="M175.52,286.63h6.17c.08,0,.15.02.2.05.06.04.1.09.11.16.01.07.02.15.02.26v.14c-.02.06-.03.12-.04.16s-.04.08-.08.11c-.06.04-.15.06-.26.06h-1.69c-.09,0-.17,0-.26,0-.08,0-.16,0-.23.01-.07.01-.13.04-.17.07-.05.04-.08.09-.11.16-.02.07-.03.16-.02.28,0,.11.01.21.01.3v6.23c0,.12,0,.23-.02.32-.01.1-.06.16-.14.2-.04.02-.09.03-.14.03-.06,0-.12,0-.18,0h-.33c-.12,0-.19-.03-.23-.08-.05-.06-.07-.14-.08-.23,0-.09,0-.18,0-.29v-6.2c0-.09,0-.19,0-.31,0-.12,0-.21-.03-.28-.04-.13-.13-.2-.27-.2-.14,0-.29-.01-.45-.01h-1.32c-.1,0-.21,0-.33,0s-.22,0-.28-.03c-.02-.02-.05-.03-.07-.05-.02-.02-.04-.04-.06-.06-.02-.03-.04-.08-.05-.16,0-.07-.01-.14,0-.22,0-.07.01-.14.03-.2.02-.06.04-.11.06-.13.02-.02.04-.04.07-.05.03-.01.06-.02.09-.03.02,0,.03,0,.05,0,.02,0,.03,0,.05,0Z"/>
      <path class="cls-3" d="M183.29,286.64h4.96c.09,0,.18,0,.26,0,.09,0,.16.01.22.05.02.02.04.04.06.06.02.02.03.05.05.07.02.06.02.15.02.27s0,.22-.02.28c-.03.11-.1.17-.2.19-.1.01-.23.02-.37.02h-3.22c-.13,0-.28,0-.45,0-.17,0-.3.02-.38.07s-.12.13-.13.25,0,.24,0,.37v1.22c0,.09,0,.19,0,.31s0,.22.02.29c.02.1.07.16.14.19.03.02.09.03.17.05h.12s.07.01.1,0c.04,0,.07,0,.11,0h2.76c.07,0,.15,0,.24,0s.18,0,.27,0c.09,0,.18.01.25.02.08.01.13.03.17.05.02.02.04.05.06.11.02.06.03.12.04.18,0,.06,0,.13,0,.2s-.01.13-.03.17c-.02.07-.05.12-.11.16-.02.02-.04.03-.07.03-.03,0-.05.01-.08.02h-.07s-.08.01-.12,0c-.04,0-.08,0-.12,0h-2.98c-.1,0-.19,0-.28,0s-.18,0-.26.01c-.08.01-.15.03-.21.07-.06.03-.1.09-.13.17-.02.05-.02.1-.02.17s0,.13,0,.19v1.81c0,.11,0,.21.01.31,0,.09.04.16.1.2.06.04.12.06.19.07.07,0,.15,0,.24,0h3.67c.06,0,.13,0,.19,0,.06,0,.12,0,.17.02.1.03.16.08.19.13.02.02.03.06.04.12,0,.06.01.11.02.17,0,.06,0,.12,0,.18,0,.06-.02.11-.02.14-.03.06-.07.11-.11.13-.05.03-.11.05-.19.05h-5.09c-.11,0-.21,0-.29-.02-.08-.01-.14-.05-.18-.11-.03-.05-.05-.11-.05-.19v-7.93c0-.07.02-.13.05-.17.03-.06.09-.1.18-.12.02,0,.03,0,.05,0s.03,0,.05,0Z"/>
      <path class="cls-3" d="M193.8,286.45c.55-.02,1.04.03,1.45.15.42.12.78.29,1.1.51.14.1.28.2.4.32.02.02.03.03.05.05.02.02.03.03.05.05.04.06.08.12.13.17.05.05.09.11.13.17.09.14.16.28.23.43.06.15.13.31.19.47.02.08.04.16.04.25s-.03.15-.1.19c-.02.02-.04.02-.07.02s-.05,0-.08.01h-.08s-.11.02-.2.02-.16,0-.2-.02c-.02,0-.05,0-.07,0s-.05,0-.08-.01c-.05,0-.09-.03-.13-.06-.05-.04-.08-.1-.1-.17-.02-.07-.05-.14-.08-.2-.04-.1-.09-.2-.14-.29-.05-.09-.11-.18-.17-.27-.02-.02-.04-.03-.06-.05-.02-.02-.04-.04-.06-.07-.07-.08-.14-.15-.22-.2-.04-.02-.08-.05-.11-.08-.03-.03-.07-.05-.11-.08-.11-.06-.23-.12-.36-.17-.13-.05-.26-.09-.4-.13-.07-.02-.14-.03-.22-.04-.07,0-.14-.02-.22-.04-.03,0-.06-.01-.09,0-.03,0-.05,0-.08,0h-.31c-.06,0-.11,0-.16.01-.02,0-.04,0-.06,0-.02,0-.04,0-.06,0-.05,0-.1.02-.15.02-.05,0-.1.02-.15.02-.28.07-.52.17-.73.3-.34.21-.61.45-.81.74-.2.28-.37.63-.51,1.04-.03.09-.06.18-.07.28-.02.1-.04.19-.06.29-.02.04-.02.08-.02.11,0,.04,0,.07-.02.11-.02.06-.02.11-.02.17,0,.06,0,.12-.02.19v.13s-.01.12-.01.2,0,.15.01.19v.12s.01.04.01.07,0,.05.01.07c.02.06.02.11.01.16,0,.05,0,.1.01.16.02.06.03.13.04.19s.03.12.04.19c.04.12.08.24.13.35.04.12.09.23.14.34.04.1.09.19.15.28.06.09.12.17.19.25.3.4.68.7,1.16.89.06.02.11.04.17.06s.12.03.18.05c.19.06.42.08.67.08h.16c.05,0,.1,0,.15-.01.04-.02.08-.02.13-.01.04,0,.09,0,.13-.01.11-.03.22-.06.32-.08.1-.02.19-.05.28-.09.74-.3,1.24-.83,1.5-1.6.02-.06.03-.13.04-.19.01-.06.03-.13.04-.19.02-.1.03-.2.02-.32,0-.12-.04-.2-.11-.25-.06-.04-.15-.06-.26-.06h-1.94c-.1,0-.19-.01-.25-.04-.06-.03-.1-.08-.12-.13-.02-.03-.03-.08-.04-.14s-.01-.12-.01-.19,0-.13.02-.19.03-.1.04-.13c.03-.06.09-.1.17-.12.04-.02.09-.02.14-.02h2.53c.09,0,.18,0,.26,0,.09,0,.17,0,.25.01.08.01.14.03.2.06.06.03.1.08.12.15.02.05.02.1.02.17,0,.06,0,.13,0,.19v3.6c0,.06,0,.1-.02.14-.02.06-.07.11-.14.14-.02.02-.08.02-.16.02-.11,0-.2-.01-.25-.04-.06-.02-.1-.06-.13-.11-.03-.05-.06-.1-.08-.17-.02-.06-.04-.14-.07-.22-.02-.06-.04-.13-.08-.22s-.1-.12-.19-.1c-.06.02-.1.04-.13.07-.03.03-.07.06-.11.1-.06.05-.12.1-.18.15-.06.05-.12.1-.18.14-.17.11-.35.2-.53.28-.19.07-.39.14-.61.2-.06.02-.11.03-.17.04-.06,0-.12.02-.18.04-.06,0-.11,0-.14.01h-.08s-.05,0-.08.01h-.12s-.08.01-.13.01-.1,0-.14-.01h-.2c-.09-.02-.17-.03-.25-.03s-.15-.02-.23-.04c-.14-.04-.28-.08-.42-.11-.14-.03-.27-.08-.4-.13-.46-.21-.86-.49-1.2-.83-.34-.35-.62-.75-.83-1.22-.04-.1-.08-.2-.11-.3-.04-.1-.07-.21-.11-.32,0-.03-.01-.06-.01-.09s0-.06-.02-.09c-.02-.09-.04-.18-.05-.28-.01-.1-.03-.19-.05-.29,0-.03,0-.06,0-.1,0-.03,0-.06,0-.08v-.11s-.02-.12-.02-.23,0-.19.02-.24v-.25s0-.1.01-.14c0-.04.01-.08.01-.13s0-.09.01-.13c.02-.1.04-.19.05-.29.01-.1.03-.19.05-.29.08-.26.16-.52.25-.76s.19-.47.33-.68c.24-.38.53-.7.86-.97s.73-.48,1.18-.63c.09-.03.17-.05.26-.07.08-.01.17-.03.26-.05.04-.02.08-.02.11-.02s.07,0,.11-.01c.06,0,.13-.01.2-.02.07,0,.13,0,.2,0Z"/>
      <path class="cls-3" d="M206.13,294.88c.04.1.02.18-.05.24-.04.02-.09.04-.15.04-.06,0-.12,0-.19,0h-.38c-.13,0-.23-.03-.3-.08-.06-.04-.11-.1-.13-.19s-.04-.17-.05-.26c0-.03-.01-.06-.01-.09v-.08s-.02-.08-.01-.11c0-.03,0-.06,0-.1,0-.05-.01-.1-.01-.14v-.14l-.04-.54c-.02-.06-.02-.11-.02-.17s0-.12-.02-.18c-.04-.14-.07-.29-.09-.43-.02-.14-.06-.28-.11-.41-.15-.34-.4-.56-.76-.67-.1-.04-.22-.06-.34-.07-.12,0-.25,0-.39,0h-2.21c-.06.02-.11.03-.15.04-.04.01-.08.04-.11.08-.06.08-.08.21-.08.39,0,.18,0,.34,0,.47v1.74c0,.11,0,.25.01.41,0,.16,0,.29-.05.37-.02.06-.05.09-.1.11-.03.02-.06.02-.09.02s-.06,0-.1.02c-.03,0-.07.01-.11,0-.04,0-.08,0-.12,0-.09,0-.17,0-.26,0-.08,0-.15-.03-.21-.07-.06-.04-.1-.11-.1-.22v-7.61c0-.09,0-.18,0-.28s.01-.17.05-.23c.03-.05.09-.09.18-.12.02,0,.03,0,.05,0s.03,0,.05,0h3.48c.06,0,.12,0,.18,0,.06,0,.12,0,.17,0h.13s.1.01.14.02.1,0,.16.02c.06.02.13.03.2.04.07,0,.13.02.2.04.15.05.29.1.42.16.13.06.25.12.36.2.2.14.36.3.49.5.12.2.23.43.31.69.02.06.03.13.03.2s.01.13.03.2v.12s0,.09,0,.14c0,.05,0,.1-.02.14v.13c-.02.06-.03.12-.03.18,0,.06-.01.11-.03.17-.04.12-.08.23-.11.34s-.09.21-.15.31c-.02.04-.05.08-.08.11-.03.03-.05.07-.08.11,0,0-.02.01-.02.02s-.02,0-.02.02c-.02.02-.03.04-.05.06-.02.02-.04.04-.05.06-.06.05-.12.09-.18.14s-.12.09-.18.13c-.04.02-.08.05-.11.08-.03.03-.05.07-.06.11s0,.09.05.12c.04.03.08.06.11.07.09.06.17.12.25.18s.14.14.2.23c.09.11.15.24.19.38.04.14.08.29.12.45,0,.06.02.13.02.19,0,.06.02.12.02.19.02.06.02.11.01.17,0,.06,0,.11.01.17v.11c.02.06.02.12.01.18,0,.06,0,.13.01.19,0,.03.01.06,0,.09,0,.03,0,.06,0,.1.02.08.03.16.04.25,0,.08.02.16.05.23.02.05.03.09.03.14s.01.09.03.14l.11.29ZM204.68,289.9c.06-.09.1-.18.13-.28.03-.1.05-.2.08-.31v-.11c.02-.11.03-.23.01-.37s-.04-.24-.07-.33c-.13-.4-.38-.68-.76-.83-.16-.06-.35-.1-.56-.11-.21,0-.43-.01-.65-.01h-1.98s-.03.01-.05.01-.04,0-.07.01c-.1.02-.16.08-.19.16-.03.07-.05.17-.04.3s0,.24,0,.35v1.38c0,.12,0,.25,0,.38,0,.13.02.23.08.31.04.06.1.09.18.1.08.01.17.02.26.02h.74c.31,0,.62,0,.91,0,.3,0,.57-.01.82-.05s.48-.1.68-.2c.2-.1.36-.24.48-.43Z"/>
      <path class="cls-3" d="M214.31,294.56s.04.09.06.14c.02.06.04.11.05.17.01.06.01.12,0,.17-.01.05-.05.09-.1.11-.04.02-.09.02-.14.02h-.52c-.12,0-.22-.02-.29-.06-.08-.05-.14-.13-.17-.25-.04-.12-.07-.23-.11-.32-.09-.21-.17-.42-.24-.65-.07-.22-.15-.44-.24-.66-.02-.07-.05-.14-.07-.2-.02-.06-.04-.12-.07-.18-.03-.06-.07-.1-.11-.14-.05-.04-.11-.07-.19-.1-.04-.02-.09-.02-.14-.02-.05,0-.11,0-.16,0h-2.27c-.07,0-.15,0-.24,0-.09,0-.17,0-.25,0-.08,0-.15.02-.22.04-.07.02-.12.05-.15.1-.06.08-.11.17-.14.27-.03.1-.06.2-.1.31-.08.18-.15.38-.22.58-.07.2-.14.39-.22.58-.02.05-.03.1-.05.16-.02.06-.04.12-.07.19-.02.06-.05.12-.08.17-.03.05-.06.09-.09.11-.06.05-.15.07-.26.08-.11,0-.22,0-.34,0-.06,0-.13,0-.19,0-.06,0-.11-.02-.15-.05-.04-.02-.06-.06-.07-.11,0-.05,0-.1.01-.15.01-.05.03-.1.05-.16.02-.05.04-.09.05-.11.11-.26.21-.51.3-.76s.18-.51.29-.76c.07-.18.14-.35.2-.52.06-.17.13-.35.2-.52.24-.58.47-1.16.68-1.75.22-.59.44-1.17.68-1.76.09-.21.17-.42.25-.64.08-.22.16-.43.25-.64.04-.09.08-.19.11-.29.04-.11.09-.19.16-.23.03-.03.08-.06.16-.07.02,0,.03,0,.05,0,.02,0,.04,0,.05,0,.14,0,.31,0,.5,0,.19,0,.33.03.42.09.06.05.11.13.15.23.04.11.07.21.11.29.08.18.15.37.22.55.06.18.14.37.22.55.06.16.13.32.19.49.06.17.13.33.2.49.24.58.47,1.17.69,1.77.22.6.45,1.19.7,1.77.03.07.06.14.08.2.02.06.04.13.07.2.09.21.17.42.26.64s.17.43.26.64ZM211.74,291.64c.07-.02.12-.06.14-.12.02-.06.02-.12.01-.19s-.03-.14-.06-.2c-.03-.07-.05-.13-.08-.17-.02-.03-.02-.06-.02-.08s0-.05-.02-.08c-.02-.06-.05-.13-.07-.2-.02-.07-.05-.14-.08-.21-.12-.29-.23-.58-.32-.88-.09-.3-.2-.59-.32-.88-.04-.09-.07-.18-.1-.26s-.06-.17-.1-.25c-.02-.04-.03-.08-.05-.11-.02-.04-.06-.05-.13-.05-.02.02-.03.03-.05.04-.02,0-.03.02-.05.04-.03.04-.06.08-.07.13-.02.04-.03.09-.05.14-.04.09-.07.18-.1.26-.02.09-.06.18-.1.26-.14.31-.25.63-.35.95-.1.32-.21.63-.34.94-.02.04-.03.08-.04.12s-.03.08-.04.12c-.02.06-.05.13-.07.19-.02.06-.04.13-.06.19-.02.04-.02.08-.02.13,0,.05.01.09.03.12.04.06.12.1.25.1.13,0,.25,0,.36,0h1.28c.09,0,.2,0,.32,0s.22,0,.29-.03Z"/>
      <path class="cls-3" d="M215.75,286.64c.06,0,.12,0,.19,0,.07,0,.14,0,.21,0,.07,0,.13.01.19.03.06.02.1.04.12.07.05.06.07.15.07.25v6.83c0,.1.01.19.04.25.02.06.07.1.13.14.04.02.09.03.16.03.06,0,.13,0,.19,0h3.44c.06,0,.11,0,.17,0,.06,0,.11,0,.16.02.1.03.17.08.2.13,0,.02.02.06.02.12,0,.06.01.11.02.17,0,.06,0,.12,0,.18s-.02.11-.02.14c-.02.06-.05.1-.11.13-.04.03-.1.05-.17.05h-4.83c-.11,0-.21,0-.29-.02-.08-.01-.14-.05-.18-.11-.03-.05-.05-.11-.05-.19v-7.71c0-.07,0-.14,0-.22,0-.07.02-.13.04-.17.03-.05.09-.09.18-.12.02,0,.03,0,.05,0,.02,0,.04,0,.05,0Z"/>
      <path class="cls-3" d="M232.44,290.71c0,.06,0,.13,0,.21s0,.14-.02.2v.12s0,.05,0,.08c0,.03,0,.06,0,.07,0,.04-.01.08-.01.13s0,.09-.01.13c-.02.11-.04.23-.05.35,0,.12-.03.24-.07.35-.02.1-.05.19-.08.29-.03.1-.06.2-.1.29-.14.34-.31.65-.51.93-.2.28-.46.51-.76.7-.15.1-.31.18-.49.25-.17.07-.36.13-.56.2-.09.03-.18.05-.28.07-.1.01-.2.03-.29.05-.09.02-.17.02-.26.02s-.17,0-.25.02h-.17s-.05.01-.08,0-.06,0-.1,0h-2.4c-.12,0-.23,0-.32-.02-.09-.01-.15-.06-.19-.15-.03-.06-.05-.16-.04-.28s0-.23,0-.32v-7.09c0-.1,0-.2,0-.31,0-.11.01-.19.05-.26.03-.06.09-.09.18-.11.02,0,.03,0,.05,0s.03,0,.05,0h2.6s.08,0,.11,0c.04,0,.07,0,.1,0,.04.02.08.02.13.01s.09,0,.13,0,.08.01.13.01.09,0,.13.01c.04,0,.08.01.11.01s.07,0,.11.01c.09.02.17.03.25.04.08.01.16.03.24.05.18.06.34.11.5.16.16.05.31.12.44.21.11.06.21.13.3.19.02.02.05.03.07.05.02.02.05.04.07.05.05.04.09.08.13.12l.12.12s.07.07.1.08c.03.05.07.09.1.13s.07.08.1.13c.04.05.07.1.1.15.03.05.06.11.1.16.02.03.03.06.04.08s.02.05.04.08c.03.06.06.13.08.19.02.06.05.12.08.19.03.09.06.18.08.27.02.09.04.18.07.27.02.05.02.09.02.14s0,.09.02.14c.04.14.06.3.07.47,0,.17,0,.34,0,.51ZM231.3,291.33c.02-.08.02-.17.02-.26v-.27c0-.06,0-.13,0-.19,0-.06,0-.12-.02-.17,0-.02,0-.05,0-.07,0-.02,0-.05,0-.08-.02-.09-.03-.18-.03-.26s-.02-.18-.04-.26c-.02-.06-.03-.13-.04-.19s-.03-.12-.04-.19c-.09-.29-.2-.54-.34-.76-.22-.36-.56-.63-1-.82-.07-.04-.15-.07-.23-.09-.08-.02-.16-.04-.25-.07-.09-.02-.18-.04-.27-.04-.09,0-.18-.01-.27-.03h-.25s-.05-.01-.08-.01h-1.56s-.04.01-.06,0c-.02,0-.04,0-.06,0-.04.02-.08.03-.11.05-.04.02-.06.04-.08.07-.02.03-.03.09-.05.17v.1s-.01.07-.01.11v5.67s0,.07.01.1v.1c.02.08.03.14.05.17.06.1.18.14.36.14s.34,0,.5,0h.7c.06,0,.12,0,.18,0,.06,0,.12,0,.17-.02h.13s.08,0,.13,0,.1,0,.14,0c.05-.02.1-.03.14-.03s.1-.01.16-.03c.09-.02.17-.05.26-.07s.17-.06.26-.1c.3-.13.55-.3.76-.52.21-.22.39-.48.52-.79.04-.09.07-.18.1-.28s.06-.2.09-.31c.02-.09.04-.18.05-.28.01-.1.03-.2.04-.29,0-.04.01-.07.01-.1v-.09Z"/>
      <path class="cls-3" d="M234.18,286.64h4.96c.09,0,.18,0,.26,0,.09,0,.16.01.22.05.02.02.04.04.06.06.02.02.03.05.05.07.02.06.02.15.02.27s0,.22-.02.28c-.03.11-.1.17-.2.19-.1.01-.23.02-.37.02h-3.22c-.13,0-.28,0-.45,0-.17,0-.3.02-.38.07s-.12.13-.13.25,0,.24,0,.37v1.22c0,.09,0,.19,0,.31s0,.22.02.29c.02.1.07.16.14.19.03.02.09.03.17.05h.12s.07.01.1,0c.04,0,.07,0,.11,0h2.76c.07,0,.15,0,.24,0s.18,0,.27,0c.09,0,.18.01.25.02.08.01.13.03.17.05.02.02.04.05.06.11.02.06.03.12.04.18,0,.06,0,.13,0,.2s-.01.13-.03.17c-.02.07-.05.12-.11.16-.02.02-.04.03-.07.03-.03,0-.05.01-.08.02h-.07s-.08.01-.12,0c-.04,0-.08,0-.12,0h-2.98c-.1,0-.19,0-.28,0s-.18,0-.26.01c-.08.01-.15.03-.21.07-.06.03-.1.09-.13.17-.02.05-.02.1-.02.17s0,.13,0,.19v1.81c0,.11,0,.21.01.31,0,.09.04.16.1.2.06.04.12.06.19.07.07,0,.15,0,.24,0h3.67c.06,0,.13,0,.19,0,.06,0,.12,0,.17.02.1.03.16.08.19.13.02.02.03.06.04.12,0,.06.01.11.02.17,0,.06,0,.12,0,.18,0,.06-.02.11-.02.14-.03.06-.07.11-.11.13-.05.03-.11.05-.19.05h-5.09c-.11,0-.21,0-.29-.02-.08-.01-.14-.05-.18-.11-.03-.05-.05-.11-.05-.19v-7.93c0-.07.02-.13.05-.17.03-.06.09-.1.18-.12.02,0,.03,0,.05,0s.03,0,.05,0Z"/>
      <path class="cls-3" d="M251.25,294.88c.04.1.02.18-.05.24-.04.02-.09.04-.15.04-.06,0-.12,0-.19,0h-.38c-.13,0-.23-.03-.3-.08-.06-.04-.11-.1-.13-.19s-.04-.17-.05-.26c0-.03-.01-.06-.01-.09v-.08s-.02-.08-.01-.11c0-.03,0-.06,0-.1,0-.05-.01-.1-.01-.14v-.14l-.04-.54c-.02-.06-.02-.11-.02-.17s0-.12-.02-.18c-.04-.14-.07-.29-.09-.43-.02-.14-.06-.28-.11-.41-.15-.34-.4-.56-.76-.67-.1-.04-.22-.06-.34-.07-.12,0-.25,0-.39,0h-2.21c-.06.02-.11.03-.15.04-.04.01-.08.04-.11.08-.06.08-.08.21-.08.39,0,.18,0,.34,0,.47v1.74c0,.11,0,.25.01.41,0,.16,0,.29-.05.37-.02.06-.05.09-.1.11-.03.02-.06.02-.09.02s-.06,0-.1.02c-.03,0-.07.01-.11,0-.04,0-.08,0-.12,0-.09,0-.17,0-.26,0-.08,0-.15-.03-.21-.07-.06-.04-.1-.11-.1-.22v-7.61c0-.09,0-.18,0-.28s.01-.17.05-.23c.03-.05.09-.09.18-.12.02,0,.03,0,.05,0s.03,0,.05,0h3.48c.06,0,.12,0,.18,0,.06,0,.12,0,.17,0h.13s.1.01.14.02.1,0,.16.02c.06.02.13.03.2.04.07,0,.13.02.2.04.15.05.29.1.42.16.13.06.25.12.36.2.2.14.36.3.49.5.12.2.23.43.31.69.02.06.03.13.03.2s.01.13.03.2v.12s0,.09,0,.14c0,.05,0,.1-.02.14v.13c-.02.06-.03.12-.03.18,0,.06-.01.11-.03.17-.04.12-.08.23-.11.34s-.09.21-.15.31c-.02.04-.05.08-.08.11-.03.03-.05.07-.08.11,0,0-.02.01-.02.02s-.02,0-.02.02c-.02.02-.03.04-.05.06-.02.02-.04.04-.05.06-.06.05-.12.09-.18.14s-.12.09-.18.13c-.04.02-.08.05-.11.08-.03.03-.05.07-.06.11s0,.09.05.12c.04.03.08.06.11.07.09.06.17.12.25.18s.14.14.2.23c.09.11.15.24.19.38.04.14.08.29.12.45,0,.06.02.13.02.19,0,.06.02.12.02.19.02.06.02.11.01.17,0,.06,0,.11.01.17v.11c.02.06.02.12.01.18,0,.06,0,.13.01.19,0,.03.01.06,0,.09,0,.03,0,.06,0,.1.02.08.03.16.04.25,0,.08.02.16.05.23.02.05.03.09.03.14s.01.09.03.14l.11.29ZM249.79,289.9c.06-.09.1-.18.13-.28.03-.1.05-.2.08-.31v-.11c.02-.11.03-.23.01-.37s-.04-.24-.07-.33c-.13-.4-.38-.68-.76-.83-.16-.06-.35-.1-.56-.11-.21,0-.43-.01-.65-.01h-1.98s-.03.01-.05.01-.04,0-.07.01c-.1.02-.16.08-.19.16-.03.07-.05.17-.04.3s0,.24,0,.35v1.38c0,.12,0,.25,0,.38,0,.13.02.23.08.31.04.06.1.09.18.1.08.01.17.02.26.02h.74c.31,0,.62,0,.91,0,.3,0,.57-.01.82-.05s.48-.1.68-.2c.2-.1.36-.24.48-.43Z"/>
      <path class="cls-3" d="M253.07,286.64h4.96c.09,0,.18,0,.26,0,.09,0,.16.01.22.05.02.02.04.04.06.06.02.02.03.05.05.07.02.06.02.15.02.27s0,.22-.02.28c-.03.11-.1.17-.2.19-.1.01-.23.02-.37.02h-3.22c-.13,0-.28,0-.45,0-.17,0-.3.02-.38.07s-.12.13-.13.25,0,.24,0,.37v1.22c0,.09,0,.19,0,.31s0,.22.02.29c.02.1.07.16.14.19.03.02.09.03.17.05h.12s.07.01.1,0c.04,0,.07,0,.11,0h2.76c.07,0,.15,0,.24,0s.18,0,.27,0c.09,0,.18.01.25.02.08.01.13.03.17.05.02.02.04.05.06.11.02.06.03.12.04.18,0,.06,0,.13,0,.2s-.01.13-.03.17c-.02.07-.05.12-.11.16-.02.02-.04.03-.07.03-.03,0-.05.01-.08.02h-.07s-.08.01-.12,0c-.04,0-.08,0-.12,0h-2.98c-.1,0-.19,0-.28,0s-.18,0-.26.01c-.08.01-.15.03-.21.07-.06.03-.1.09-.13.17-.02.05-.02.1-.02.17s0,.13,0,.19v1.81c0,.11,0,.21.01.31,0,.09.04.16.1.2.06.04.12.06.19.07.07,0,.15,0,.24,0h3.67c.06,0,.13,0,.19,0,.06,0,.12,0,.17.02.1.03.16.08.19.13.02.02.03.06.04.12,0,.06.01.11.02.17,0,.06,0,.12,0,.18,0,.06-.02.11-.02.14-.03.06-.07.11-.11.13-.05.03-.11.05-.19.05h-5.09c-.11,0-.21,0-.29-.02-.08-.01-.14-.05-.18-.11-.03-.05-.05-.11-.05-.19v-7.93c0-.07.02-.13.05-.17.03-.06.09-.1.18-.12.02,0,.03,0,.05,0s.03,0,.05,0Z"/>
      <path class="cls-3" d="M263.56,286.45c.78-.02,1.44.11,1.97.38.53.27.95.64,1.24,1.11.08.13.15.25.2.37.05.12.1.25.15.41.02.04.03.09.05.16.02.07.01.13-.01.19-.02.05-.05.08-.09.09s-.09.03-.14.04h-.12s-.05.01-.09.01h-.1c-.11,0-.21,0-.31-.02-.09-.01-.16-.05-.2-.11-.06-.08-.1-.17-.13-.28s-.08-.2-.13-.29c-.1-.18-.22-.33-.35-.46-.13-.13-.29-.25-.46-.36-.1-.06-.2-.11-.32-.14-.12-.03-.23-.06-.35-.1-.09-.02-.19-.04-.3-.05-.11-.01-.23-.02-.35-.02s-.24,0-.36.02c-.12.01-.21.03-.29.05-.08.02-.16.03-.23.05-.07.02-.14.04-.22.07-.67.28-1.16.76-1.45,1.44-.06.11-.1.23-.14.35-.04.12-.07.25-.11.38-.02.05-.02.1-.02.15s0,.1-.02.15c0,.03-.01.06-.01.08s0,.05-.01.08c-.02.09-.03.18-.03.27s0,.19,0,.28c0,.06,0,.11,0,.17,0,.06,0,.11,0,.16v.12c.02.06.02.11.02.17,0,.06,0,.11.02.17.02.05.02.1.02.14,0,.05,0,.09.02.13.02.1.05.21.07.31.02.1.05.2.08.29.14.4.31.74.53,1.03.22.28.5.52.85.7.11.06.23.1.34.13s.24.07.38.11c.06.02.11.02.16.02s.1,0,.17.02c.04,0,.11.01.22.02.1,0,.18,0,.23-.02h.08s.06-.01.1,0c.03,0,.06,0,.1-.02.08-.02.16-.03.23-.04.08-.01.15-.03.22-.07.62-.26,1.06-.68,1.32-1.26.06-.14.12-.32.18-.52.02-.07.03-.15.04-.22.01-.08.04-.15.08-.21.04-.06.1-.1.19-.11.09,0,.18-.01.29-.01h.12s.08,0,.11.01h.08s.05.01.08.02c.03,0,.05.01.07.03.06.03.09.09.1.17s0,.17-.02.25c-.05.18-.09.36-.13.53s-.1.33-.18.48c-.06.1-.12.2-.17.3-.05.1-.11.19-.17.29-.14.21-.32.4-.53.57s-.44.31-.69.43c-.09.04-.17.07-.26.1s-.17.05-.26.08c-.09.03-.18.05-.27.07-.09.01-.19.03-.28.04-.04.02-.08.02-.11.02-.03,0-.06,0-.1,0-.05,0-.1.01-.14.01s-.1,0-.16.01c-.02,0-.08.01-.16,0-.08,0-.14-.01-.16-.02-.04,0-.08-.01-.11,0s-.07,0-.11,0h-.12c-.06-.02-.12-.03-.18-.03-.06,0-.12-.01-.18-.03-.07-.02-.14-.03-.22-.04-.07-.01-.14-.03-.2-.05-.17-.05-.32-.11-.46-.18-.5-.22-.91-.52-1.22-.92-.31-.4-.56-.87-.74-1.42-.03-.1-.06-.2-.08-.3-.02-.1-.04-.21-.07-.32-.02-.04-.02-.08-.02-.11,0-.03,0-.07,0-.11-.02-.07-.03-.15-.03-.23,0-.08-.01-.16-.03-.23v-.23s-.02-.11-.02-.2,0-.16.02-.2c0-.02,0-.05,0-.08,0-.03,0-.05,0-.07v-.11c0-.06.01-.13.02-.2,0-.07.01-.13.03-.2.02-.05.02-.1.02-.15s0-.11.02-.16c.04-.14.07-.27.1-.4.02-.13.06-.25.11-.36.04-.1.08-.21.13-.32s.09-.21.15-.29c.12-.21.24-.4.36-.56.02-.04.05-.07.09-.1.04-.03.07-.06.09-.1.05-.06.1-.12.15-.17.05-.05.11-.1.16-.14.05-.04.09-.08.14-.11.04-.04.09-.07.15-.11.12-.09.25-.16.38-.23.13-.06.27-.13.41-.19.09-.04.18-.07.28-.09.1-.02.2-.05.29-.08.06,0,.11-.02.16-.02s.1-.02.14-.02c.06,0,.13-.01.19-.02.06,0,.12,0,.19-.02.02,0,.04,0,.06,0,.02,0,.04,0,.06,0Z"/>
      <path class="cls-3" d="M269.03,286.64c.11,0,.25,0,.4,0s.26.03.31.09c.06.07.09.18.09.32,0,.14,0,.28,0,.41v4.03c0,.28,0,.55.01.82,0,.27.05.51.12.71.1.31.25.57.44.77.19.2.44.36.73.49.09.04.18.07.28.08.1.01.19.03.29.05.05,0,.1.01.15.02.05,0,.1.01.15.02h.12s.1,0,.15,0,.1,0,.14-.02c.04,0,.08-.01.13,0,.04,0,.09,0,.13,0,.1-.02.19-.04.28-.06.09-.02.18-.04.26-.08.3-.12.54-.28.71-.47.17-.19.31-.45.41-.77.06-.2.1-.43.11-.68s.02-.51.02-.77v-4.04c0-.14,0-.29,0-.46s.03-.29.09-.37c.04-.06.11-.08.22-.08h.32s.08,0,.11,0,.07,0,.11,0c.11.02.18.06.22.12.04.06.06.16.05.28,0,.12,0,.23,0,.32v4.15c0,.3,0,.59-.01.88s-.04.55-.11.78c-.11.39-.26.73-.44,1-.18.28-.42.51-.73.7-.12.07-.25.14-.38.19-.14.06-.28.11-.43.16-.07.02-.14.04-.22.05-.07.01-.15.03-.23.04s-.16.02-.25.02-.17,0-.25.02h-.14s-.1.01-.19.01-.15,0-.19-.01h-.14c-.06-.02-.11-.02-.17-.02-.06,0-.12,0-.17-.02h-.1c-.06-.02-.13-.03-.19-.04-.06,0-.12-.02-.19-.04-.14-.04-.27-.08-.4-.11s-.26-.08-.38-.14c-.06-.02-.11-.05-.16-.08-.05-.03-.11-.07-.16-.11-.24-.15-.44-.33-.6-.54s-.3-.45-.41-.73c-.05-.12-.08-.24-.11-.37-.02-.13-.05-.26-.08-.4,0-.06-.01-.13-.02-.19s0-.12-.02-.19v-.12c-.02-.06-.02-.13-.01-.2s.01-.13.01-.2v-4.94c0-.07.02-.13.05-.18.03-.06.09-.1.18-.12.05,0,.08,0,.1-.01Z"/>
      <path class="cls-3" d="M284.13,294.88c.04.1.02.18-.05.24-.04.02-.09.04-.15.04-.06,0-.12,0-.19,0h-.38c-.13,0-.23-.03-.3-.08-.06-.04-.11-.1-.13-.19s-.04-.17-.05-.26c0-.03-.01-.06-.01-.09v-.08s-.02-.08-.01-.11c0-.03,0-.06,0-.1,0-.05-.01-.1-.01-.14v-.14l-.04-.54c-.02-.06-.02-.11-.02-.17s0-.12-.02-.18c-.04-.14-.07-.29-.09-.43-.02-.14-.06-.28-.11-.41-.15-.34-.4-.56-.76-.67-.1-.04-.22-.06-.34-.07-.12,0-.25,0-.39,0h-2.21c-.06.02-.11.03-.15.04-.04.01-.08.04-.11.08-.06.08-.08.21-.08.39,0,.18,0,.34,0,.47v1.74c0,.11,0,.25.01.41,0,.16,0,.29-.05.37-.02.06-.05.09-.1.11-.03.02-.06.02-.09.02s-.06,0-.1.02c-.03,0-.07.01-.11,0-.04,0-.08,0-.12,0-.09,0-.17,0-.26,0-.08,0-.15-.03-.21-.07-.06-.04-.1-.11-.1-.22v-7.61c0-.09,0-.18,0-.28s.01-.17.05-.23c.03-.05.09-.09.18-.12.02,0,.03,0,.05,0s.03,0,.05,0h3.48c.06,0,.12,0,.18,0,.06,0,.12,0,.17,0h.13s.1.01.14.02.1,0,.16.02c.06.02.13.03.2.04.07,0,.13.02.2.04.15.05.29.1.42.16.13.06.25.12.36.2.2.14.36.3.49.5.12.2.23.43.31.69.02.06.03.13.03.2s.01.13.03.2v.12s0,.09,0,.14c0,.05,0,.1-.02.14v.13c-.02.06-.03.12-.03.18,0,.06-.01.11-.03.17-.04.12-.08.23-.11.34s-.09.21-.15.31c-.02.04-.05.08-.08.11-.03.03-.05.07-.08.11,0,0-.02.01-.02.02s-.02,0-.02.02c-.02.02-.03.04-.05.06-.02.02-.04.04-.05.06-.06.05-.12.09-.18.14s-.12.09-.18.13c-.04.02-.08.05-.11.08-.03.03-.05.07-.06.11s0,.09.05.12c.04.03.08.06.11.07.09.06.17.12.25.18s.14.14.2.23c.09.11.15.24.19.38.04.14.08.29.12.45,0,.06.02.13.02.19,0,.06.02.12.02.19.02.06.02.11.01.17,0,.06,0,.11.01.17v.11c.02.06.02.12.01.18,0,.06,0,.13.01.19,0,.03.01.06,0,.09,0,.03,0,.06,0,.1.02.08.03.16.04.25,0,.08.02.16.05.23.02.05.03.09.03.14s.01.09.03.14l.11.29ZM282.67,289.9c.06-.09.1-.18.13-.28.03-.1.05-.2.08-.31v-.11c.02-.11.03-.23.01-.37s-.04-.24-.07-.33c-.13-.4-.38-.68-.76-.83-.16-.06-.35-.1-.56-.11-.21,0-.43-.01-.65-.01h-1.98s-.03.01-.05.01-.04,0-.07.01c-.1.02-.16.08-.19.16-.03.07-.05.17-.04.3s0,.24,0,.35v1.38c0,.12,0,.25,0,.38,0,.13.02.23.08.31.04.06.1.09.18.1.08.01.17.02.26.02h.74c.31,0,.62,0,.91,0,.3,0,.57-.01.82-.05s.48-.1.68-.2c.2-.1.36-.24.48-.43Z"/>
      <path class="cls-3" d="M288.36,286.46c.46-.02.86.02,1.21.11.35.09.66.22.94.4.05.03.09.06.14.08s.09.06.13.1c.02.02.03.03.05.04.02.01.03.03.05.04.02.02.04.03.06.05.02.02.04.04.06.07l.1.12s.06.08.1.12c.03.04.06.08.08.13.02.04.04.09.07.13.07.11.13.24.17.38.04.14.08.29.12.44.02.06.02.13.02.21,0,.08-.02.13-.04.17-.04.06-.1.09-.19.1-.09,0-.18.01-.28.01h-.11s-.06,0-.1-.01c-.04,0-.07-.01-.1-.01s-.06,0-.09-.02c-.02,0-.03-.02-.05-.03-.02-.01-.03-.03-.05-.04-.05-.07-.08-.16-.1-.26-.02-.1-.05-.2-.09-.28-.14-.32-.33-.56-.58-.72-.18-.13-.4-.22-.66-.29-.05-.02-.1-.03-.14-.03-.05,0-.1-.01-.14-.03h-.1c-.06-.02-.13-.02-.19-.02h-.19c-.42,0-.76.06-1.04.19-.16.06-.3.15-.43.26s-.22.24-.29.4c-.03.06-.05.13-.07.2s-.03.14-.04.22c-.02.06-.02.14-.02.22,0,.08.01.15.03.2.06.18.13.32.21.42s.2.19.35.28c.18.11.37.2.59.25.22.06.44.12.67.18.07.02.14.03.22.04s.14.02.22.05c.11.03.23.06.35.08s.24.05.35.09c.03,0,.06.01.08.02.02,0,.05.01.08.02.07.02.14.03.22.05.07.02.14.04.22.07.16.06.32.12.47.18.15.06.3.14.43.23.18.11.33.24.47.39.14.15.25.32.34.52.03.07.06.14.07.22.02.07.03.15.05.23.02.04.02.09.02.14s0,.1.02.15v.24s-.01.06-.01.1v.1c-.02.06-.03.13-.03.2,0,.07-.02.13-.04.2-.04.12-.08.24-.13.35-.05.11-.11.22-.18.31-.14.21-.31.38-.52.53s-.43.27-.67.38c-.08.03-.16.06-.23.08s-.16.05-.25.07c-.09.03-.18.05-.28.07-.1.01-.19.03-.29.05-.04,0-.08.01-.13.01s-.09,0-.13.01c-.05,0-.1,0-.14,0-.05,0-.1,0-.14,0-.04,0-.1.01-.17.01s-.13,0-.17-.01h-.13c-.08-.02-.16-.02-.24-.02s-.16,0-.23-.02c-.03,0-.06-.01-.1-.02s-.07-.01-.11-.02c-.09-.02-.17-.03-.25-.05s-.15-.04-.23-.07c-.39-.13-.72-.29-.99-.49-.27-.2-.5-.46-.69-.78-.06-.1-.12-.21-.16-.32-.04-.11-.09-.23-.13-.36-.02-.05-.03-.1-.03-.14,0-.05-.01-.09-.03-.13-.02-.07-.02-.15-.02-.25s.02-.16.06-.2c.04-.06.11-.09.2-.1.09,0,.18-.01.27-.01h.1s.07,0,.09.01c.04,0,.07.01.1,0,.02,0,.05,0,.08.02.06.03.09.06.11.1.02.04.04.08.04.13,0,.04.01.09.03.14.02.06.03.11.04.17.01.06.03.11.05.17.14.34.34.62.61.82.14.1.28.19.44.25.16.06.33.12.52.18.06.02.13.03.19.04.06,0,.13.02.19.02.02,0,.04,0,.06,0,.02,0,.05,0,.07,0,.03,0,.07,0,.11,0,.04,0,.09,0,.13.01.03,0,.08.01.14.01s.11,0,.15-.02h.08s.08-.01.12-.01.08,0,.12-.01c.02,0,.05,0,.07,0,.02,0,.05,0,.08-.02.06-.02.13-.03.2-.04.07-.01.14-.03.2-.05.21-.09.39-.19.56-.31.16-.12.29-.27.38-.47.02-.06.04-.13.06-.19.02-.06.03-.13.05-.19.02-.06.02-.14.02-.23s0-.16-.02-.22c-.02-.04-.02-.07-.02-.1s0-.06-.02-.09c-.05-.14-.11-.25-.19-.34-.08-.09-.18-.18-.29-.26-.17-.12-.36-.22-.56-.29-.21-.07-.43-.13-.65-.19-.23-.05-.46-.1-.7-.15-.24-.05-.47-.1-.7-.17-.13-.04-.26-.07-.38-.1-.13-.03-.25-.07-.36-.11-.02,0-.03-.01-.04-.01s-.02,0-.04-.01c-.08-.03-.16-.06-.24-.1-.08-.03-.16-.07-.23-.12-.18-.11-.35-.23-.5-.37-.15-.13-.27-.3-.36-.51-.04-.07-.07-.15-.08-.23-.02-.08-.04-.17-.06-.26,0-.03,0-.06,0-.08,0-.02,0-.05,0-.07-.02-.1-.03-.22-.01-.37.02-.15.04-.26.06-.34.02-.09.05-.17.07-.25.02-.08.05-.16.08-.23.11-.24.26-.44.43-.61s.37-.31.59-.45c.02-.02.04-.03.06-.03.02,0,.04-.01.06-.03.18-.09.38-.16.61-.23.06-.02.12-.03.18-.04.06-.01.12-.03.18-.04s.13-.02.21-.02.15,0,.21-.02c.02,0,.06,0,.11,0,.05,0,.08,0,.1-.01Z"/>
      <path class="cls-3" d="M301.11,290.74s.01.1.01.17,0,.13-.01.17v.14c-.02.08-.02.16-.02.25s0,.16-.02.23c-.02.06-.03.12-.04.18,0,.06-.02.12-.02.18-.04.14-.08.27-.11.4-.03.13-.07.25-.12.37-.24.58-.55,1.07-.94,1.46-.39.39-.89.69-1.52.9-.09.02-.18.04-.26.06s-.18.04-.26.06c-.04,0-.08.01-.11.01s-.06,0-.1.01l-.4.04s-.08.01-.16,0c-.08,0-.14-.01-.16-.02-.04,0-.08-.01-.11,0s-.07,0-.1,0h-.13c-.06-.02-.11-.03-.16-.03-.05,0-.11-.01-.16-.02-.08-.02-.16-.04-.23-.05-.08-.01-.15-.03-.23-.05-.08-.03-.16-.06-.24-.1-.08-.03-.16-.06-.24-.1-.49-.22-.89-.51-1.21-.89-.32-.38-.58-.82-.79-1.33-.05-.11-.08-.23-.11-.35-.02-.12-.06-.24-.1-.37-.02-.03-.02-.06-.02-.08s0-.06-.02-.1c-.02-.06-.02-.12-.02-.18s0-.13-.02-.19c-.02-.03-.02-.06-.02-.1,0-.03,0-.06,0-.08v-.25s-.02-.1-.02-.17,0-.13.02-.17v-.16l.04-.43s.02-.1.02-.14,0-.1.02-.14c.03-.13.06-.25.08-.38.02-.12.06-.24.11-.35.06-.15.12-.3.18-.44s.13-.28.22-.41c.22-.36.49-.67.79-.94.3-.26.66-.48,1.08-.65.09-.04.18-.07.28-.1s.2-.05.31-.08c.05-.02.1-.02.15-.02s.1,0,.15-.02c.06,0,.13-.01.19-.02.06,0,.12,0,.19-.02.02,0,.04,0,.06,0,.02,0,.04,0,.06,0,.54-.02,1,.04,1.4.16s.75.29,1.06.51c.12.08.24.16.35.25.11.09.21.19.3.3.02.04.05.07.08.1.03.02.06.06.08.1.05.06.1.13.14.2.05.07.09.13.13.2.02.04.03.07.05.1.02.03.04.06.06.1.03.05.06.1.08.14.06.14.13.3.19.46.02.05.03.09.04.14.01.04.03.09.04.14.02.08.05.16.07.25.02.08.04.17.07.26.02.04.02.08.02.12s0,.08.01.12c.02.06.02.11.02.17s0,.12.02.18v.07s0,.08,0,.12,0,.08.01.12ZM299.98,291.13s.02-.11.02-.21,0-.17-.02-.21v-.1s0-.08,0-.11,0-.07,0-.11c-.02-.04-.02-.08-.02-.11,0-.04,0-.07-.02-.11-.02-.07-.03-.14-.04-.22-.01-.07-.03-.14-.04-.2-.04-.11-.07-.22-.1-.32-.03-.1-.06-.2-.1-.29-.14-.33-.32-.62-.56-.89-.24-.26-.51-.47-.83-.61-.18-.08-.38-.14-.62-.19-.11-.03-.24-.05-.38-.05-.14,0-.28,0-.41,0-.06,0-.11.01-.16.02s-.11.01-.17.02c-.12.03-.23.06-.34.09-.11.03-.21.06-.32.1-.43.18-.77.45-1.02.79-.25.34-.45.75-.6,1.21-.03.09-.05.18-.07.27-.01.09-.03.19-.05.28,0,.04-.01.08-.01.11s0,.07-.01.11c-.02.03-.02.07-.02.1,0,.04,0,.07,0,.1v.11s-.01.11-.01.22,0,.18.01.22c0,.03,0,.06,0,.09,0,.03,0,.06,0,.09.02.06.03.13.03.21,0,.08.01.15.03.21,0,.03,0,.06,0,.09,0,.03,0,.06.02.09.02.09.04.18.06.26.02.09.04.18.08.26.04.09.07.17.1.26.03.08.07.17.11.25.04.06.08.13.11.19s.07.12.11.19c.25.35.57.63.97.83.11.06.23.11.34.14s.24.07.38.11c.06.02.11.02.16.02s.1,0,.16.02c.05.02.1.02.16.02.06,0,.12,0,.19,0h.12s.08-.01.12-.02c.04,0,.08,0,.12,0,.11-.02.22-.04.32-.06.1-.02.19-.04.28-.08.41-.17.74-.39,1-.66s.47-.61.64-1.02c.04-.1.07-.21.1-.32.03-.11.06-.22.09-.34.02-.05.03-.1.03-.15,0-.05.01-.11.03-.16l.04-.4v-.11Z"/>
      <path class="cls-3" d="M305.26,286.46c.46-.02.86.02,1.21.11.35.09.66.22.94.4.05.03.09.06.14.08s.09.06.13.1c.02.02.03.03.05.04.02.01.03.03.05.04.02.02.04.03.06.05.02.02.04.04.06.07l.1.12s.06.08.1.12c.03.04.06.08.08.13.02.04.04.09.07.13.07.11.13.24.17.38.04.14.08.29.12.44.02.06.02.13.02.21,0,.08-.02.13-.04.17-.04.06-.1.09-.19.1-.09,0-.18.01-.28.01h-.11s-.06,0-.1-.01c-.04,0-.07-.01-.1-.01s-.06,0-.09-.02c-.02,0-.03-.02-.05-.03-.02-.01-.03-.03-.05-.04-.05-.07-.08-.16-.1-.26-.02-.1-.05-.2-.09-.28-.14-.32-.33-.56-.58-.72-.18-.13-.4-.22-.66-.29-.05-.02-.1-.03-.14-.03-.05,0-.1-.01-.14-.03h-.1c-.06-.02-.13-.02-.19-.02h-.19c-.42,0-.76.06-1.04.19-.16.06-.3.15-.43.26s-.22.24-.29.4c-.03.06-.05.13-.07.2s-.03.14-.04.22c-.02.06-.02.14-.02.22,0,.08.01.15.03.2.06.18.13.32.21.42s.2.19.35.28c.18.11.37.2.59.25.22.06.44.12.67.18.07.02.14.03.22.04s.14.02.22.05c.11.03.23.06.35.08s.24.05.35.09c.03,0,.06.01.08.02.02,0,.05.01.08.02.07.02.14.03.22.05.07.02.14.04.22.07.16.06.32.12.47.18.15.06.3.14.43.23.18.11.33.24.47.39.14.15.25.32.34.52.03.07.06.14.07.22.02.07.03.15.05.23.02.04.02.09.02.14s0,.1.02.15v.24s-.01.06-.01.1v.1c-.02.06-.03.13-.03.2,0,.07-.02.13-.04.2-.04.12-.08.24-.13.35-.05.11-.11.22-.18.31-.14.21-.31.38-.52.53s-.43.27-.67.38c-.08.03-.16.06-.23.08s-.16.05-.25.07c-.09.03-.18.05-.28.07-.1.01-.19.03-.29.05-.04,0-.08.01-.13.01s-.09,0-.13.01c-.05,0-.1,0-.14,0-.05,0-.1,0-.14,0-.04,0-.1.01-.17.01s-.13,0-.17-.01h-.13c-.08-.02-.16-.02-.24-.02s-.16,0-.23-.02c-.03,0-.06-.01-.1-.02s-.07-.01-.11-.02c-.09-.02-.17-.03-.25-.05s-.15-.04-.23-.07c-.39-.13-.72-.29-.99-.49-.27-.2-.5-.46-.69-.78-.06-.1-.12-.21-.16-.32-.04-.11-.09-.23-.13-.36-.02-.05-.03-.1-.03-.14,0-.05-.01-.09-.03-.13-.02-.07-.02-.15-.02-.25s.02-.16.06-.2c.04-.06.11-.09.2-.1.09,0,.18-.01.27-.01h.1s.07,0,.09.01c.04,0,.07.01.1,0,.02,0,.05,0,.08.02.06.03.09.06.11.1.02.04.04.08.04.13,0,.04.01.09.03.14.02.06.03.11.04.17.01.06.03.11.05.17.14.34.34.62.61.82.14.1.28.19.44.25.16.06.33.12.52.18.06.02.13.03.19.04.06,0,.13.02.19.02.02,0,.04,0,.06,0,.02,0,.05,0,.07,0,.03,0,.07,0,.11,0,.04,0,.09,0,.13.01.03,0,.08.01.14.01s.11,0,.15-.02h.08s.08-.01.12-.01.08,0,.12-.01c.02,0,.05,0,.07,0,.02,0,.05,0,.08-.02.06-.02.13-.03.2-.04.07-.01.14-.03.2-.05.21-.09.39-.19.56-.31.16-.12.29-.27.38-.47.02-.06.04-.13.06-.19.02-.06.03-.13.05-.19.02-.06.02-.14.02-.23s0-.16-.02-.22c-.02-.04-.02-.07-.02-.1s0-.06-.02-.09c-.05-.14-.11-.25-.19-.34-.08-.09-.18-.18-.29-.26-.17-.12-.36-.22-.56-.29-.21-.07-.43-.13-.65-.19-.23-.05-.46-.1-.7-.15-.24-.05-.47-.1-.7-.17-.13-.04-.26-.07-.38-.1-.13-.03-.25-.07-.36-.11-.02,0-.03-.01-.04-.01s-.02,0-.04-.01c-.08-.03-.16-.06-.24-.1-.08-.03-.16-.07-.23-.12-.18-.11-.35-.23-.5-.37-.15-.13-.27-.3-.36-.51-.04-.07-.07-.15-.08-.23-.02-.08-.04-.17-.06-.26,0-.03,0-.06,0-.08,0-.02,0-.05,0-.07-.02-.1-.03-.22-.01-.37.02-.15.04-.26.06-.34.02-.09.05-.17.07-.25.02-.08.05-.16.08-.23.11-.24.26-.44.43-.61s.37-.31.59-.45c.02-.02.04-.03.06-.03.02,0,.04-.01.06-.03.18-.09.38-.16.61-.23.06-.02.12-.03.18-.04.06-.01.12-.03.18-.04s.13-.02.21-.02.15,0,.21-.02c.02,0,.06,0,.11,0,.05,0,.08,0,.1-.01Z"/>
    </g>
  </g>
</svg>